<svg width="146" height="146" viewBox="0 0 146 146" fill="none" xmlns="http://www.w3.org/2000/svg">
<path d="M73 0C32.6734 0 0 32.6734 0 73C0 113.327 32.6734 146 73 146C113.327 146 146 113.327 146 73C146 32.6734 113.327 0 73 0ZM110.677 124.1C100.11 131.9 87.0996 136.581 73 136.581C58.9004 136.581 45.8899 131.9 35.3226 124.1V120.097C35.3226 109.706 43.7706 101.258 54.1613 101.258C57.4286 101.258 62.256 104.614 73 104.614C83.7734 104.614 88.5419 101.258 91.8387 101.258C102.229 101.258 110.677 109.706 110.677 120.097V124.1ZM119.685 116.005C117.683 102.347 106.056 91.8387 91.8387 91.8387C85.8044 91.8387 82.8903 95.1944 73 95.1944C63.1097 95.1944 60.225 91.8387 54.1613 91.8387C39.944 91.8387 28.3169 102.347 26.3153 116.005C15.8657 104.673 9.41935 89.6016 9.41935 73C9.41935 37.9423 37.9423 9.41935 73 9.41935C108.058 9.41935 136.581 37.9423 136.581 73C136.581 89.6016 130.134 104.673 119.685 116.005ZM73 32.9677C58.6944 32.9677 47.0968 44.5653 47.0968 58.871C47.0968 73.1766 58.6944 84.7742 73 84.7742C87.3056 84.7742 98.9032 73.1766 98.9032 58.871C98.9032 44.5653 87.3056 32.9677 73 32.9677ZM73 75.3548C63.9044 75.3548 56.5161 67.9665 56.5161 58.871C56.5161 49.7754 63.9044 42.3871 73 42.3871C82.0956 42.3871 89.4839 49.7754 89.4839 58.871C89.4839 67.9665 82.0956 75.3548 73 75.3548Z" fill="white" fill-opacity="0.75"/>
</svg>
