<svg width="24" height="34" viewBox="0 0 24 34" fill="none" xmlns="http://www.w3.org/2000/svg">
<path d="M6.13069 0.914879C3.46394 1.51305 1.61403 3.14007 0.677069 5.70024C0.292673 6.75302 0.244624 7.92543 0.148525 15.4384C0.0524259 24.9374 0.220599 27.4018 1.15756 29.2203C1.92636 30.7277 3.53601 32.1393 5.1697 32.7375C6.70728 33.2878 11.8966 33.551 15.9328 33.2878C18.047 33.1443 18.6476 33.0246 19.9449 32.3786C21.6026 31.5651 22.3474 30.7755 23.2123 28.8853C23.7649 27.7368 23.7649 27.5215 23.8369 18.0465C23.909 9.8635 23.861 8.11684 23.5246 6.65731C22.9 3.81002 21.4585 2.01551 19.056 1.13022C17.5665 0.555977 8.38901 0.412415 6.13069 0.914879ZM17.158 4.88673C17.6145 4.98243 18.2632 5.26955 18.5755 5.4849C19.7527 6.32233 19.8008 6.77694 19.8008 17.1133C19.8008 30.0338 20.3774 29.1485 12.0888 29.1485C6.94753 29.1485 6.58716 29.1246 5.96251 28.646C5.60214 28.3828 5.0736 27.8564 4.80933 27.4975C4.32883 26.8515 4.30481 26.5644 4.30481 17.1133C4.30481 7.75794 4.32883 7.35119 4.7853 6.53768C5.53007 5.26955 6.63521 4.76709 8.98963 4.59961C11.3921 4.40819 15.9568 4.57568 17.158 4.88673Z" fill="black"/>
</svg>
