<svg width="51" height="47" viewBox="0 0 51 47" fill="none" xmlns="http://www.w3.org/2000/svg">
<rect x="0.5" y="0.5" width="50" height="46" rx="4.5" fill="#8252B1" stroke="#E4E4E4"/>
<path d="M33 23.0003C33 22.4294 32.5525 22 32.0453 22C31.9503 22 31.8531 22.015 31.7563 22.0472L22.6694 25.0472C22.2722 25.1784 22 25.5625 22 26V33.6488C21.4684 33.2497 20.7719 33 20 33C18.3431 33 17 34.1194 17 35.5C17 36.8806 18.3431 38 20 38C21.6569 38 23 36.8806 23 35.5V30L32 27V31.6488C31.4684 31.2497 30.7719 31 30 31C28.3431 31 27 32.1194 27 33.5C27 34.8806 28.3431 36 30 36C31.6569 36 33 34.8806 33 33.5C33 33.4991 32.9997 33.4984 32.9997 33.4975L33 23.0003ZM20 37C18.9159 37 18 36.3131 18 35.5C18 34.6869 18.9159 34 20 34C21.0841 34 22 34.6869 22 35.5C22 36.3131 21.0841 37 20 37ZM32 25.9459L23 28.9459V26H22.9828V25.9966L32 23.0197V25.9459ZM30 35C28.9159 35 28 34.3131 28 33.5C28 32.6869 28.9159 32 30 32C31.0841 32 32 32.6869 32 33.5C32 34.3131 31.0841 35 30 35Z" fill="white"/>
</svg>
