<svg width="51" height="47" viewBox="0 0 51 47" fill="none" xmlns="http://www.w3.org/2000/svg">
<rect x="0.5" y="0.5" width="50" height="46" rx="4.5" fill="#F16690" stroke="#E4E4E4"/>
<path d="M9.83398 9.51172H12.8281V13.666C12.3789 13.8184 11.916 13.9316 11.4395 14.0059C10.9668 14.0801 10.4375 14.1172 9.85156 14.1172C8.96094 14.1172 8.20898 13.9395 7.5957 13.584C6.98633 13.2285 6.52344 12.7227 6.20703 12.0664C5.89062 11.4062 5.73242 10.623 5.73242 9.7168C5.73242 8.83008 5.90625 8.05664 6.25391 7.39648C6.60547 6.73633 7.11133 6.22461 7.77148 5.86133C8.43555 5.49414 9.23242 5.31055 10.1621 5.31055C10.6387 5.31055 11.0898 5.35547 11.5156 5.44531C11.9453 5.53125 12.3438 5.6543 12.7109 5.81445L12.3301 6.68164C12.0137 6.54492 11.6641 6.42773 11.2812 6.33008C10.9023 6.23242 10.5098 6.18359 10.1035 6.18359C9.4043 6.18359 8.80469 6.32812 8.30469 6.61719C7.80859 6.90625 7.42773 7.31445 7.16211 7.8418C6.90039 8.36914 6.76953 8.99414 6.76953 9.7168C6.76953 10.4316 6.88477 11.0547 7.11523 11.5859C7.3457 12.1133 7.70508 12.5234 8.19336 12.8164C8.68164 13.1094 9.31055 13.2559 10.0801 13.2559C10.4668 13.2559 10.7988 13.2344 11.0762 13.1914C11.3535 13.1445 11.6055 13.0898 11.832 13.0273V10.4023H9.83398V9.51172ZM13.9423 14V5.43359H14.9384V14H13.9423ZM17.33 14H16.3339V5.43359H21.1034V6.3125H17.33V9.45312H20.8749V10.3262H17.33V14Z" fill="white"/>
<path d="M14.5 32.5L22.1556 28L28.2889 32L37.5 28" stroke="white"/>
<rect x="14.5" y="21.5" width="23" height="14" rx="1.5" stroke="white"/>
<circle cx="28.5" cy="26.5" r="2" stroke="white"/>
</svg>
