<svg width="51" height="41" viewBox="0 0 51 41" fill="none" xmlns="http://www.w3.org/2000/svg">
<path d="M12.0352 0.0078125C12.1077 0.00975777 12.18 0.00967806 12.252 0.0126953C12.2578 0.0129246 12.2637 0.0123949 12.2695 0.0126953C12.2764 0.0129717 12.2832 0.0133848 12.29 0.0136719C12.2968 0.0140373 12.3038 0.0153295 12.3105 0.015625C12.3633 0.0180907 12.4162 0.0202621 12.4688 0.0234375C12.4922 0.0247661 12.5156 0.0268195 12.5391 0.0283203C12.5818 0.0310039 12.6244 0.0339353 12.667 0.0371094C12.7012 0.0397127 12.7355 0.0420445 12.7695 0.0449219C12.7786 0.0457212 12.7878 0.0460435 12.7969 0.046875C12.8129 0.0482702 12.8288 0.0502824 12.8447 0.0517578C12.918 0.0585181 12.9908 0.0667464 13.0635 0.0751953C13.1072 0.080331 13.1509 0.0850158 13.1943 0.0908203C13.6148 0.146294 14.0243 0.232098 14.418 0.363281C14.4205 0.364117 14.4232 0.36535 14.4258 0.366211C14.5061 0.391296 14.5876 0.415969 14.668 0.444336C14.6623 0.445956 14.656 0.445731 14.6504 0.447266C14.7056 0.468575 14.7599 0.492355 14.8145 0.515625C14.839 0.52607 14.8633 0.537003 14.8877 0.547852C14.9367 0.569704 14.9857 0.591691 15.0342 0.615234C15.0738 0.634441 15.1131 0.65444 15.1523 0.674805C15.1936 0.696287 15.2346 0.718403 15.2754 0.741211C15.3282 0.770649 15.3806 0.801284 15.4326 0.833008C15.4803 0.862153 15.5272 0.892696 15.5742 0.923828C15.6282 0.959522 15.6823 0.995766 15.7354 1.03418C15.7579 1.05054 15.7804 1.06712 15.8027 1.08398C15.867 1.13229 15.9304 1.18277 15.9932 1.23535C16.0052 1.24543 16.0173 1.25539 16.0293 1.26562C16.108 1.33293 16.1864 1.40307 16.2627 1.47754C16.3778 1.60196 16.4908 1.72786 16.6016 1.85547C16.9345 2.23862 17.2467 2.63763 17.5322 3.05957C18.0743 3.8492 18.8259 4.41042 19.6768 4.7793C20.0638 4.94694 20.4717 5.07478 20.8896 5.16602C21.2441 5.22598 21.5964 5.23849 21.9521 5.24023C22.0708 5.24072 22.1908 5.24091 22.3105 5.24023L22.6465 5.24121C23.0167 5.24178 23.3876 5.2402 23.7578 5.23926L24.5566 5.24023C25.1289 5.24075 25.7012 5.24083 26.2734 5.24023L28.9902 5.24219C29.3004 5.24269 29.6107 5.24269 29.9209 5.24316C30.037 5.24334 30.0377 5.24298 30.1562 5.24316C31.0373 5.24448 31.9188 5.24545 32.7998 5.24609H36.957C38.2985 5.24548 39.641 5.24777 40.9824 5.25098C41.8085 5.25287 42.6349 5.25302 43.4609 5.25098L45.3613 5.25195C45.6206 5.2525 45.8803 5.25333 46.1396 5.25195L47.2031 5.25293C47.3051 5.25163 47.4076 5.25134 47.5127 5.25L47.6855 5.25586C47.7803 5.26135 47.873 5.27082 47.9639 5.2832C47.9812 5.28558 47.9985 5.28741 48.0156 5.29004C48.4723 5.35937 48.8818 5.51796 49.2637 5.7627C49.4647 5.88949 49.66 6.0375 49.8496 6.20996C50.4273 6.83331 50.9722 7.61962 50.9736 8.49023C50.974 8.58394 50.9752 8.67787 50.9756 8.77441C50.9755 8.87748 50.9747 8.98073 50.9746 9.08691C50.9751 9.25103 50.9751 9.2515 50.9756 9.41895C50.9765 9.78784 50.9774 10.1575 50.9775 10.5264C50.978 10.79 50.9779 11.0538 50.9785 11.3174C50.9799 12.0356 50.981 12.7544 50.9814 13.4727C50.9817 13.9212 50.9819 14.3699 50.9824 14.8184C50.9837 16.0616 50.985 17.3056 50.9854 18.5488V19.7598C50.9858 21.0572 50.9877 22.3549 50.9902 23.6523C50.9928 24.9855 50.994 26.3192 50.9941 27.6523C50.9942 28.4003 50.9951 29.1485 50.9971 29.8965C50.9989 30.6008 50.999 31.3054 50.998 32.0098C50.998 32.2677 50.9989 32.5263 51 32.7842C51.0085 34.9678 50.8568 36.8042 49.2637 38.4648C49.1174 38.6051 48.9686 38.7329 48.8213 38.8535C48.7367 38.9266 48.6525 39.0008 48.5654 39.0762C48.4976 39.1337 48.4292 39.1908 48.3594 39.25C48.3548 39.2364 48.3502 39.2226 48.3457 39.209C47.83 39.5575 47.3002 39.8004 46.7363 39.9639C46.5902 40.0534 46.48 40.1042 46.3525 40.1338C46.0197 40.2367 45.682 40.2394 45.2783 40.2393C45.1779 40.2394 45.0775 40.2391 44.9756 40.2393C44.7651 40.2496 44.5492 40.2554 44.3271 40.2549C44.1586 40.2553 43.9898 40.2553 43.8213 40.2559C43.3592 40.2572 42.8967 40.2581 42.4346 40.2578C41.9357 40.2578 41.4364 40.2587 40.9375 40.2598C39.9604 40.2616 38.983 40.2616 38.0059 40.2617C37.2114 40.2618 36.4166 40.263 35.6221 40.2637C33.3682 40.2656 31.1142 40.2658 28.8604 40.2656H28.124C26.1537 40.2655 24.1832 40.2684 22.2129 40.2715C20.1888 40.2746 18.1647 40.2756 16.1406 40.2754C15.0047 40.2753 13.8683 40.276 12.7324 40.2783C11.7651 40.2803 10.7974 40.2808 9.83008 40.2793C9.33693 40.2786 8.84373 40.2784 8.35059 40.2803C7.89842 40.282 7.4463 40.2822 6.99414 40.2803C6.83142 40.2799 6.66857 40.28 6.50586 40.2812C4.67109 40.294 3.09713 39.8011 1.74219 38.5254C0.382361 37.086 0.0258713 35.5426 0.0273438 33.6328C0.0270223 33.5043 0.0266984 33.3756 0.0263672 33.2432C0.0255923 32.8875 0.0254709 32.5314 0.0253906 32.1758C0.0251895 31.7915 0.0241663 31.4067 0.0234375 31.0225C0.0219693 30.183 0.0209853 29.3434 0.0205078 28.5039C0.0202081 27.9794 0.0200186 27.4542 0.0195312 26.9297C0.0182111 25.4766 0.0169685 24.0234 0.0166016 22.5703V21.1562C0.0161738 19.6392 0.0142409 18.1216 0.0117188 16.6045C0.00914876 15.046 0.00793902 13.4872 0.0078125 11.9287C0.0077133 11.054 0.00685163 10.1784 0.00488281 9.30371C0.00321295 8.55914 0.00301322 7.81391 0.00390625 7.06934C0.00432796 6.68984 0.00347648 6.31016 0.00195312 5.93066C0.00102454 5.65247 0.00231858 5.37405 0.00292969 5.0957H0V3.46973H0.00195312C0.0016528 3.45163 0 3.4332 0 3.41504C0.000184032 1.61462 1.48195 0.140068 3.36133 0.00976562V0H12.0352V0.0078125Z" fill="#82ACD9"/>
<rect y="11" width="51" height="29" rx="5.96335" fill="#BAD1E3"/>
</svg>
