<svg width="51" height="47" viewBox="0 0 51 47" fill="none" xmlns="http://www.w3.org/2000/svg">
<rect x="0.5" y="0.5" width="50" height="46" rx="4.5" fill="#12BBF7" stroke="#E4E4E4"/>
<path d="M9.93945 14L7.0625 6.41797H7.01562C7.03125 6.57812 7.04492 6.77344 7.05664 7.00391C7.06836 7.23438 7.07812 7.48633 7.08594 7.75977C7.09375 8.0293 7.09766 8.30469 7.09766 8.58594V14H6.17188V5.43359H7.64844L10.3613 12.5586H10.4023L13.1562 5.43359H14.6211V14H13.6367V8.51562C13.6367 8.26172 13.6406 8.00781 13.6484 7.75391C13.6562 7.49609 13.666 7.25391 13.6777 7.02734C13.6895 6.79688 13.7012 6.59766 13.7129 6.42969H13.666L10.7539 14H9.93945ZM18.2431 5.43359C19.3486 5.43359 20.1552 5.65039 20.663 6.08398C21.1748 6.51367 21.4306 7.13086 21.4306 7.93555C21.4306 8.29883 21.3701 8.64453 21.249 8.97266C21.1318 9.29688 20.9404 9.58398 20.6748 9.83398C20.4091 10.0801 20.0595 10.2754 19.6259 10.4199C19.1962 10.5605 18.6689 10.6309 18.0439 10.6309H17.0009V14H16.0048V5.43359H18.2431ZM18.1494 6.2832H17.0009V9.77539H17.9326C18.4795 9.77539 18.9345 9.7168 19.2978 9.59961C19.665 9.48242 19.9404 9.29297 20.124 9.03125C20.3076 8.76562 20.3994 8.41406 20.3994 7.97656C20.3994 7.40625 20.2177 6.98242 19.8545 6.70508C19.4912 6.42383 18.9228 6.2832 18.1494 6.2832ZM27.7245 12.0137H26.4413V14H25.4921V12.0137H21.3495V11.1934L25.4277 5.38672H26.4413V11.1348H27.7245V12.0137ZM25.4921 11.1348V8.33398C25.4921 8.11914 25.4941 7.92578 25.498 7.75391C25.5019 7.57812 25.5077 7.41602 25.5155 7.26758C25.5234 7.11523 25.5292 6.9707 25.5331 6.83398C25.5409 6.69727 25.5468 6.5625 25.5507 6.42969H25.5038C25.4296 6.58594 25.3437 6.75195 25.246 6.92773C25.1523 7.09961 25.0566 7.25391 24.9589 7.39062L22.3163 11.1348H25.4921Z" fill="white"/>
<circle cx="25.5" cy="29.5" r="8" stroke="white"/>
<path d="M31 29.5L22.75 34.2631V24.7369L31 29.5Z" fill="white"/>
</svg>
