<svg width="51" height="47" viewBox="0 0 51 47" fill="none" xmlns="http://www.w3.org/2000/svg">
<rect x="0.5" y="0.5" width="50" height="46" rx="4.5" fill="#F1A02E" stroke="#E4E4E4"/>
<path d="M24.022 38.8477C23.2955 38.8418 22.6685 38.7334 22.1412 38.5225C21.6197 38.3174 21.2183 38.0068 20.9371 37.5908C20.6617 37.1748 20.524 36.6533 20.524 36.0264V33.3369C20.524 32.9209 20.442 32.5869 20.2779 32.335C20.1138 32.0771 19.8707 31.8896 19.5484 31.7725C19.2261 31.6553 18.8277 31.5967 18.3531 31.5967V30.3838C18.8277 30.3779 19.2261 30.3193 19.5484 30.208C19.8707 30.0908 20.1138 29.9062 20.2779 29.6543C20.442 29.4023 20.524 29.0684 20.524 28.6523V25.9453C20.524 25.3184 20.6705 24.7998 20.9634 24.3896C21.2564 23.9736 21.6636 23.6631 22.1851 23.458C22.7125 23.2529 23.3248 23.1504 24.022 23.1504V24.3457C23.5884 24.3574 23.2164 24.4248 22.9058 24.5479C22.6011 24.6709 22.3668 24.8584 22.2027 25.1104C22.0445 25.3623 21.9654 25.6875 21.9654 26.0859V28.7314C21.9654 29.3408 21.8101 29.8301 21.4996 30.1992C21.189 30.5684 20.7115 30.8115 20.067 30.9287V31.0342C20.7232 31.1455 21.2037 31.3857 21.5084 31.7549C21.813 32.124 21.9654 32.6162 21.9654 33.2314V35.9297C21.9654 36.3281 22.0445 36.6504 22.2027 36.8965C22.3609 37.1484 22.5923 37.333 22.897 37.4502C23.2076 37.5674 23.5826 37.6289 24.022 37.6348V38.8477ZM26.9868 38.8477V37.6348C27.4204 37.623 27.7895 37.5557 28.0942 37.4326C28.3989 37.3154 28.6303 37.1309 28.7885 36.8789C28.9526 36.6328 29.0346 36.3105 29.0346 35.9121V33.249C29.0346 32.6338 29.1899 32.1416 29.5004 31.7725C29.8168 31.4033 30.2944 31.1631 30.933 31.0518V30.9463C30.2827 30.8291 29.8022 30.5859 29.4916 30.2168C29.187 29.8477 29.0346 29.3584 29.0346 28.749V26.0771C29.0346 25.6729 28.9555 25.3447 28.7973 25.0928C28.6391 24.8408 28.4077 24.6562 28.103 24.5391C27.7983 24.416 27.4262 24.3516 26.9868 24.3457V23.1504C27.7133 23.1562 28.3373 23.2617 28.8588 23.4668C29.3803 23.6719 29.7787 23.9824 30.0541 24.3984C30.3354 24.8086 30.476 25.3301 30.476 25.9629V28.6348C30.476 29.0566 30.558 29.3965 30.7221 29.6543C30.8862 29.9062 31.1293 30.0908 31.4516 30.208C31.7797 30.3252 32.1811 30.3838 32.6557 30.3838V31.5967C32.1811 31.5967 31.7797 31.6553 31.4516 31.7725C31.1293 31.8896 30.8862 32.0742 30.7221 32.3262C30.558 32.5781 30.476 32.9092 30.476 33.3193V36.0439C30.476 36.665 30.3295 37.1836 30.0366 37.5996C29.7436 38.0156 29.3364 38.3262 28.8149 38.5312C28.2934 38.7422 27.684 38.8477 26.9868 38.8477Z" fill="white"/>
</svg>
