<svg width="16" height="16" viewBox="0 0 16 16" fill="none" xmlns="http://www.w3.org/2000/svg">
<path d="M8.11221 0.250482C6.33096 0.250482 4.69033 0.850482 3.37783 1.85986L1.81221 0.294232C1.18721 -0.333893 0.105957 0.109857 0.105957 1.00048V5.00048C0.105957 5.55361 0.552832 6.00048 1.10596 6.00048H5.10596C5.99658 6.00048 6.44033 4.92236 5.81221 4.29423L4.13721 2.61611C5.27158 1.77861 6.65283 1.31298 8.10596 1.31298C11.806 1.31298 14.7935 4.31298 14.7935 8.00048C14.7935 11.7005 11.7935 14.688 8.10596 14.688C6.42783 14.688 4.84971 14.0692 3.63408 12.9724C3.48721 12.838 3.25908 12.8474 3.11846 12.988L2.89658 13.2099C2.74346 13.363 2.75283 13.6099 2.91221 13.7536C4.28721 14.9942 6.10908 15.7505 8.10596 15.7505C12.381 15.7505 15.8466 12.288 15.856 8.01611C15.8653 3.74423 12.381 0.253607 8.11221 0.250482ZM5.10596 5.00048H1.10596V1.00048L5.10596 5.00048Z" fill="white"/>
</svg>
