<svg width="16" height="16" viewBox="0 0 16 16" fill="none" xmlns="http://www.w3.org/2000/svg">
<path d="M14.5781 2.6168L8.57812 0.116799C8.39536 0.0409798 8.19943 0.00195313 8.00156 0.00195312C7.80369 0.00195313 7.60777 0.0409798 7.425 0.116799L1.425 2.6168C0.865625 2.84805 0.5 3.39492 0.5 4.00117C0.5 10.2043 4.07812 14.4918 7.42188 15.8855C7.79063 16.0387 8.20625 16.0387 8.575 15.8855C11.2531 14.7699 15.5 10.9168 15.5 4.00117C15.5 3.39492 15.1344 2.84805 14.5781 2.6168ZM8.19375 14.9637C8.06875 15.0137 7.93125 15.0137 7.80937 14.9637C4.75 13.7512 1.5 9.50117 1.5 4.00117C1.5 3.79805 1.62187 3.6168 1.80625 3.53867L7.80625 1.03867C7.92812 0.988674 8.06875 0.988674 8.19063 1.03867L14.1906 3.53867C14.3781 3.6168 14.5 3.79805 14.4969 4.00117C14.5 9.50117 11.25 13.7512 8.19375 14.9637ZM12.45 4.80742C12.3031 4.66055 12.0656 4.66055 11.9187 4.8043L6.8125 9.86992L4.65625 7.69805C4.50938 7.55117 4.27187 7.55117 4.125 7.69492L3.85938 7.96055C3.7125 8.10742 3.7125 8.34492 3.85625 8.4918L6.54063 11.198C6.6875 11.3449 6.925 11.3449 7.07188 11.2012L12.7125 5.60742C12.8594 5.46055 12.8594 5.22305 12.7156 5.07617L12.45 4.80742Z" fill="white"/>
</svg>
