<svg width="21" height="16" viewBox="0 0 21 16" fill="none" xmlns="http://www.w3.org/2000/svg">
<path d="M19.8993 11.1969L19.3836 10.9C19.4086 10.6344 19.4086 10.3656 19.3836 10.1L19.9024 9.80313C20.1993 9.63125 20.3336 9.28125 20.2305 8.95938C20.0055 8.22813 19.6086 7.54063 19.0836 6.975C18.8524 6.72187 18.4805 6.66563 18.1868 6.8375L17.6711 7.13438C17.4524 6.97813 17.2211 6.84375 16.9774 6.73438V6.14062C16.9774 5.79688 16.743 5.50625 16.4086 5.43125C15.6618 5.2625 14.868 5.2625 14.1211 5.43125C13.7868 5.50625 13.5524 5.8 13.5524 6.14062V6.73438C13.3086 6.84375 13.0774 6.97813 12.8586 7.13438L12.343 6.8375C12.0461 6.66563 11.6774 6.72187 11.4461 6.975C10.9243 7.54063 10.5274 8.22813 10.2993 8.95625C10.1961 9.28125 10.3368 9.6375 10.6305 9.80625L11.1461 10.1031C11.1211 10.3687 11.1211 10.6375 11.1461 10.9031L10.6274 11.2C10.3368 11.3687 10.1961 11.7281 10.2993 12.0469C10.5243 12.7781 10.9211 13.4656 11.4461 14.0312C11.6774 14.2812 12.0461 14.3375 12.343 14.1687L12.8586 13.8719C13.0774 14.0281 13.3086 14.1625 13.5524 14.2719V14.8656C13.5524 15.2094 13.7868 15.5 14.1211 15.575C14.4961 15.6594 14.8805 15.7 15.2649 15.7C15.6493 15.7 16.0368 15.6594 16.4086 15.575C16.743 15.5 16.9774 15.2063 16.9774 14.8656V14.2719C17.2211 14.1625 17.4524 14.0281 17.6711 13.8719L18.1868 14.1687C18.4805 14.3375 18.8524 14.2812 19.0836 14.0312C19.6055 13.4656 20.0024 12.7781 20.2305 12.05C20.3336 11.725 20.193 11.3656 19.8993 11.1969ZM18.2868 11.4219L19.2055 11.9531C19.043 12.4 18.7993 12.8219 18.493 13.1875L17.5743 12.6562C16.9055 13.2281 16.8086 13.2844 15.9774 13.5781V14.6406C15.5055 14.7219 15.0211 14.7219 14.5524 14.6406V13.5781C13.7118 13.2812 13.6086 13.2125 12.9555 12.6562L12.0368 13.1875C11.7305 12.8188 11.4868 12.4 11.3243 11.9531L12.243 11.4219C12.0899 10.5844 12.0805 10.4656 12.243 9.57812L11.3243 9.04688C11.4868 8.6 11.7305 8.18125 12.0368 7.8125L12.9555 8.34375C13.6243 7.77187 13.7211 7.71562 14.5524 7.42188V6.35938C15.0243 6.28125 15.5118 6.28125 15.9774 6.35938V7.42188C16.8149 7.71875 16.9211 7.78438 17.5743 8.34375L18.493 7.8125C18.7993 8.18125 19.043 8.6 19.2055 9.04688L18.2868 9.57812C18.4399 10.4156 18.4493 10.5344 18.2868 11.4219ZM15.2649 8.48438C14.1524 8.48438 13.2493 9.39062 13.2493 10.5C13.2493 11.6094 14.1524 12.5156 15.2649 12.5156C16.3774 12.5156 17.2805 11.6094 17.2805 10.5C17.2805 9.39062 16.3774 8.48438 15.2649 8.48438ZM15.2649 11.5156C14.7055 11.5156 14.2493 11.0594 14.2493 10.5C14.2493 9.94063 14.7055 9.48438 15.2649 9.48438C15.8243 9.48438 16.2805 9.94063 16.2805 10.5C16.2805 11.0594 15.8243 11.5156 15.2649 11.5156ZM7.26489 8C9.47427 8 11.2649 6.20937 11.2649 4C11.2649 1.79063 9.47427 0 7.26489 0C5.05552 0 3.26489 1.79063 3.26489 4C3.26489 6.20937 5.05552 8 7.26489 8ZM7.26489 1C8.91802 1 10.2649 2.34687 10.2649 4C10.2649 5.65312 8.91802 7 7.26489 7C5.61177 7 4.26489 5.65312 4.26489 4C4.26489 2.34687 5.61177 1 7.26489 1ZM1.76489 15C1.48989 15 1.26489 14.775 1.26489 14.5V13.2C1.26489 11.4344 2.69927 10 4.46489 10C5.07739 10 5.68677 10.5 7.26489 10.5C7.86489 10.5 8.45239 10.3969 9.03052 10.2281C9.04614 9.86562 9.08677 9.50937 9.16177 9.16562C8.88364 9.25 8.22114 9.5 7.26489 9.5C5.79302 9.5 5.36489 9 4.46489 9C2.14614 9 0.264893 10.8813 0.264893 13.2V14.5C0.264893 15.3281 0.936768 16 1.76489 16H12.2961C11.7961 15.7312 11.3399 15.3906 10.9368 15H1.76489Z" fill="white"/>
</svg>
