<svg width="17" height="16" viewBox="0 0 17 16" fill="none" xmlns="http://www.w3.org/2000/svg">
<path d="M4.29504 8.25C3.87941 8.25 3.54504 8.58438 3.54504 9C3.54504 9.41562 3.87941 9.75 4.29504 9.75C4.71066 9.75 5.04504 9.41562 5.04504 9C5.04504 8.58438 4.71066 8.25 4.29504 8.25ZM5.29504 4.75C4.87941 4.75 4.54504 5.08437 4.54504 5.5C4.54504 5.91563 4.87941 6.25 5.29504 6.25C5.71066 6.25 6.04504 5.91563 6.04504 5.5C6.04504 5.08437 5.71066 4.75 5.29504 4.75ZM8.79504 0C8.26691 0 7.72629 0.05 7.17941 0.15625C4.07316 0.7625 1.57004 3.25937 0.95754 6.35625C-0.12371 11.8281 4.43254 16 8.27941 16C8.53879 16 8.79504 15.9812 9.04817 15.9406C10.3357 15.7406 10.9669 14.2344 10.3763 13.075C9.65442 11.6562 10.6857 10 12.2794 10H14.77C15.8888 10 16.795 9.075 16.7982 7.95937C16.7825 3.55937 13.2044 0 8.79504 0ZM14.7669 9H12.2763C11.1732 9 10.17 9.55937 9.59817 10.4937C9.02942 11.4219 8.98567 12.5562 9.48254 13.5312C9.63566 13.8313 9.63254 14.2062 9.47941 14.5094C9.40442 14.6531 9.23254 14.9031 8.89504 14.9563C8.69817 14.9875 8.49191 15.0031 8.27941 15.0031C6.57316 15.0031 4.71379 14.025 3.42004 12.4531C2.04504 10.7781 1.51691 8.68437 1.93879 6.55625C2.47316 3.85 4.65754 1.675 7.37316 1.14375C7.84816 1.05 8.32629 1.00312 8.79504 1.00312C12.6419 1.00312 15.7825 4.125 15.795 7.95937C15.795 8.53125 15.3325 9 14.7669 9ZM12.295 4.25C11.8794 4.25 11.545 4.58437 11.545 5C11.545 5.41563 11.8794 5.75 12.295 5.75C12.7107 5.75 13.045 5.41563 13.045 5C13.045 4.58437 12.7107 4.25 12.295 4.25ZM8.29504 2.75C7.87941 2.75 7.54504 3.08437 7.54504 3.5C7.54504 3.91563 7.87941 4.25 8.29504 4.25C8.71066 4.25 9.04504 3.91563 9.04504 3.5C9.04504 3.08437 8.71066 2.75 8.29504 2.75Z" fill="white"/>
</svg>
