<svg width="11" height="16" viewBox="0 0 11 16" fill="none" xmlns="http://www.w3.org/2000/svg">
<path d="M5.49999 0C2.28281 0 -0.00374539 2.61063 4.60573e-06 5.5075C0.0018796 6.89125 0.515629 8.15344 1.36125 9.11812C2.16281 10.0322 2.93281 11.5212 3 12L3.00187 14.3494C3.00187 14.4478 3.03125 14.5437 3.08562 14.6256L3.85156 15.7769C3.94437 15.9162 4.10062 16 4.26781 16H6.73187C6.89937 16 7.05562 15.9162 7.14812 15.7769L7.91405 14.6256C7.96843 14.5437 7.99749 14.4475 7.9978 14.3494L7.99999 12C8.07061 11.5087 8.84343 10.0253 9.63874 9.11812C10.4859 8.15156 11 6.88656 11 5.5C11 2.4625 8.53749 0 5.49999 0ZM6.99812 14.1972L6.46406 15H4.53562L4.00156 14.1972L4.00125 14H6.99812V14.1972ZM6.99937 13H4.00031L3.99812 12H7.00062L6.99937 13ZM8.88686 8.45875C8.44968 8.9575 7.75155 9.96187 7.30624 10.9997H3.69406C3.24844 9.96156 2.55062 8.9575 2.11344 8.45875C1.39063 7.63437 1.00407 6.58906 1.00157 5.5C0.99594 3.09406 2.88844 1 5.49999 1C7.98124 1 9.99999 3.01875 9.99999 5.5C9.99999 6.58906 9.60467 7.64 8.88686 8.45875ZM5.49999 2C3.57031 2 2 3.57031 2 5.5C2 5.77625 2.22375 6 2.5 6C2.77625 6 3 5.77625 3 5.5C3 4.12156 4.12125 3 5.49999 3C5.77624 3 5.99999 2.77625 5.99999 2.5C5.99999 2.22375 5.77624 2 5.49999 2Z" fill="white"/>
</svg>
