<svg width="20" height="14" viewBox="0 0 20 14" fill="none" xmlns="http://www.w3.org/2000/svg">
<path d="M10 8.99992C8.61942 8.99992 7.50005 10.1193 7.50005 11.4999C7.50005 12.8809 8.61973 13.9999 10 13.9999C11.381 13.9999 12.5 12.8799 12.5 11.4999C12.5 10.1193 11.3807 8.99992 10 8.99992ZM10 12.9999C9.17286 12.9999 8.50005 12.3271 8.50005 11.4999C8.50005 10.6727 9.17286 9.99992 10 9.99992C10.8272 9.99992 11.5 10.6727 11.5 11.4999C11.5 12.3271 10.8272 12.9999 10 12.9999ZM19.8816 3.93586C14.3507 -1.30945 5.65474 -1.31445 0.118486 3.93586C-0.0358895 4.08242 -0.0402645 4.3268 0.110361 4.47711L0.288173 4.65492C0.432235 4.79898 0.66536 4.80305 0.813173 4.66273C5.96911 -0.224452 14.0519 -0.204765 19.1872 4.66273C19.335 4.80273 19.5682 4.79867 19.7122 4.65492L19.89 4.47711C20.0404 4.3268 20.036 4.08242 19.8816 3.93586ZM16.4382 7.44711C12.7713 4.18211 7.2238 4.18648 3.56192 7.44711C3.40411 7.58773 3.39567 7.8318 3.54161 7.98461L3.71442 8.16555C3.8538 8.31148 4.0838 8.32055 4.23505 8.18648C7.52161 5.26836 12.485 5.27367 15.7657 8.18648C15.9166 8.32055 16.1466 8.3118 16.2863 8.16555L16.4591 7.98461C16.6044 7.8318 16.596 7.58773 16.4382 7.44711Z" fill="white"/>
</svg>
