<svg width="54" height="48" viewBox="0 0 54 48" fill="none" xmlns="http://www.w3.org/2000/svg">
<path d="M27.0878 0.196411C29.1973 0.160258 31.2628 1.23988 32.3925 3.19641L52.9579 38.8165C54.6148 41.6863 53.6314 45.356 50.7617 47.0128C47.8919 48.6697 44.2222 47.6863 42.5654 44.8165L27.0878 18.0079L11.6103 44.8165C9.95342 47.6863 6.28374 48.6697 3.414 47.0128C0.544414 45.356 -0.438984 41.6862 1.21771 38.8165L21.7831 3.19641C22.8704 1.31327 24.8247 0.241953 26.8505 0.196411H27.0878ZM29.4794 1.86633C27.088 0.485683 24.03 1.30497 22.6494 3.69641L2.08392 39.3165C0.703321 41.7079 1.52274 44.7658 3.914 46.1466C6.30542 47.5273 9.36333 46.7079 10.7441 44.3165L31.3095 8.69641C32.6902 6.30495 31.8709 3.24704 29.4794 1.86633ZM29.6591 0.828247C29.6333 0.815328 29.6069 0.80365 29.581 0.791138C29.6069 0.803651 29.6333 0.815327 29.6591 0.828247ZM29.3281 0.675903C29.2988 0.663399 29.2696 0.650796 29.2402 0.638794C29.2696 0.650799 29.2988 0.663397 29.3281 0.675903ZM28.9589 0.532349C28.9422 0.526484 28.9259 0.519502 28.9091 0.513794C28.9259 0.519503 28.9422 0.526482 28.9589 0.532349ZM28.5634 0.408325C28.5531 0.405485 28.5425 0.403295 28.5322 0.400513C28.5425 0.403296 28.5531 0.405483 28.5634 0.408325ZM28.2294 0.327271C28.1976 0.320492 28.1656 0.314961 28.1337 0.308716C28.1656 0.314965 28.1976 0.320489 28.2294 0.327271ZM27.8857 0.264771C27.8548 0.260057 27.8239 0.255319 27.7929 0.251099C27.8239 0.255322 27.8548 0.260054 27.8857 0.264771ZM27.496 0.217896C27.4794 0.216472 27.4629 0.214296 27.4462 0.213013C27.4629 0.214297 27.4794 0.216471 27.496 0.217896Z" fill="white"/>
</svg>
