<svg width="16" height="16" viewBox="0 0 16 16" fill="none" xmlns="http://www.w3.org/2000/svg">
<path d="M7.75 0C3.46978 0 0 3.46978 0 7.75C0 12.0302 3.46978 15.5 7.75 15.5C12.0302 15.5 15.5 12.0302 15.5 7.75C15.5 3.46978 12.0302 0 7.75 0ZM7.75 14.5C4.04178 14.5 1 11.4983 1 7.75C1 4.04178 4.00172 1 7.75 1C11.4582 1 14.5 4.00172 14.5 7.75C14.5 11.4582 11.4983 14.5 7.75 14.5ZM12.1157 5.13509C12.1791 5.40387 12.0127 5.67316 11.7439 5.73663C10.775 5.96541 9.87028 6.16709 8.97237 6.27144C8.98909 9.86056 9.38384 10.6461 9.82409 11.7726C9.94972 12.0941 9.79088 12.4566 9.46934 12.5821C9.14759 12.7078 8.78528 12.5487 8.65978 12.2274C8.36856 11.4823 8.08006 10.8347 7.90131 9.49997H7.59866C7.41966 10.8366 7.13034 11.4848 6.84022 12.2273C6.7145 12.5492 6.35169 12.7076 6.03066 12.5821C5.70913 12.4565 5.55031 12.0941 5.67588 11.7726C6.11659 10.645 6.51087 9.85897 6.52759 6.27144C5.62966 6.16709 4.725 5.96541 3.75606 5.73663C3.48731 5.67316 3.32088 5.40387 3.38434 5.13509C3.44778 4.86634 3.71706 4.69991 3.98588 4.76334C7.27406 5.53975 8.21962 5.54125 11.5141 4.76334C11.7828 4.70016 12.0522 4.86637 12.1157 5.13509ZM6.55644 3.80644C6.55644 3.14725 7.09081 2.61291 7.75 2.61291C8.40919 2.61291 8.94356 3.14728 8.94356 3.80644C8.94356 4.46559 8.40919 5 7.75 5C7.09081 5 6.55644 4.46562 6.55644 3.80644Z" fill="white"/>
</svg>
