<svg width="13" height="17" viewBox="0 0 13 17" fill="none" xmlns="http://www.w3.org/2000/svg">
<path d="M13 1.06283C13 0.456211 12.6364 0 12.2243 0C12.1471 0 12.0682 0.0159375 11.9895 0.0501367L4.60637 3.23764C4.28365 3.37709 4.0625 3.78516 4.0625 4.25V12.3768C3.63061 11.9528 3.06465 11.6875 2.4375 11.6875C1.09129 11.6875 0 12.8768 0 14.3438C0 15.8107 1.09129 17 2.4375 17C3.78371 17 4.875 15.8107 4.875 14.3438V8.5L12.1875 5.3125V10.2518C11.7556 9.82779 11.1896 9.5625 10.5625 9.5625C9.21629 9.5625 8.125 10.7518 8.125 12.2188C8.125 13.6857 9.21629 14.875 10.5625 14.875C11.9087 14.875 13 13.6857 13 12.2188C13 12.2178 12.9997 12.2171 12.9997 12.2161L13 1.06283ZM2.4375 15.9375C1.5567 15.9375 0.8125 15.2077 0.8125 14.3438C0.8125 13.4798 1.5567 12.75 2.4375 12.75C3.3183 12.75 4.0625 13.4798 4.0625 14.3438C4.0625 15.2077 3.3183 15.9375 2.4375 15.9375ZM12.1875 4.19256L4.875 7.38006V4.25H4.86103V4.24635L12.1875 1.08342V4.19256ZM10.5625 13.8125C9.6817 13.8125 8.9375 13.0827 8.9375 12.2188C8.9375 11.3548 9.6817 10.625 10.5625 10.625C11.4433 10.625 12.1875 11.3548 12.1875 12.2188C12.1875 13.0827 11.4433 13.8125 10.5625 13.8125Z" fill="white"/>
</svg>
