<svg width="19" height="16" viewBox="0 0 19 16" fill="none" xmlns="http://www.w3.org/2000/svg">
<g clip-path="url(#clip0_192_1530)">
<path d="M16.606 0H1.60596C0.777832 0 0.105957 0.671875 0.105957 1.5V10.5C0.105957 11.3281 0.777832 12 1.60596 12H7.60596L6.85596 15H4.60596C4.33096 15 4.10596 15.225 4.10596 15.5C4.10596 15.775 4.33096 16 4.60596 16H13.606C13.881 16 14.106 15.775 14.106 15.5C14.106 15.225 13.881 15 13.606 15H11.356L10.606 12H16.606C17.4341 12 18.106 11.3281 18.106 10.5V1.5C18.106 0.671875 17.4341 0 16.606 0ZM7.88721 15L8.38721 13H9.82471L10.3247 15H7.88721ZM17.106 10.5C17.106 10.775 16.881 11 16.606 11H1.60596C1.33096 11 1.10596 10.775 1.10596 10.5V9H17.106V10.5ZM17.106 8H1.10596V1.5C1.10596 1.225 1.33096 1 1.60596 1H16.606C16.881 1 17.106 1.225 17.106 1.5V8Z" fill="white"/>
</g>
<defs>
<clipPath id="clip0_192_1530">
<rect width="18" height="16" fill="white" transform="translate(0.105957)"/>
</clipPath>
</defs>
</svg>
