<svg width="16" height="16" viewBox="0 0 16 16" fill="none" xmlns="http://www.w3.org/2000/svg">
<path d="M14.125 13.5C14.125 13.8438 13.8438 14.125 13.5 14.125C13.1562 14.125 12.875 13.8438 12.875 13.5C12.875 13.1562 13.1562 12.875 13.5 12.875C13.8438 12.875 14.125 13.1562 14.125 13.5ZM11.5 12.875C11.1562 12.875 10.875 13.1562 10.875 13.5C10.875 13.8438 11.1562 14.125 11.5 14.125C11.8438 14.125 12.125 13.8438 12.125 13.5C12.125 13.1562 11.8438 12.875 11.5 12.875ZM16 11.375V14.625C16 15.3844 15.3844 16 14.625 16H1.375C0.615625 16 0 15.3844 0 14.625V11.375C0 10.6156 0.615625 10 1.375 10H5.25V6.89687H3.60313C2.49063 6.89687 1.93438 5.55 2.71875 4.7625L7.11562 0.365625C7.60313 -0.121875 8.39375 -0.121875 8.88437 0.365625L13.2812 4.7625C14.0688 5.55 13.5094 6.89687 12.3969 6.89687H10.75V10H14.625C15.3844 10 16 10.6156 16 11.375ZM6.25 5.89687V11.75C6.25 11.8875 6.3625 12 6.5 12H9.5C9.6375 12 9.75 11.8875 9.75 11.75V5.89687H12.3969C12.6188 5.89687 12.7312 5.62813 12.575 5.46875L8.17813 1.07187C8.08125 0.975 7.92188 0.975 7.825 1.07187L3.42812 5.46875C3.27187 5.625 3.38125 5.89687 3.60625 5.89687H6.25ZM15 11.375C15 11.1687 14.8313 11 14.625 11H10.75V11.75C10.75 12.4406 10.1906 13 9.5 13H6.5C5.80937 13 5.25 12.4406 5.25 11.75V11H1.375C1.16875 11 1 11.1687 1 11.375V14.625C1 14.8313 1.16875 15 1.375 15H14.625C14.8313 15 15 14.8313 15 14.625V11.375Z" fill="white"/>
</svg>
