<svg width="14" height="16" viewBox="0 0 14 16" fill="none" xmlns="http://www.w3.org/2000/svg">
<g clip-path="url(#clip0_192_1540)">
<path d="M11 3V11H3V3H11ZM12.5 0H1.5C0.671875 0 0 0.671875 0 1.5V14.5C0 15.3281 0.671875 16 1.5 16H12.5C13.3281 16 14 15.3281 14 14.5V1.5C14 0.671875 13.3281 0 12.5 0ZM1.5 15C1.225 15 1 14.775 1 14.5V1.5C1 1.225 1.225 1 1.5 1H12.5C12.775 1 13 1.225 13 1.5V14.5C13 14.775 12.775 15 12.5 15H1.5ZM11.625 2H2.375C2.16875 2 2 2.16875 2 2.375V11.625C2 11.8313 2.16875 12 2.375 12H11.625C11.8313 12 12 11.8313 12 11.625V2.375C12 2.16875 11.8313 2 11.625 2ZM8.625 13H5.375C5.16875 13 5 13.1687 5 13.375V13.625C5 13.8313 5.16875 14 5.375 14H8.625C8.83125 14 9 13.8313 9 13.625V13.375C9 13.1687 8.83125 13 8.625 13Z" fill="white"/>
</g>
<defs>
<clipPath id="clip0_192_1540">
<rect width="14" height="16" fill="white"/>
</clipPath>
</defs>
</svg>
