<svg width="29" height="27" viewBox="0 0 29 27" fill="none" xmlns="http://www.w3.org/2000/svg">
<g clip-path="url(#clip0_373_41)">
<path d="M25.1629 23.3446C25.1629 23.8611 24.7456 24.2783 24.2291 24.2783C23.7126 24.2783 23.2953 23.8611 23.2953 23.3446C23.2953 22.8281 23.7126 22.4108 24.2291 22.4108C24.7456 22.4108 25.1629 22.8281 25.1629 23.3446ZM28.898 12.6061V24.7452C28.898 25.5185 28.2706 26.1459 27.4973 26.1459H20.9609C20.1876 26.1459 19.5602 25.5185 19.5602 24.7452V12.6061C19.5602 11.8328 20.1876 11.2054 20.9609 11.2054H27.4973C28.2706 11.2054 28.898 11.8328 28.898 12.6061ZM27.9642 12.6061C27.9642 12.3493 27.7541 12.1392 27.4973 12.1392H20.9609C20.7041 12.1392 20.494 12.3493 20.494 12.6061V24.7452C20.494 25.002 20.7041 25.2121 20.9609 25.2121H27.4973C27.7541 25.2121 27.9642 25.002 27.9642 24.7452V12.6061Z" fill="white"/>
</g>
<path d="M26.5352 0C27.8669 0 28.9473 1.09792 28.9473 2.45117V10.2715H27.3389V2.45117C27.3389 2.00179 26.9774 1.63379 26.5352 1.63379H2.41211C1.97005 1.63401 1.6084 2.00193 1.6084 2.45117V17.1582C1.6084 17.6074 1.97004 17.9754 2.41211 17.9756H18.626V19.6094H16.8857L18.0928 24.5117H18.626V26.1455H7.2373C6.79513 26.1455 6.43275 25.7784 6.43262 25.3291C6.43262 24.8797 6.79505 24.5117 7.2373 24.5117H10.8555L12.0615 19.6094H2.41211C1.08052 19.6092 0 18.5113 0 17.1582V2.45117C4.21895e-06 1.09806 1.08052 0.000223651 2.41211 0H26.5352ZM13.3184 21.2432L12.5137 24.5117H16.4336L15.6299 21.2432H13.3184Z" fill="white"/>
<defs>
<clipPath id="clip0_373_41">
<rect width="9.33783" height="14.9405" fill="white" transform="translate(19.5602 11.2054)"/>
</clipPath>
</defs>
</svg>
