<svg width="29" height="27" viewBox="0 0 29 27" fill="none" xmlns="http://www.w3.org/2000/svg">
<g clip-path="url(#clip0_373_40)">
<path d="M25.2156 24.1986C25.2156 24.7151 24.7983 25.1324 24.2818 25.1324C23.7653 25.1324 23.348 24.7151 23.348 24.1986C23.348 23.6821 23.7653 23.2648 24.2818 23.2648C24.7983 23.2648 25.2156 23.6821 25.2156 24.1986ZM28.9507 13.4601V25.5993C28.9507 26.3726 28.3234 27 27.5501 27H21.0136C20.2403 27 19.6129 26.3726 19.6129 25.5993V13.4601C19.6129 12.6868 20.2403 12.0594 21.0136 12.0594H27.5501C28.3234 12.0594 28.9507 12.6868 28.9507 13.4601ZM28.017 13.4601C28.017 13.2033 27.8069 12.9932 27.5501 12.9932H21.0136C20.7568 12.9932 20.5467 13.2033 20.5467 13.4601V25.5993C20.5467 25.8561 20.7568 26.0662 21.0136 26.0662H27.5501C27.8069 26.0662 28.017 25.8561 28.017 25.5993V13.4601Z" fill="black"/>
</g>
<path d="M26.5879 0.854065C27.9197 0.854065 29 1.95198 29 3.30524V11.1255H27.3916V3.30524C27.3916 2.85586 27.0301 2.48785 26.5879 2.48785H2.46484C2.02278 2.48808 1.66114 2.856 1.66113 3.30524V18.0123C1.66113 18.4615 2.02278 18.8294 2.46484 18.8297H18.6787V20.4634H16.9385L18.1455 25.3658H18.6787V26.9996H7.29004C6.84787 26.9996 6.48548 26.6324 6.48535 26.1832C6.48535 25.7338 6.84779 25.3658 7.29004 25.3658H10.9082L12.1143 20.4634H2.46484C1.13326 20.4632 0.0527344 19.3654 0.0527344 18.0123V3.30524C0.0527386 1.95212 1.13326 0.854289 2.46484 0.854065H26.5879ZM13.3711 22.0972L12.5664 25.3658H16.4863L15.6826 22.0972H13.3711Z" fill="black"/>
<defs>
<clipPath id="clip0_373_40">
<rect width="9.33783" height="14.9405" fill="white" transform="translate(19.6129 12.0594)"/>
</clipPath>
</defs>
</svg>
