<svg width="29" height="33" viewBox="0 0 29 33" fill="none" xmlns="http://www.w3.org/2000/svg">
<g clip-path="url(#clip0_192_720)">
<path d="M14.5002 30.9375C13.357 30.9375 12.4288 30.0107 12.4288 28.8731H10.3573C10.3573 31.1489 12.2165 33 14.5002 33C16.784 33 18.6431 31.1489 18.6431 28.8731H16.5716C16.5716 30.0107 15.6434 30.9375 14.5002 30.9375ZM28.0538 21.5795C26.2439 19.8638 24.86 18.0681 24.86 11.9818C24.86 6.85201 20.7566 2.66836 15.5359 2.1624V1.03125C15.5359 0.461484 15.0724 0 14.5002 0C13.928 0 13.4645 0.461484 13.4645 1.03125V2.16305C8.24384 2.669 4.14046 6.85201 4.14046 11.9818C4.14046 18.0675 2.75584 19.8638 0.945926 21.5795C0.0416162 22.4368 -0.243853 23.7329 0.217688 24.8815C0.688939 26.0545 1.82305 26.8125 3.10733 26.8125H25.8931C27.1774 26.8125 28.3115 26.0539 28.7827 24.8808C29.2443 23.7323 28.9582 22.4368 28.0538 21.5795ZM25.8931 24.75H3.10733C2.1862 24.75 1.72595 23.6885 2.37457 23.0736C4.63113 20.9344 6.21189 18.5399 6.21189 11.9825C6.21189 7.63963 9.91911 4.125 14.5002 4.125C19.0807 4.125 22.7885 7.63898 22.7885 11.9818C22.7885 18.5142 24.3557 20.9215 26.6259 23.0729C27.2771 23.691 26.8103 24.75 25.8931 24.75Z" fill="white"/>
</g>
<defs>
<clipPath id="clip0_192_720">
<rect width="29" height="33" fill="white"/>
</clipPath>
</defs>
</svg>
