<svg width="28" height="33" viewBox="0 0 28 33" fill="none" xmlns="http://www.w3.org/2000/svg">
<path fill-rule="evenodd" clip-rule="evenodd" d="M11.1379 0.829171C12.572 -0.273721 14.5679 -0.276659 16.0053 0.822002L25.6398 8.18596C27.7918 9.83081 27.7211 13.094 25.4999 14.6442L22.6323 16.6453L25.6398 18.944C27.7918 20.5889 27.7211 23.8521 25.4999 25.4022L15.865 32.1261C14.4863 33.0882 12.6532 33.0856 11.2773 32.1195L1.70147 25.3959C-0.507318 23.8451 -0.577809 20.5967 1.56161 18.9515L4.56048 16.6453L1.70146 14.6379C-0.507326 13.087 -0.577818 9.83868 1.5616 8.19344L11.1379 0.829171ZM14.7908 2.411L24.4252 9.77496C25.5012 10.5974 25.4659 12.229 24.3553 13.0041L14.7204 19.728C14.0311 20.209 13.1145 20.2077 12.4266 19.7247L2.85073 13.0011C1.74635 12.2256 1.7111 10.6015 2.78081 9.77885L12.3571 2.41459C13.0741 1.86314 14.0721 1.86167 14.7908 2.411ZM6.27545 17.8495L2.78082 20.5369C1.7111 21.3595 1.74635 22.9837 2.85074 23.7591L12.4266 30.4827C13.1145 30.9658 14.0311 30.9671 14.7204 30.486L24.3553 23.7621C25.4659 22.9871 25.5012 21.3554 24.4252 20.533L20.9108 17.8468L15.865 21.3681C14.4863 22.3302 12.6532 22.3276 11.2773 21.3615L6.27545 17.8495Z" fill="white"/>
</svg>
