<svg width="14" height="16" viewBox="0 0 14 16" fill="none" xmlns="http://www.w3.org/2000/svg">
<path d="M11 10C10.1062 10 9.30624 10.3906 8.75624 11.0094L5.77187 9.14375C6.07187 8.4125 6.07499 7.5875 5.77187 6.85625L8.75624 4.99062C9.30624 5.60937 10.1062 6 11 6C12.6562 6 14 4.65625 14 3C14 1.34375 12.6562 0 11 0C9.34374 0 7.99999 1.34375 7.99999 3C7.99999 3.40625 8.08124 3.79063 8.22499 4.14375L5.24062 6.00938C4.69374 5.39063 3.89374 5 3 5C1.34375 5 0 6.34375 0 8C0 9.65625 1.34375 11 3 11C3.89374 11 4.69374 10.6094 5.24374 9.99063L8.22811 11.8562C8.08124 12.2094 8.00311 12.5938 8.00311 13C8.00311 14.6562 9.34686 16 11.0031 16C12.6594 16 14.0031 14.6562 14.0031 13C14 11.3438 12.6562 10 11 10ZM11 1C12.1031 1 13 1.89688 13 3C13 4.10312 12.1031 5 11 5C9.89686 5 8.99999 4.10312 8.99999 3C8.99999 1.89688 9.89686 1 11 1ZM3 10C1.89687 10 0.999999 9.10312 0.999999 8C0.999999 6.89688 1.89687 6 3 6C4.10312 6 4.99999 6.89688 4.99999 8C4.99999 9.10312 4.10312 10 3 10ZM11 15C9.89686 15 8.99999 14.1031 8.99999 13C8.99999 11.8969 9.89686 11 11 11C12.1031 11 13 11.8969 13 13C13 14.1031 12.1031 15 11 15Z" fill="white"/>
</svg>
