<svg width="16" height="14" viewBox="0 0 16 14" fill="none" xmlns="http://www.w3.org/2000/svg">
<path d="M5.89017 11.25L3.26517 13.8902C3.11873 14.0366 2.8813 14.0366 2.73483 13.8902L0.109828 11.25C-0.0366094 11.1036 -0.0366094 10.8661 0.109828 10.7197L0.330766 10.4987C0.477203 10.3523 0.714641 10.3523 0.861109 10.4987L2.46877 12.1215V0.375C2.46877 0.167906 2.63667 0 2.84377 0H3.15627C3.36336 0 3.53127 0.167906 3.53127 0.375V12.1215L5.13889 10.4987C5.28533 10.3523 5.52277 10.3523 5.66923 10.4987L5.89017 10.7197C6.03664 10.8661 6.03664 11.1036 5.89017 11.25ZM11.5 8.625V8.375C11.5 8.16791 11.3321 8 11.125 8H7.87502C7.66792 8 7.50002 8.16791 7.50002 8.375V8.625C7.50002 8.83209 7.66792 9 7.87502 9H11.125C11.3321 9 11.5 8.83209 11.5 8.625ZM13.5 5.625V5.375C13.5 5.16791 13.3321 5 13.125 5H7.87502C7.66792 5 7.50002 5.16791 7.50002 5.375V5.625C7.50002 5.83209 7.66792 6 7.87502 6H13.125C13.3321 6 13.5 5.83209 13.5 5.625ZM15.5 2.625V2.375C15.5 2.16791 15.3321 2 15.125 2H7.87502C7.66792 2 7.50002 2.16791 7.50002 2.375V2.625C7.50002 2.83209 7.66792 3 7.87502 3H15.125C15.3321 3 15.5 2.83209 15.5 2.625ZM9.50002 11.625V11.375C9.50002 11.1679 9.33211 11 9.12502 11H7.87502C7.66792 11 7.50002 11.1679 7.50002 11.375V11.625C7.50002 11.8321 7.66792 12 7.87502 12H9.12502C9.33211 12 9.50002 11.8321 9.50002 11.625Z" fill="white"/>
</svg>
