<svg width="26" height="26" viewBox="0 0 26 26" fill="none" xmlns="http://www.w3.org/2000/svg">
<path d="M13 7.29635C9.86172 7.29635 7.3125 9.85077 7.3125 12.9892C7.3125 16.1276 9.86172 18.6821 13 18.6821C16.1383 18.6821 18.6875 16.1276 18.6875 12.9892C18.6875 9.85077 16.1383 7.29635 13 7.29635ZM13 17.057C10.7605 17.057 8.9375 15.2338 8.9375 12.9892C8.9375 10.7446 10.7605 8.92143 13 8.92143C15.2395 8.92143 17.0625 10.7446 17.0625 12.9892C17.0625 15.2338 15.2395 17.057 13 17.057ZM26 12.9892C26 12.7201 25.8629 12.4661 25.6395 12.3138L21.4297 9.49529L22.4148 4.52356C22.4656 4.25948 22.3844 3.98017 22.1914 3.79227C21.9984 3.5993 21.7293 3.51296 21.4602 3.56883L16.4937 4.55403L13.6754 0.338981C13.3707 -0.112994 12.6293 -0.112994 12.3246 0.338981L9.50625 4.55403L4.53984 3.56375C4.2707 3.50789 4.00156 3.59422 3.80859 3.7872C3.61563 3.98017 3.53437 4.25441 3.58516 4.51848L4.57031 9.49529L0.360547 12.3138C0.137109 12.4661 0 12.7201 0 12.9892C0 13.2584 0.137109 13.5123 0.360547 13.6646L4.57031 16.4831L3.58516 21.4549C3.53437 21.7189 3.61563 21.9982 3.80859 22.1861C4.00156 22.3791 4.2707 22.4655 4.53984 22.4096L9.50625 21.4244L12.3246 25.6394C12.477 25.868 12.7309 26 13 26C13.2691 26 13.523 25.8629 13.6754 25.6394L16.4937 21.4244L21.4602 22.4096C21.7344 22.4705 22.0035 22.3791 22.1914 22.1861C22.3844 21.9932 22.4656 21.7189 22.4148 21.4549L21.4297 16.4831L25.6395 13.6646C25.8629 13.5123 26 13.2584 26 12.9892V12.9892ZM20.0738 15.4319C19.7996 15.6147 19.6676 15.9448 19.7285 16.2648L20.5816 20.5763L16.2754 19.7231C15.9402 19.652 15.6254 19.7942 15.4426 20.0685L13 23.7249L10.5574 20.0735C10.4051 19.845 10.1512 19.713 9.88203 19.713C9.83125 19.713 9.77539 19.7181 9.72461 19.7282L5.41836 20.5814L6.27148 16.2698C6.33242 15.9499 6.20039 15.6198 5.92617 15.437L2.275 12.9943L5.92617 10.5465C6.20039 10.3637 6.33242 10.0336 6.27148 9.71366L5.41836 5.40212L9.72461 6.25529C10.0547 6.3213 10.3746 6.18419 10.5574 5.90996L13 2.25353L15.4426 5.90996C15.6254 6.18419 15.9453 6.3213 16.2754 6.25529L20.5816 5.40212L19.7285 9.71366C19.6676 10.0336 19.7996 10.3637 20.0738 10.5465L23.725 12.9943L20.0738 15.4319V15.4319Z" fill="white"/>
</svg>
