<svg width="31" height="27" viewBox="0 0 31 27" fill="none" xmlns="http://www.w3.org/2000/svg">
<path d="M28.0938 0H2.90625C1.30176 0 0 1.29576 0 2.89286V24.1071C0 25.7042 1.30176 27 2.90625 27H28.0938C29.6982 27 31 25.7042 31 24.1071V2.89286C31 1.29576 29.6982 0 28.0938 0ZM29.0625 24.1071C29.0625 24.6375 28.6266 25.0714 28.0938 25.0714H2.90625C2.37344 25.0714 1.9375 24.6375 1.9375 24.1071V2.89286C1.9375 2.3625 2.37344 1.92857 2.90625 1.92857H28.0938C28.6266 1.92857 29.0625 2.3625 29.0625 2.89286V24.1071ZM21.1066 9.41987L17.0076 13.5L21.1066 17.5801C21.3852 17.8574 21.3852 18.3033 21.1066 18.5806L20.6041 19.0808C20.3256 19.358 19.8775 19.358 19.599 19.0808L15.5 15.0007L11.401 19.0808C11.1225 19.358 10.6744 19.358 10.3959 19.0808L9.89336 18.5806C9.61484 18.3033 9.61484 17.8574 9.89336 17.5801L13.9924 13.5L9.89336 9.41987C9.61484 9.14263 9.61484 8.69665 9.89336 8.41942L10.3959 7.9192C10.6744 7.64196 11.1225 7.64196 11.401 7.9192L15.5 11.9993L19.599 7.9192C19.8775 7.64196 20.3256 7.64196 20.6041 7.9192L21.1066 8.41942C21.3791 8.69665 21.3791 9.14263 21.1066 9.41987Z" fill="#FF5F57"/>
</svg>
