<svg width="24" height="27" viewBox="0 0 24 27" fill="none" xmlns="http://www.w3.org/2000/svg">
<path d="M23.9839 19.3036L24 24.4107C24 24.7348 23.7107 25 23.3571 25L17.7857 24.9853C17.4321 24.9853 17.1429 24.7201 17.1429 24.396V23.9049C17.1429 23.5808 17.4321 23.3156 17.7857 23.3156L20.8929 23.3304L20.9304 23.296L12 15.1098L3.06964 23.296L3.10714 23.3304L6.21429 23.3156C6.56786 23.3156 6.85714 23.5808 6.85714 23.9049V24.396C6.85714 24.7201 6.56786 24.9853 6.21429 24.9853L0.642857 25C0.289286 25 0 24.7348 0 24.4107L0.0160714 19.3036C0.0160714 18.9795 0.305357 18.7143 0.658929 18.7143H1.19464C1.54821 18.7143 1.8375 18.9795 1.8375 19.3036L1.82143 22.1518L1.85893 22.1862L10.7893 14L1.85893 5.81384L1.82143 5.84821L1.8375 8.69643C1.8375 9.02054 1.54821 9.28571 1.19464 9.28571H0.658929C0.305357 9.28571 0.0160714 9.02054 0.0160714 8.69643L0 3.58929C0 3.26518 0.289286 3 0.642857 3L6.21429 3.01473C6.56786 3.01473 6.85714 3.27991 6.85714 3.60402V4.09509C6.85714 4.4192 6.56786 4.68438 6.21429 4.68438L3.10714 4.66964L3.06964 4.70402L12 12.8902L20.9304 4.70402L20.8929 4.66964L17.7857 4.68438C17.4321 4.68438 17.1429 4.4192 17.1429 4.09509V3.60402C17.1429 3.27991 17.4321 3.01473 17.7857 3.01473L23.3571 3C23.7107 3 24 3.26518 24 3.58929L23.9839 8.69643C23.9839 9.02054 23.6946 9.28571 23.3411 9.28571H22.8054C22.4518 9.28571 22.1625 9.02054 22.1625 8.69643L22.1786 5.84821L22.1411 5.81384L13.2107 14L22.1411 22.1862L22.1786 22.1518L22.1625 19.3036C22.1625 18.9795 22.4518 18.7143 22.8054 18.7143H23.3411C23.6946 18.7143 23.9839 18.9795 23.9839 19.3036Z" fill="white"/>
</svg>
