<svg width="50" height="50" viewBox="0 0 50 50" fill="none" xmlns="http://www.w3.org/2000/svg">
<circle cx="25" cy="25" r="24.375" fill="#0083A9"/>
<path d="M22.2855 24C22.2855 23.4477 21.8378 23 21.2855 23H20.8241C20.6324 23 20.4448 23.0551 20.2836 23.1587L18.3275 24.4153C18.1234 24.5464 18 24.7724 18 25.015C18 25.5779 18.622 25.9187 19.0964 25.6156L20.37 24.802C20.3774 24.7973 20.3861 24.7947 20.3949 24.7947C20.4204 24.7947 20.4411 24.8154 20.4411 24.8409V32.2596C20.4411 32.7689 20.8539 33.1818 21.3633 33.1818C21.8726 33.1818 22.2855 32.7689 22.2855 32.2596V24Z" fill="white"/>
<path d="M26.3507 32.9482C26.8744 33.1967 27.4676 33.321 28.1305 33.321C28.8497 33.321 29.4828 33.1719 30.0297 32.8736C30.5798 32.572 31.0091 32.1593 31.3173 31.6357C31.6289 31.1087 31.7846 30.5088 31.7846 29.8359C31.7846 29.183 31.6454 28.603 31.367 28.0959C31.0886 27.5888 30.7075 27.1911 30.2236 26.9027C29.7396 26.611 29.1895 26.4652 28.573 26.4652C28.162 26.4652 27.7842 26.5398 27.4395 26.6889C27.1016 26.8318 26.8386 27.0114 26.6504 27.2275C26.6431 27.2359 26.6326 27.2408 26.6215 27.2408C26.599 27.2408 26.5815 27.2212 26.5839 27.1988L26.7758 25.4332C26.8309 24.9257 27.2595 24.5412 27.7699 24.5412H30.4821C30.9077 24.5412 31.2527 24.1962 31.2527 23.7706C31.2527 23.345 30.9077 23 30.4821 23H26.2502C25.737 23 25.307 23.3886 25.2553 23.8992L24.9092 27.3147C24.856 27.8403 25.2208 28.3167 25.7421 28.4023L25.9447 28.4356C26.2786 28.4904 26.6112 28.357 26.9074 28.1936C26.9919 28.1471 27.083 28.1046 27.1809 28.0661C27.4759 27.95 27.7759 27.8937 28.0808 27.897C28.4553 27.897 28.7868 27.9832 29.0751 28.1555C29.3635 28.3246 29.5905 28.5582 29.7562 28.8565C29.9219 29.1548 30.0031 29.4962 29.9998 29.8807C30.0031 30.2585 29.9236 30.5949 29.7612 30.8899C29.5988 31.1849 29.3767 31.4152 29.095 31.581C28.8133 31.7467 28.4918 31.8295 28.1305 31.8295C27.6698 31.8295 27.2754 31.6986 26.9473 31.4368C26.853 31.3606 26.7709 31.2782 26.701 31.1894C26.4062 30.8153 26.0381 30.4126 25.5617 30.4126C25.0447 30.4126 24.6127 30.8537 24.7968 31.3369C24.8743 31.5401 24.9763 31.7325 25.1028 31.9141C25.4111 32.3516 25.827 32.6963 26.3507 32.9482Z" fill="white"/>
<path fill-rule="evenodd" clip-rule="evenodd" d="M18 9C17.4477 9 17 9.44772 17 10V11H13C10.7909 11 9 12.7909 9 15V37C9 39.2091 10.7909 41 13 41H37C39.2091 41 41 39.2091 41 37V15C41 12.7909 39.2091 11 37 11H33V10C33 9.44772 32.5523 9 32 9C31.4477 9 31 9.44772 31 10V11H19V10C19 9.44772 18.5523 9 18 9ZM37 13C38.1046 13 39 13.8954 39 15V16H11V15C11 13.8954 11.8954 13 13 13H37ZM39 37V17.5H11V37C11 38.1046 11.8954 39 13 39H37C38.1046 39 39 38.1046 39 37Z" fill="white"/>
</svg>
