<svg width="9" height="17" viewBox="0 0 9 17" fill="none" xmlns="http://www.w3.org/2000/svg">
<path d="M5.15625 5.12109C6.43229 5.12109 7.37956 5.40755 7.99805 5.98047C8.61654 6.55339 8.92578 7.4681 8.92578 8.72461V16H7.74414L7.43164 14.418H7.35352C7.05404 14.8086 6.74154 15.1374 6.41602 15.4043C6.09049 15.6647 5.71289 15.8633 5.2832 16C4.86003 16.1302 4.33919 16.1953 3.7207 16.1953C3.06966 16.1953 2.49023 16.0814 1.98242 15.8535C1.48112 15.6257 1.08398 15.2806 0.791016 14.8184C0.504557 14.3561 0.361328 13.7702 0.361328 13.0605C0.361328 11.9928 0.784505 11.1725 1.63086 10.5996C2.47721 10.0267 3.76628 9.71419 5.49805 9.66211L7.34375 9.58398V8.92969C7.34375 8.00521 7.14518 7.35742 6.74805 6.98633C6.35091 6.61523 5.79102 6.42969 5.06836 6.42969C4.50846 6.42969 3.97461 6.51107 3.4668 6.67383C2.95898 6.83659 2.47721 7.02865 2.02148 7.25L1.52344 6.01953C2.00521 5.77214 2.55859 5.56055 3.18359 5.38477C3.80859 5.20898 4.46615 5.12109 5.15625 5.12109ZM7.32422 10.7266L5.69336 10.7949C4.35872 10.847 3.41797 11.0651 2.87109 11.4492C2.32422 11.8333 2.05078 12.377 2.05078 13.0801C2.05078 13.6921 2.23633 14.1445 2.60742 14.4375C2.97852 14.7305 3.47005 14.877 4.08203 14.877C5.03255 14.877 5.81055 14.6133 6.41602 14.0859C7.02148 13.5586 7.32422 12.7676 7.32422 11.7129V10.7266ZM4.32617 0.677734C4.48242 0.977214 4.67448 1.3125 4.90234 1.68359C5.13672 2.04818 5.38086 2.40625 5.63477 2.75781C5.89518 3.10286 6.13281 3.39909 6.34766 3.64648V3.88086H5.24414C5.00977 3.69206 4.7526 3.46745 4.47266 3.20703C4.19922 2.94661 3.92578 2.67318 3.65234 2.38672C3.37891 2.09375 3.13151 1.81706 2.91016 1.55664C2.6888 1.28971 2.51628 1.06185 2.39258 0.873047V0.677734H4.32617Z" fill="white"/>
</svg>
