<svg width="37" height="37" viewBox="0 0 37 37" fill="none" xmlns="http://www.w3.org/2000/svg">
<path d="M18.6255 0.314143C8.68351 0.140604 0.487676 8.05522 0.314137 17.9973C0.140599 27.9393 8.05522 36.1351 17.9973 36.3087C27.9393 36.4822 36.1351 28.5676 36.3087 18.6255C36.4822 8.68351 28.5676 0.487682 18.6255 0.314143ZM32.4534 11.5894L26.4665 11.4849C25.8696 8.25146 24.8216 5.4892 23.4696 3.51288C27.4379 4.90332 30.6678 7.84158 32.4534 11.5894ZM24.6975 18.4229C24.6685 20.0847 24.5254 21.6284 24.3044 23.0619L12.1563 22.8498C11.9854 21.4095 11.8963 19.8618 11.9253 18.1999C11.9543 16.5381 12.0974 14.9944 12.3184 13.5609L24.4665 13.773C24.6374 15.2133 24.7265 16.761 24.6975 18.4229V18.4229ZM18.585 2.63637C20.5371 2.67044 22.9849 5.91446 24.1007 11.4437L12.7653 11.2458C14.0734 5.75891 16.6329 2.6023 18.585 2.63637ZM13.6727 3.34188C12.26 5.26267 11.109 7.98655 10.3995 11.2045L4.41255 11.1C6.32793 7.41673 9.65837 4.59297 13.6727 3.34188V3.34188ZM2.63636 18.0378C2.66461 16.4195 2.93858 14.8636 3.42136 13.4056L9.98891 13.5203C9.77426 15.0046 9.63117 16.5484 9.60304 18.1594C9.57492 19.7704 9.6568 21.3181 9.82677 22.8092L3.25922 22.6945C2.82762 21.2206 2.60812 19.6561 2.63636 18.0378ZM4.16935 25.0334L10.1563 25.1379C10.7532 28.3713 11.8011 31.1336 13.1531 33.1099C9.18487 31.7195 5.95502 28.7812 4.16935 25.0334ZM18.0378 33.9864C16.0857 33.9524 13.6379 30.7083 12.5221 25.1792L23.8575 25.377C22.5494 30.8639 19.9899 34.0205 18.0378 33.9864V33.9864ZM22.95 33.2809C24.3628 31.3601 25.5138 28.6363 26.2232 25.4183L32.2102 25.5228C30.2949 29.2061 26.9644 32.0298 22.95 33.2809ZM26.6339 23.1025C26.8485 21.6182 26.9916 20.0745 27.0197 18.4634C27.0479 16.8524 26.966 15.3047 26.796 13.8136L33.3636 13.9283C33.7952 15.4022 34.0147 16.9667 33.9864 18.585C33.9582 20.2033 33.6842 21.7593 33.2014 23.2172L26.6339 23.1025Z" fill="white"/>
</svg>
