<svg width="49" height="49" viewBox="0 0 49 49" fill="none" xmlns="http://www.w3.org/2000/svg">
<circle cx="24.375" cy="24.375" r="24.375" fill="#FFBC05"/>
<path d="M20.6498 14.75L23.6374 17.7376C23.9655 18.0657 24.4107 18.25 24.875 18.25H35.375C35.8584 18.25 36.25 18.6416 36.25 19.125V31.375C36.25 31.8584 35.8584 32.25 35.375 32.25H12.625C12.1416 32.25 11.75 31.8584 11.75 31.375V15.625C11.75 15.1416 12.1416 14.75 12.625 14.75H20.6498ZM12.625 13C11.1752 13 10 14.1752 10 15.625V31.375C10 32.8248 11.1752 34 12.625 34H35.375C36.8248 34 38 32.8248 38 31.375V19.125C38 17.6752 36.8248 16.5 35.375 16.5H24.875L21.8874 13.5124C21.5593 13.1843 21.1141 13 20.6498 13H12.625Z" fill="white"/>
</svg>
