<svg width="28" height="21" viewBox="0 0 28 21" fill="none" xmlns="http://www.w3.org/2000/svg">
<path d="M10.6498 1.75L13.6374 4.73758C13.9655 5.0657 14.4107 5.25 14.875 5.25H25.375C25.8584 5.25 26.25 5.64156 26.25 6.125V18.375C26.25 18.8584 25.8584 19.25 25.375 19.25H2.625C2.14156 19.25 1.75 18.8584 1.75 18.375V2.625C1.75 2.14156 2.14156 1.75 2.625 1.75H10.6498ZM2.625 0C1.17523 0 0 1.17523 0 2.625V18.375C0 19.8248 1.17523 21 2.625 21H25.375C26.8248 21 28 19.8248 28 18.375V6.125C28 4.67523 26.8248 3.5 25.375 3.5H14.875L11.8874 0.512422C11.5593 0.184297 11.1141 0 10.6498 0H2.625Z" fill="white"/>
</svg>
