<svg width="24" height="17" viewBox="0 0 24 17" fill="none" xmlns="http://www.w3.org/2000/svg">
<path d="M1.04466 0.133675L9.04583 8.15928C9.22348 8.33748 9.22348 8.62641 9.04583 8.80464L1.04466 16.8302C0.867007 17.0084 0.578959 17.0084 0.401308 16.8302L0.133238 16.5614C-0.0444128 16.3832 -0.0444128 16.0942 0.133238 15.916L7.54459 8.48194L0.133238 1.04788C-0.0444128 0.869688 -0.0444128 0.580759 0.133238 0.402526L0.401308 0.133675C0.578959 -0.0445582 0.867007 -0.0445582 1.04466 0.133675ZM24 16.5437V16.1634C24 15.9114 23.7963 15.7071 23.5451 15.7071H11.1102C10.859 15.7071 10.6553 15.9114 10.6553 16.1634V16.5437C10.6553 16.7957 10.859 17 11.1102 17H23.5451C23.7963 17 24 16.7957 24 16.5437Z" fill="white"/>
</svg>
