<svg width="50" height="50" viewBox="0 0 50 50" fill="none" xmlns="http://www.w3.org/2000/svg">
<circle cx="25" cy="25" r="24.375" fill="#FF7505"/>
<g clip-path="url(#clip0_179_145)">
<path d="M29.1 25.1875C27.6266 25.1875 26.9181 26.0312 24.5 26.0312C22.0819 26.0312 21.3786 25.1875 19.9 25.1875C16.0906 25.1875 13 28.3621 13 32.275V34.4688C13 35.8662 14.1038 37 15.4643 37H33.5357C34.8962 37 36 35.8662 36 34.4688V32.275C36 28.3621 32.9094 25.1875 29.1 25.1875ZM34.3571 34.4688C34.3571 34.9328 33.9875 35.3125 33.5357 35.3125H15.4643C15.0125 35.3125 14.6429 34.9328 14.6429 34.4688V32.275C14.6429 29.2955 16.9993 26.875 19.9 26.875C20.9062 26.875 21.9074 27.7188 24.5 27.7188C27.0875 27.7188 28.0938 26.875 29.1 26.875C32.0007 26.875 34.3571 29.2955 34.3571 32.275V34.4688ZM24.5 23.5C28.1297 23.5 31.0714 20.4783 31.0714 16.75C31.0714 13.0217 28.1297 10 24.5 10C20.8703 10 17.9286 13.0217 17.9286 16.75C17.9286 20.4783 20.8703 23.5 24.5 23.5ZM24.5 11.6875C27.2158 11.6875 29.4286 13.9604 29.4286 16.75C29.4286 19.5396 27.2158 21.8125 24.5 21.8125C21.7842 21.8125 19.5714 19.5396 19.5714 16.75C19.5714 13.9604 21.7842 11.6875 24.5 11.6875Z" fill="white"/>
</g>
<defs>
<clipPath id="clip0_179_145">
<rect width="23" height="27" fill="white" transform="translate(13 10)"/>
</clipPath>
</defs>
</svg>
