<svg width="51" height="47" viewBox="0 0 51 47" fill="none" xmlns="http://www.w3.org/2000/svg">
<rect x="0.5" y="0.5" width="50" height="46" rx="4.5" fill="#D0423A" stroke="#E4E4E4"/>
<path d="M8.41016 5.43359C9.51562 5.43359 10.3223 5.65039 10.8301 6.08398C11.3418 6.51367 11.5977 7.13086 11.5977 7.93555C11.5977 8.29883 11.5371 8.64453 11.416 8.97266C11.2988 9.29688 11.1074 9.58398 10.8418 9.83398C10.5762 10.0801 10.2266 10.2754 9.79297 10.4199C9.36328 10.5605 8.83594 10.6309 8.21094 10.6309H7.16797V14H6.17188V5.43359H8.41016ZM8.31641 6.2832H7.16797V9.77539H8.09961C8.64648 9.77539 9.10156 9.7168 9.46484 9.59961C9.83203 9.48242 10.1074 9.29297 10.291 9.03125C10.4746 8.76562 10.5664 8.41406 10.5664 7.97656C10.5664 7.40625 10.3848 6.98242 10.0215 6.70508C9.6582 6.42383 9.08984 6.2832 8.31641 6.2832ZM19.2334 9.63477C19.2334 10.5996 19.0576 11.4062 18.706 12.0547C18.3545 12.6992 17.8447 13.1855 17.1767 13.5137C16.5127 13.8379 15.706 14 14.7568 14H12.4306V5.43359H15.0146C15.8857 5.43359 16.6357 5.59375 17.2646 5.91406C17.8935 6.23047 18.3779 6.70117 18.7177 7.32617C19.0615 7.94727 19.2334 8.7168 19.2334 9.63477ZM18.1845 9.66992C18.1845 8.90039 18.0556 8.26562 17.7978 7.76562C17.5439 7.26562 17.1689 6.89453 16.6728 6.65234C16.1806 6.40625 15.5771 6.2832 14.8623 6.2832H13.4267V13.1445H14.6396C15.8193 13.1445 16.7041 12.8535 17.2939 12.2715C17.8877 11.6895 18.1845 10.8223 18.1845 9.66992ZM21.1737 14H20.1777V5.43359H24.9472V6.3125H21.1737V9.45312H24.7187V10.3262H21.1737V14Z" fill="white"/>
<g clip-path="url(#clip0_254_756)">
<path d="M32.4859 23.4429L29.4271 20.4933C29.099 20.1769 28.6542 19.9976 28.1911 19.9976H20.75C19.7839 20.0012 19 20.757 19 21.6887V36.3136C19 37.2453 19.7839 38.0011 20.75 38.0011H31.25C32.2161 38.0011 33 37.2453 33 36.3136V24.6383C33 24.1918 32.8141 23.7594 32.4859 23.4429ZM31.662 24.241C31.7385 24.3148 31.7896 24.4027 31.8151 24.5012H28.3333V21.1437C28.4354 21.1683 28.5266 21.2176 28.6031 21.2914L31.662 24.241ZM31.25 36.8761H20.75C20.4292 36.8761 20.1667 36.623 20.1667 36.3136V21.6887C20.1667 21.3793 20.4292 21.1262 20.75 21.1262H27.1667V24.7824C27.1667 25.25 27.5568 25.6262 28.0417 25.6262H31.8333V36.3136C31.8333 36.623 31.5708 36.8761 31.25 36.8761ZM30.4479 30.8574C29.9557 30.3898 28.4427 30.534 27.7609 30.6219C26.988 30.1719 26.4776 29.5531 26.1167 28.632C26.2734 27.9992 26.5542 26.9726 26.35 26.3504C26.1896 25.3625 24.9026 25.482 24.724 26.1113C24.5417 26.7547 24.713 27.6722 25.0302 28.8465C24.5964 29.8449 23.9474 31.1984 23.4953 31.9613C22.737 32.3375 21.5229 32.9914 21.3516 33.8035C21.224 34.3941 22.1865 35.1886 23.2875 34.0285C23.6193 33.6804 23.9911 33.1566 24.4286 32.4289C25.4021 32.1195 26.474 31.7328 27.4182 31.5851C28.2167 32.007 29.1536 32.2847 29.7734 32.2847C30.7833 32.2883 30.8271 31.223 30.4479 30.8574ZM22.0917 33.9863C22.3068 33.4273 23.1344 32.7769 23.3859 32.5519C22.5802 33.7929 22.0917 34.0109 22.0917 33.9863ZM25.5625 26.1711C25.8797 26.1711 25.8469 27.4894 25.6391 27.8445C25.4495 27.2715 25.4568 26.1711 25.5625 26.1711ZM24.5271 31.7715C24.9391 31.0754 25.2927 30.2527 25.5771 29.532C25.9307 30.1543 26.3828 30.6465 26.8568 30.991C25.9708 31.1562 25.2016 31.5219 24.5271 31.7715ZM30.1198 31.564C30.1198 31.564 29.9083 31.8101 28.5339 31.2441C30.0286 31.1386 30.2729 31.4691 30.1198 31.564Z" fill="white"/>
</g>
<defs>
<clipPath id="clip0_254_756">
<rect width="14" height="18" fill="white" transform="translate(19 20)"/>
</clipPath>
</defs>
</svg>
