<svg width="51" height="47" viewBox="0 0 51 47" fill="none" xmlns="http://www.w3.org/2000/svg">
<rect x="0.5" y="0.5" width="50" height="46" rx="4.5" fill="#F1A02E" stroke="#E4E4E4"/>
<path d="M20.5 21.5C18.5 21.5 18.5 23 18.5 24.5C18.5 26.5 18.5 28 16.5 29.5C18.5 31 18.5 32.5 18.5 34.5C18.5 36 18.5 37.5 20.5 37.5" stroke="white"/>
<path d="M30.5 21.5C32.5 21.5 32.5 23 32.5 24.5C32.5 26.5 32.5 28 34.5 29.5C32.5 31 32.5 32.5 32.5 34.5C32.5 36 32.5 37.5 30.5 37.5" stroke="white"/>
<circle cx="25.5" cy="26.5" r="1" stroke="white"/>
<circle cx="25.5" cy="32.5" r="1" stroke="white"/>
</svg>
