<svg width="51" height="47" viewBox="0 0 51 47" fill="none" xmlns="http://www.w3.org/2000/svg">
<rect x="0.5" y="0.5" width="50" height="46" rx="4.5" fill="#8252B1" stroke="#E4E4E4"/>
<path d="M9.93945 14L7.0625 6.41797H7.01562C7.03125 6.57812 7.04492 6.77344 7.05664 7.00391C7.06836 7.23438 7.07812 7.48633 7.08594 7.75977C7.09375 8.0293 7.09766 8.30469 7.09766 8.58594V14H6.17188V5.43359H7.64844L10.3613 12.5586H10.4023L13.1562 5.43359H14.6211V14H13.6367V8.51562C13.6367 8.26172 13.6406 8.00781 13.6484 7.75391C13.6562 7.49609 13.666 7.25391 13.6777 7.02734C13.6895 6.79688 13.7012 6.59766 13.7129 6.42969H13.666L10.7539 14H9.93945ZM18.2431 5.43359C19.3486 5.43359 20.1552 5.65039 20.663 6.08398C21.1748 6.51367 21.4306 7.13086 21.4306 7.93555C21.4306 8.29883 21.3701 8.64453 21.249 8.97266C21.1318 9.29688 20.9404 9.58398 20.6748 9.83398C20.4091 10.0801 20.0595 10.2754 19.6259 10.4199C19.1962 10.5605 18.6689 10.6309 18.0439 10.6309H17.0009V14H16.0048V5.43359H18.2431ZM18.1494 6.2832H17.0009V9.77539H17.9326C18.4795 9.77539 18.9345 9.7168 19.2978 9.59961C19.665 9.48242 19.9404 9.29297 20.124 9.03125C20.3076 8.76562 20.3994 8.41406 20.3994 7.97656C20.3994 7.40625 20.2177 6.98242 19.8545 6.70508C19.4912 6.42383 18.9228 6.2832 18.1494 6.2832ZM26.9804 7.43164C26.9804 7.81445 26.9062 8.14648 26.7577 8.42773C26.6093 8.70898 26.4023 8.93945 26.1366 9.11914C25.871 9.29492 25.5585 9.41797 25.1991 9.48828V9.53516C25.8788 9.62109 26.3886 9.83984 26.7284 10.1914C27.0722 10.543 27.2441 11.0039 27.2441 11.5742C27.2441 12.0703 27.1269 12.5098 26.8925 12.8926C26.662 13.2754 26.3066 13.5762 25.8261 13.7949C25.3495 14.0098 24.7382 14.1172 23.9921 14.1172C23.539 14.1172 23.1191 14.0801 22.7323 14.0059C22.3495 13.9355 21.9823 13.8164 21.6308 13.6484V12.7344C21.9862 12.9102 22.373 13.0488 22.7909 13.1504C23.2089 13.248 23.6132 13.2969 24.0038 13.2969C24.7851 13.2969 25.3495 13.1426 25.6972 12.834C26.0448 12.5215 26.2187 12.0957 26.2187 11.5566C26.2187 11.1855 26.121 10.8867 25.9257 10.6602C25.7343 10.4297 25.457 10.2617 25.0937 10.1562C24.7343 10.0469 24.3007 9.99219 23.7929 9.99219H22.9374V9.16016H23.7987C24.2636 9.16016 24.6581 9.0918 24.9823 8.95508C25.3066 8.81836 25.5527 8.62695 25.7206 8.38086C25.8925 8.13086 25.9784 7.83594 25.9784 7.49609C25.9784 7.0625 25.8339 6.72852 25.5448 6.49414C25.2558 6.25586 24.8632 6.13672 24.3671 6.13672C24.0624 6.13672 23.7851 6.16797 23.5351 6.23047C23.2851 6.29297 23.0507 6.37891 22.832 6.48828C22.6132 6.59766 22.3945 6.72461 22.1757 6.86914L21.6835 6.20117C21.996 5.95898 22.3769 5.75 22.8261 5.57422C23.2753 5.39844 23.7851 5.31055 24.3554 5.31055C25.2304 5.31055 25.8866 5.50977 26.3241 5.9082C26.7616 6.30664 26.9804 6.81445 26.9804 7.43164Z" fill="white"/>
<path d="M33 23.0003C33 22.4294 32.5525 22 32.0453 22C31.9503 22 31.8531 22.015 31.7563 22.0472L22.6694 25.0472C22.2722 25.1784 22 25.5625 22 26V33.6488C21.4684 33.2497 20.7719 33 20 33C18.3431 33 17 34.1194 17 35.5C17 36.8806 18.3431 38 20 38C21.6569 38 23 36.8806 23 35.5V30L32 27V31.6488C31.4684 31.2497 30.7719 31 30 31C28.3431 31 27 32.1194 27 33.5C27 34.8806 28.3431 36 30 36C31.6569 36 33 34.8806 33 33.5C33 33.4991 32.9997 33.4984 32.9997 33.4975L33 23.0003ZM20 37C18.9159 37 18 36.3131 18 35.5C18 34.6869 18.9159 34 20 34C21.0841 34 22 34.6869 22 35.5C22 36.3131 21.0841 37 20 37ZM32 25.9459L23 28.9459V26H22.9828V25.9966L32 23.0197V25.9459ZM30 35C28.9159 35 28 34.3131 28 33.5C28 32.6869 28.9159 32 30 32C31.0841 32 32 32.6869 32 33.5C32 34.3131 31.0841 35 30 35Z" fill="white"/>
</svg>
