<svg width="51" height="47" viewBox="0 0 51 47" fill="none" xmlns="http://www.w3.org/2000/svg">
<rect x="0.5" y="0.5" width="50" height="46" rx="4.5" fill="#3862E8" stroke="#E4E4E4"/>
<path d="M6.17188 5.43359H8.59766C9.66797 5.43359 10.4727 5.59375 11.0117 5.91406C11.5508 6.23438 11.8203 6.7793 11.8203 7.54883C11.8203 7.88086 11.7559 8.17969 11.627 8.44531C11.502 8.70703 11.3184 8.92383 11.0762 9.0957C10.834 9.26758 10.5352 9.38672 10.1797 9.45312V9.51172C10.5547 9.57031 10.8867 9.67773 11.1758 9.83398C11.4648 9.99023 11.6914 10.209 11.8555 10.4902C12.0195 10.7715 12.1016 11.1289 12.1016 11.5625C12.1016 12.0898 11.9785 12.5352 11.7324 12.8984C11.4902 13.2617 11.1465 13.5371 10.7012 13.7246C10.2559 13.9082 9.72852 14 9.11914 14H6.17188V5.43359ZM7.16797 9.10742H8.80859C9.55469 9.10742 10.0703 8.98438 10.3555 8.73828C10.6445 8.49219 10.7891 8.13281 10.7891 7.66016C10.7891 7.17188 10.6172 6.82031 10.2734 6.60547C9.93359 6.39062 9.39062 6.2832 8.64453 6.2832H7.16797V9.10742ZM7.16797 9.94531V13.1504H8.94922C9.71094 13.1504 10.25 13.002 10.5664 12.7051C10.8828 12.4043 11.041 12 11.041 11.4922C11.041 11.168 10.9688 10.8906 10.8242 10.6602C10.6836 10.4297 10.4531 10.2539 10.1328 10.1328C9.81641 10.0078 9.39258 9.94531 8.86133 9.94531H7.16797ZM16.7373 14L13.8603 6.41797H13.8134C13.8291 6.57812 13.8427 6.77344 13.8545 7.00391C13.8662 7.23438 13.8759 7.48633 13.8837 7.75977C13.8916 8.0293 13.8955 8.30469 13.8955 8.58594V14H12.9697V5.43359H14.4462L17.1591 12.5586H17.2002L19.9541 5.43359H21.4189V14H20.4345V8.51562C20.4345 8.26172 20.4384 8.00781 20.4462 7.75391C20.4541 7.49609 20.4638 7.25391 20.4755 7.02734C20.4873 6.79688 20.499 6.59766 20.5107 6.42969H20.4638L17.5517 14H16.7373ZM25.0409 5.43359C26.1464 5.43359 26.953 5.65039 27.4609 6.08398C27.9726 6.51367 28.2284 7.13086 28.2284 7.93555C28.2284 8.29883 28.1679 8.64453 28.0468 8.97266C27.9296 9.29688 27.7382 9.58398 27.4726 9.83398C27.207 10.0801 26.8573 10.2754 26.4237 10.4199C25.9941 10.5605 25.4667 10.6309 24.8417 10.6309H23.7987V14H22.8027V5.43359H25.0409ZM24.9472 6.2832H23.7987V9.77539H24.7304C25.2773 9.77539 25.7323 9.7168 26.0956 9.59961C26.4628 9.48242 26.7382 9.29297 26.9218 9.03125C27.1054 8.76562 27.1972 8.41406 27.1972 7.97656C27.1972 7.40625 27.0155 6.98242 26.6523 6.70508C26.289 6.42383 25.7206 6.2832 24.9472 6.2832Z" fill="white"/>
<path d="M14.5 34.5L22.1556 30L28.2889 34L37.5 30" stroke="white"/>
<rect x="14.5" y="23.5" width="23" height="14" rx="1.5" stroke="white"/>
<circle cx="28.5" cy="28.5" r="2" stroke="white"/>
</svg>
