<svg width="51" height="47" viewBox="0 0 51 47" fill="none" xmlns="http://www.w3.org/2000/svg">
<rect x="0.5" y="0.5" width="50" height="46" rx="4.5" fill="#78C5EE" stroke="#E4E4E4"/>
<path d="M4.93555 16.2559C4.74023 16.2559 4.56836 16.2422 4.41992 16.2148C4.27148 16.1875 4.14453 16.1504 4.03906 16.1035V15.2539C4.16406 15.293 4.29883 15.3223 4.44336 15.3418C4.58789 15.3652 4.74414 15.377 4.91211 15.377C5.13086 15.377 5.33203 15.334 5.51562 15.248C5.69922 15.1621 5.8457 15.0156 5.95508 14.8086C6.06445 14.6016 6.11914 14.3164 6.11914 13.9531V5.43359H7.12109V13.877C7.12109 14.4121 7.03125 14.8555 6.85156 15.207C6.67578 15.5586 6.42383 15.8203 6.0957 15.9922C5.77148 16.168 5.38477 16.2559 4.93555 16.2559ZM10.6728 5.43359C11.7783 5.43359 12.5849 5.65039 13.0927 6.08398C13.6045 6.51367 13.8603 7.13086 13.8603 7.93555C13.8603 8.29883 13.7998 8.64453 13.6787 8.97266C13.5615 9.29688 13.3701 9.58398 13.1045 9.83398C12.8388 10.0801 12.4892 10.2754 12.0556 10.4199C11.6259 10.5605 11.0986 10.6309 10.4736 10.6309H9.43062V14H8.43453V5.43359H10.6728ZM10.5791 6.2832H9.43062V9.77539H10.3623C10.9091 9.77539 11.3642 9.7168 11.7275 9.59961C12.0947 9.48242 12.3701 9.29297 12.5537 9.03125C12.7373 8.76562 12.8291 8.41406 12.8291 7.97656C12.8291 7.40625 12.6474 6.98242 12.2841 6.70508C11.9209 6.42383 11.3525 6.2832 10.5791 6.2832ZM18.3554 9.51172H21.3495V13.666C20.9003 13.8184 20.4374 13.9316 19.9609 14.0059C19.4882 14.0801 18.9589 14.1172 18.373 14.1172C17.4823 14.1172 16.7304 13.9395 16.1171 13.584C15.5077 13.2285 15.0448 12.7227 14.7284 12.0664C14.412 11.4062 14.2538 10.623 14.2538 9.7168C14.2538 8.83008 14.4277 8.05664 14.7753 7.39648C15.1269 6.73633 15.6327 6.22461 16.2929 5.86133C16.957 5.49414 17.7538 5.31055 18.6835 5.31055C19.1601 5.31055 19.6112 5.35547 20.037 5.44531C20.4667 5.53125 20.8652 5.6543 21.2323 5.81445L20.8515 6.68164C20.5351 6.54492 20.1855 6.42773 19.8027 6.33008C19.4237 6.23242 19.0312 6.18359 18.6249 6.18359C17.9257 6.18359 17.3261 6.32812 16.8261 6.61719C16.33 6.90625 15.9491 7.31445 15.6835 7.8418C15.4218 8.36914 15.2909 8.99414 15.2909 9.7168C15.2909 10.4316 15.4062 11.0547 15.6366 11.5859C15.8671 12.1133 16.2265 12.5234 16.7148 12.8164C17.203 13.1094 17.832 13.2559 18.6015 13.2559C18.9882 13.2559 19.3202 13.2344 19.5976 13.1914C19.8749 13.1445 20.1269 13.0898 20.3534 13.0273V10.4023H18.3554V9.51172Z" fill="white"/>
<path d="M14.5 34.5L22.1556 30L28.2889 34L37.5 30" stroke="white"/>
<rect x="14.5" y="23.5" width="23" height="14" rx="1.5" stroke="white"/>
<circle cx="28.5" cy="28.5" r="2" stroke="white"/>
</svg>
