<svg width="51" height="47" viewBox="0 0 51 47" fill="none" xmlns="http://www.w3.org/2000/svg">
<rect x="0.5" y="0.5" width="50" height="46" rx="4.5" fill="#8252B1" stroke="#E4E4E4"/>
<g clip-path="url(#clip0_255_851)">
<path d="M34.9072 25.8504L33.0295 20.2172C32.7883 19.4898 32.1092 19 31.341 19H19.659C18.8908 19 18.2117 19.4898 17.9705 20.2172L16.0928 25.8504C16.0334 26.0322 16 26.2215 16 26.4145V36.2188C16 37.2021 16.7979 38 17.7812 38H33.2188C34.2021 38 35 37.2021 35 36.2188V26.4145C35 26.2215 34.9703 26.0322 34.9072 25.8504ZM17.1875 26.4145C17.1875 26.3514 17.1986 26.2883 17.2172 26.2252L19.0949 20.592C19.1766 20.3508 19.4029 20.1875 19.659 20.1875H24.9062V26.4219H17.1875V26.4145ZM33.8125 36.2188C33.8125 36.5453 33.5453 36.8125 33.2188 36.8125H17.7812C17.4547 36.8125 17.1875 36.5453 17.1875 36.2188V27.6094H33.8125V36.2188ZM33.8125 26.4219H26.0938V20.1875H31.341C31.5971 20.1875 31.8234 20.3508 31.9051 20.592L33.7828 26.2252C33.8014 26.2846 33.8125 26.3477 33.8125 26.4145V26.4219Z" fill="white"/>
</g>
<defs>
<clipPath id="clip0_255_851">
<rect width="19" height="19" fill="white" transform="translate(16 19)"/>
</clipPath>
</defs>
</svg>
