<svg width="51" height="47" viewBox="0 0 51 47" fill="none" xmlns="http://www.w3.org/2000/svg">
<rect x="0.5" y="0.5" width="50" height="46" rx="4.5" fill="#F1A02E" stroke="#E4E4E4"/>
<path d="M9.83398 6.18945C9.36133 6.18945 8.93555 6.27148 8.55664 6.43555C8.18164 6.5957 7.86133 6.83008 7.5957 7.13867C7.33398 7.44336 7.13281 7.8125 6.99219 8.24609C6.85156 8.67969 6.78125 9.16797 6.78125 9.71094C6.78125 10.4297 6.89258 11.0547 7.11523 11.5859C7.3418 12.1133 7.67773 12.5215 8.12305 12.8105C8.57227 13.0996 9.13281 13.2441 9.80469 13.2441C10.1875 13.2441 10.5469 13.2129 10.8828 13.1504C11.2227 13.084 11.5527 13.002 11.873 12.9043V13.7715C11.5605 13.8887 11.2324 13.9746 10.8887 14.0293C10.5449 14.0879 10.1367 14.1172 9.66406 14.1172C8.79297 14.1172 8.06445 13.9375 7.47852 13.5781C6.89648 13.2148 6.45898 12.7031 6.16602 12.043C5.87695 11.3828 5.73242 10.6035 5.73242 9.70508C5.73242 9.05664 5.82227 8.46484 6.00195 7.92969C6.18555 7.39062 6.45117 6.92578 6.79883 6.53516C7.15039 6.14453 7.58008 5.84375 8.08789 5.63281C8.59961 5.41797 9.18555 5.31055 9.8457 5.31055C10.2793 5.31055 10.6973 5.35352 11.0996 5.43945C11.502 5.52539 11.8652 5.64844 12.1895 5.80859L11.791 6.65234C11.5176 6.52734 11.2168 6.41992 10.8887 6.33008C10.5645 6.23633 10.2129 6.18945 9.83398 6.18945ZM17.6045 11.7207C17.6045 12.2285 17.4775 12.6621 17.2236 13.0215C16.9736 13.377 16.622 13.6484 16.1689 13.8359C15.7158 14.0234 15.1826 14.1172 14.5693 14.1172C14.2451 14.1172 13.9384 14.1016 13.6494 14.0703C13.3603 14.0391 13.0947 13.9941 12.8525 13.9355C12.6103 13.877 12.3974 13.8047 12.2138 13.7188V12.7637C12.5068 12.8848 12.8642 12.998 13.2861 13.1035C13.708 13.2051 14.1494 13.2559 14.6103 13.2559C15.04 13.2559 15.4033 13.1992 15.7002 13.0859C15.997 12.9688 16.2216 12.8027 16.374 12.5879C16.5302 12.3691 16.6084 12.1074 16.6084 11.8027C16.6084 11.5098 16.5439 11.2656 16.415 11.0703C16.2861 10.8711 16.0712 10.6914 15.7705 10.5312C15.4736 10.3672 15.0673 10.1934 14.5517 10.0098C14.1884 9.88086 13.8681 9.74023 13.5908 9.58789C13.3134 9.43164 13.081 9.25586 12.8935 9.06055C12.706 8.86523 12.5634 8.63867 12.4658 8.38086C12.372 8.12305 12.3252 7.82812 12.3252 7.49609C12.3252 7.03906 12.4404 6.64844 12.6709 6.32422C12.9052 5.99609 13.2275 5.74609 13.6377 5.57422C14.0517 5.39844 14.5263 5.31055 15.0615 5.31055C15.5185 5.31055 15.9404 5.35352 16.3271 5.43945C16.7177 5.52539 17.0752 5.64062 17.3994 5.78516L17.0888 6.64062C16.7802 6.51172 16.4521 6.4043 16.1045 6.31836C15.7607 6.23242 15.4052 6.18945 15.038 6.18945C14.6709 6.18945 14.3603 6.24414 14.1064 6.35352C13.8564 6.45898 13.665 6.60938 13.5322 6.80469C13.3994 7 13.333 7.23242 13.333 7.50195C13.333 7.80273 13.3955 8.05273 13.5205 8.25195C13.6494 8.45117 13.8525 8.62891 14.1298 8.78516C14.4111 8.9375 14.7822 9.09766 15.2431 9.26562C15.747 9.44922 16.1748 9.64453 16.5263 9.85156C16.8779 10.0547 17.1455 10.3047 17.3291 10.6016C17.5127 10.8945 17.6045 11.2676 17.6045 11.7207ZM23.2304 11.7207C23.2304 12.2285 23.1034 12.6621 22.8495 13.0215C22.5995 13.377 22.248 13.6484 21.7948 13.8359C21.3417 14.0234 20.8085 14.1172 20.1952 14.1172C19.871 14.1172 19.5644 14.1016 19.2753 14.0703C18.9862 14.0391 18.7206 13.9941 18.4784 13.9355C18.2362 13.877 18.0234 13.8047 17.8398 13.7188V12.7637C18.1327 12.8848 18.4902 12.998 18.912 13.1035C19.3339 13.2051 19.7753 13.2559 20.2362 13.2559C20.6659 13.2559 21.0292 13.1992 21.3261 13.0859C21.623 12.9688 21.8476 12.8027 21.9999 12.5879C22.1562 12.3691 22.2343 12.1074 22.2343 11.8027C22.2343 11.5098 22.1698 11.2656 22.0409 11.0703C21.912 10.8711 21.6972 10.6914 21.3964 10.5312C21.0995 10.3672 20.6933 10.1934 20.1777 10.0098C19.8144 9.88086 19.4941 9.74023 19.2167 9.58789C18.9394 9.43164 18.707 9.25586 18.5195 9.06055C18.332 8.86523 18.1894 8.63867 18.0917 8.38086C17.998 8.12305 17.9511 7.82812 17.9511 7.49609C17.9511 7.03906 18.0663 6.64844 18.2968 6.32422C18.5312 5.99609 18.8534 5.74609 19.2636 5.57422C19.6777 5.39844 20.1523 5.31055 20.6874 5.31055C21.1445 5.31055 21.5663 5.35352 21.953 5.43945C22.3437 5.52539 22.7011 5.64062 23.0253 5.78516L22.7148 6.64062C22.4062 6.51172 22.078 6.4043 21.7304 6.31836C21.3866 6.23242 21.0312 6.18945 20.664 6.18945C20.2968 6.18945 19.9862 6.24414 19.7323 6.35352C19.4823 6.45898 19.2909 6.60938 19.1581 6.80469C19.0253 7 18.9589 7.23242 18.9589 7.50195C18.9589 7.80273 19.0214 8.05273 19.1464 8.25195C19.2753 8.45117 19.4784 8.62891 19.7558 8.78516C20.037 8.9375 20.4081 9.09766 20.8691 9.26562C21.373 9.44922 21.8007 9.64453 22.1523 9.85156C22.5038 10.0547 22.7714 10.3047 22.955 10.6016C23.1386 10.8945 23.2304 11.2676 23.2304 11.7207Z" fill="white"/>
<path d="M23.9957 38.8477C23.2691 38.8418 22.6421 38.7334 22.1148 38.5225C21.5933 38.3174 21.192 38.0068 20.9107 37.5908C20.6353 37.1748 20.4976 36.6533 20.4976 36.0264V33.3369C20.4976 32.9209 20.4156 32.5869 20.2515 32.335C20.0875 32.0771 19.8443 31.8896 19.522 31.7725C19.1998 31.6553 18.8013 31.5967 18.3267 31.5967V30.3838C18.8013 30.3779 19.1998 30.3193 19.522 30.208C19.8443 30.0908 20.0875 29.9062 20.2515 29.6543C20.4156 29.4023 20.4976 29.0684 20.4976 28.6523V25.9453C20.4976 25.3184 20.6441 24.7998 20.9371 24.3896C21.23 23.9736 21.6373 23.6631 22.1588 23.458C22.6861 23.2529 23.2984 23.1504 23.9957 23.1504V24.3457C23.5621 24.3574 23.19 24.4248 22.8795 24.5479C22.5748 24.6709 22.3404 24.8584 22.1763 25.1104C22.0181 25.3623 21.939 25.6875 21.939 26.0859V28.7314C21.939 29.3408 21.7838 29.8301 21.4732 30.1992C21.1627 30.5684 20.6851 30.8115 20.0406 30.9287V31.0342C20.6968 31.1455 21.1773 31.3857 21.482 31.7549C21.7867 32.124 21.939 32.6162 21.939 33.2314V35.9297C21.939 36.3281 22.0181 36.6504 22.1763 36.8965C22.3345 37.1484 22.566 37.333 22.8707 37.4502C23.1812 37.5674 23.5562 37.6289 23.9957 37.6348V38.8477ZM24.4541 35.0859C24.4541 34.6758 24.5537 34.3857 24.7529 34.2158C24.9521 34.04 25.1953 33.9521 25.4824 33.9521C25.7812 33.9521 26.0332 34.04 26.2383 34.2158C26.4434 34.3857 26.5459 34.6758 26.5459 35.0859C26.5459 35.4902 26.4434 35.7861 26.2383 35.9736C26.0332 36.1553 25.7812 36.2461 25.4824 36.2461C25.1953 36.2461 24.9521 36.1553 24.7529 35.9736C24.5537 35.7861 24.4541 35.4902 24.4541 35.0859ZM27.0131 38.8477V37.6348C27.4467 37.623 27.8159 37.5557 28.1205 37.4326C28.4252 37.3154 28.6567 37.1309 28.8149 36.8789C28.9789 36.6328 29.061 36.3105 29.061 35.9121V33.249C29.061 32.6338 29.2162 32.1416 29.5268 31.7725C29.8432 31.4033 30.3207 31.1631 30.9594 31.0518V30.9463C30.309 30.8291 29.8286 30.5859 29.518 30.2168C29.2133 29.8477 29.061 29.3584 29.061 28.749V26.0771C29.061 25.6729 28.9819 25.3447 28.8237 25.0928C28.6655 24.8408 28.434 24.6562 28.1293 24.5391C27.8246 24.416 27.4526 24.3516 27.0131 24.3457V23.1504C27.7397 23.1562 28.3637 23.2617 28.8852 23.4668C29.4067 23.6719 29.8051 23.9824 30.0805 24.3984C30.3618 24.8086 30.5024 25.3301 30.5024 25.9629V28.6348C30.5024 29.0566 30.5844 29.3965 30.7485 29.6543C30.9125 29.9062 31.1557 30.0908 31.478 30.208C31.8061 30.3252 32.2075 30.3838 32.6821 30.3838V31.5967C32.2075 31.5967 31.8061 31.6553 31.478 31.7725C31.1557 31.8896 30.9125 32.0742 30.7485 32.3262C30.5844 32.5781 30.5024 32.9092 30.5024 33.3193V36.0439C30.5024 36.665 30.3559 37.1836 30.0629 37.5996C29.77 38.0156 29.3627 38.3262 28.8412 38.5312C28.3198 38.7422 27.7104 38.8477 27.0131 38.8477Z" fill="white"/>
</svg>
