<svg width="51" height="47" viewBox="0 0 51 47" fill="none" xmlns="http://www.w3.org/2000/svg">
<rect x="0.5" y="-0.5" width="50" height="46" rx="4.5" transform="matrix(1 0 0 -1 0 46)" fill="#F7DF1E" stroke="#E4E4E4"/>
<path d="M4.93555 16.2559C4.74023 16.2559 4.56836 16.2422 4.41992 16.2148C4.27148 16.1875 4.14453 16.1504 4.03906 16.1035V15.2539C4.16406 15.293 4.29883 15.3223 4.44336 15.3418C4.58789 15.3652 4.74414 15.377 4.91211 15.377C5.13086 15.377 5.33203 15.334 5.51562 15.248C5.69922 15.1621 5.8457 15.0156 5.95508 14.8086C6.06445 14.6016 6.11914 14.3164 6.11914 13.9531V5.43359H7.12109V13.877C7.12109 14.4121 7.03125 14.8555 6.85156 15.207C6.67578 15.5586 6.42383 15.8203 6.0957 15.9922C5.77148 16.168 5.38477 16.2559 4.93555 16.2559ZM13.2685 11.7207C13.2685 12.2285 13.1416 12.6621 12.8877 13.0215C12.6377 13.377 12.2861 13.6484 11.833 13.8359C11.3798 14.0234 10.8466 14.1172 10.2334 14.1172C9.90914 14.1172 9.6025 14.1016 9.31344 14.0703C9.02437 14.0391 8.75875 13.9941 8.51656 13.9355C8.27437 13.877 8.06148 13.8047 7.87789 13.7188V12.7637C8.17086 12.8848 8.52828 12.998 8.95016 13.1035C9.37203 13.2051 9.81344 13.2559 10.2744 13.2559C10.7041 13.2559 11.0673 13.1992 11.3642 13.0859C11.6611 12.9688 11.8857 12.8027 12.038 12.5879C12.1943 12.3691 12.2724 12.1074 12.2724 11.8027C12.2724 11.5098 12.208 11.2656 12.0791 11.0703C11.9502 10.8711 11.7353 10.6914 11.4345 10.5312C11.1377 10.3672 10.7314 10.1934 10.2158 10.0098C9.8525 9.88086 9.53219 9.74023 9.25484 9.58789C8.9775 9.43164 8.74508 9.25586 8.55758 9.06055C8.37008 8.86523 8.2275 8.63867 8.12984 8.38086C8.03609 8.12305 7.98922 7.82812 7.98922 7.49609C7.98922 7.03906 8.10445 6.64844 8.33492 6.32422C8.5693 5.99609 8.89156 5.74609 9.30172 5.57422C9.71578 5.39844 10.1904 5.31055 10.7255 5.31055C11.1826 5.31055 11.6045 5.35352 11.9912 5.43945C12.3818 5.52539 12.7392 5.64062 13.0634 5.78516L12.7529 6.64062C12.4443 6.51172 12.1162 6.4043 11.7685 6.31836C11.4248 6.23242 11.0693 6.18945 10.7021 6.18945C10.3349 6.18945 10.0244 6.24414 9.77047 6.35352C9.52047 6.45898 9.32906 6.60938 9.19625 6.80469C9.06344 7 8.99703 7.23242 8.99703 7.50195C8.99703 7.80273 9.05953 8.05273 9.18453 8.25195C9.31344 8.45117 9.51656 8.62891 9.79391 8.78516C10.0752 8.9375 10.4462 9.09766 10.9072 9.26562C11.4111 9.44922 11.8388 9.64453 12.1904 9.85156C12.542 10.0547 12.8095 10.3047 12.9931 10.6016C13.1767 10.8945 13.2685 11.2676 13.2685 11.7207Z" fill="white"/>
<path d="M24.022 38.8477C23.2955 38.8418 22.6685 38.7334 22.1412 38.5225C21.6197 38.3174 21.2183 38.0068 20.9371 37.5908C20.6617 37.1748 20.524 36.6533 20.524 36.0264V33.3369C20.524 32.9209 20.442 32.5869 20.2779 32.335C20.1138 32.0771 19.8707 31.8896 19.5484 31.7725C19.2261 31.6553 18.8277 31.5967 18.3531 31.5967V30.3838C18.8277 30.3779 19.2261 30.3193 19.5484 30.208C19.8707 30.0908 20.1138 29.9062 20.2779 29.6543C20.442 29.4023 20.524 29.0684 20.524 28.6523V25.9453C20.524 25.3184 20.6705 24.7998 20.9634 24.3896C21.2564 23.9736 21.6636 23.6631 22.1851 23.458C22.7125 23.2529 23.3248 23.1504 24.022 23.1504V24.3457C23.5884 24.3574 23.2164 24.4248 22.9058 24.5479C22.6011 24.6709 22.3668 24.8584 22.2027 25.1104C22.0445 25.3623 21.9654 25.6875 21.9654 26.0859V28.7314C21.9654 29.3408 21.8101 29.8301 21.4996 30.1992C21.189 30.5684 20.7115 30.8115 20.067 30.9287V31.0342C20.7232 31.1455 21.2037 31.3857 21.5084 31.7549C21.813 32.124 21.9654 32.6162 21.9654 33.2314V35.9297C21.9654 36.3281 22.0445 36.6504 22.2027 36.8965C22.3609 37.1484 22.5923 37.333 22.897 37.4502C23.2076 37.5674 23.5826 37.6289 24.022 37.6348V38.8477ZM26.9868 38.8477V37.6348C27.4204 37.623 27.7895 37.5557 28.0942 37.4326C28.3989 37.3154 28.6303 37.1309 28.7885 36.8789C28.9526 36.6328 29.0346 36.3105 29.0346 35.9121V33.249C29.0346 32.6338 29.1899 32.1416 29.5004 31.7725C29.8168 31.4033 30.2944 31.1631 30.933 31.0518V30.9463C30.2827 30.8291 29.8022 30.5859 29.4916 30.2168C29.187 29.8477 29.0346 29.3584 29.0346 28.749V26.0771C29.0346 25.6729 28.9555 25.3447 28.7973 25.0928C28.6391 24.8408 28.4077 24.6562 28.103 24.5391C27.7983 24.416 27.4262 24.3516 26.9868 24.3457V23.1504C27.7133 23.1562 28.3373 23.2617 28.8588 23.4668C29.3803 23.6719 29.7787 23.9824 30.0541 24.3984C30.3354 24.8086 30.476 25.3301 30.476 25.9629V28.6348C30.476 29.0566 30.558 29.3965 30.7221 29.6543C30.8862 29.9062 31.1293 30.0908 31.4516 30.208C31.7797 30.3252 32.1811 30.3838 32.6557 30.3838V31.5967C32.1811 31.5967 31.7797 31.6553 31.4516 31.7725C31.1293 31.8896 30.8862 32.0742 30.7221 32.3262C30.558 32.5781 30.476 32.9092 30.476 33.3193V36.0439C30.476 36.665 30.3295 37.1836 30.0366 37.5996C29.7436 38.0156 29.3364 38.3262 28.8149 38.5312C28.2934 38.7422 27.684 38.8477 26.9868 38.8477Z" fill="white"/>
</svg>
