<svg width="51" height="47" viewBox="0 0 51 47" fill="none" xmlns="http://www.w3.org/2000/svg">
<rect x="0.5" y="0.5" width="50" height="46" rx="4.5" fill="#005E9C" stroke="#E4E4E4"/>
<path d="M12.6641 14H11.668V9.96289H7.16797V14H6.17188V5.43359H7.16797V9.08398H11.668V5.43359H12.6641V14ZM16.6904 14H15.6884V6.3125H12.9931V5.43359H19.374V6.3125H16.6904V14ZM23.4765 14L20.5995 6.41797H20.5527C20.5683 6.57812 20.582 6.77344 20.5937 7.00391C20.6054 7.23438 20.6152 7.48633 20.623 7.75977C20.6308 8.0293 20.6347 8.30469 20.6347 8.58594V14H19.7089V5.43359H21.1855L23.8984 12.5586H23.9394L26.6933 5.43359H28.1581V14H27.1737V8.51562C27.1737 8.26172 27.1777 8.00781 27.1855 7.75391C27.1933 7.49609 27.203 7.25391 27.2148 7.02734C27.2265 6.79688 27.2382 6.59766 27.2499 6.42969H27.203L24.2909 14H23.4765ZM29.5419 14V5.43359H30.538V13.1094H34.3407V14H29.5419Z" fill="white"/>
<path d="M22.3604 33.8643L13.9053 30.1201V29.2852L22.3604 25.1016V26.4023L15.4873 29.6455L22.3604 32.5723V33.8643ZM28.268 23.1504L23.4868 36H22.0454L26.8354 23.1504H28.268ZM27.9354 32.5723L34.8173 29.6631L27.9354 26.4023V25.1016L36.3905 29.2852V30.1201L27.9354 33.8643V32.5723Z" fill="white"/>
</svg>
