<svg width="51" height="47" viewBox="0 0 51 47" fill="none" xmlns="http://www.w3.org/2000/svg">
<rect x="0.5" y="0.5" width="50" height="46" rx="4.5" fill="#F16690" stroke="#E4E4E4"/>
<path d="M11.5449 14L10.4902 11.2812H7.05664L6.00781 14H5L8.35156 5.39844H9.24805L12.5762 14H11.5449ZM10.1914 10.3965L9.18945 7.69531C9.16602 7.625 9.12695 7.50977 9.07227 7.34961C9.02148 7.18945 8.96875 7.02344 8.91406 6.85156C8.85938 6.67969 8.81445 6.54102 8.7793 6.43555C8.74023 6.5957 8.69727 6.75586 8.65039 6.91602C8.60742 7.07227 8.56445 7.21875 8.52148 7.35547C8.47852 7.48828 8.44141 7.60156 8.41016 7.69531L7.39062 10.3965H10.1914ZM18.788 5.43359L15.7119 14H14.7099L11.6337 5.43359H12.6767L14.6806 11.0762C14.7627 11.3027 14.8349 11.5195 14.8974 11.7266C14.9638 11.9336 15.0224 12.1328 15.0732 12.3242C15.124 12.5156 15.1689 12.7012 15.208 12.8809C15.247 12.7012 15.292 12.5156 15.3427 12.3242C15.3935 12.1289 15.4521 11.9277 15.5185 11.7207C15.5849 11.5098 15.6591 11.2891 15.7412 11.0586L17.7334 5.43359H18.788ZM19.0058 14V5.43359H20.0019V14H19.0058Z" fill="white"/>
<circle cx="25.5" cy="29.5" r="8" stroke="white"/>
<path d="M31 29.5L22.75 34.2631V24.7369L31 29.5Z" fill="white"/>
</svg>
