<svg width="25" height="22" viewBox="0 0 25 22" fill="none" xmlns="http://www.w3.org/2000/svg">
<path d="M19.5557 12.2227C22.2556 12.2227 24.4442 14.4114 24.4443 17.1113C24.4441 19.8112 22.2555 21.9999 19.5557 22H4.88867C2.18886 21.9999 0.000234487 19.8111 0 17.1113C0.00011725 14.4114 2.18879 12.2228 4.88867 12.2227H19.5557ZM19.8271 13.8525C18.1272 13.8526 16.7492 15.3114 16.749 17.1113C16.7492 18.9112 18.1273 20.3711 19.8271 20.3711C21.527 20.3711 22.9051 18.9112 22.9053 17.1113C22.9051 15.3114 21.5271 13.8525 19.8271 13.8525ZM19.8076 0.00683594C22.3905 0.138021 24.4442 2.27326 24.4443 4.88867C24.4443 7.50419 22.3905 9.64031 19.8076 9.77148L19.5557 9.77734H4.88867C2.18871 9.77723 0 7.58866 0 4.88867C0.00011725 2.18879 2.18879 0.000116157 4.88867 0H19.5557L19.8076 0.00683594ZM4.88867 0.814453C2.6388 0.814569 0.81457 2.63879 0.814453 4.88867C0.814453 7.13865 2.63872 8.96278 4.88867 8.96289H19.5557C21.8057 8.96283 23.6299 7.13868 23.6299 4.88867C23.6298 2.63876 21.8056 0.814509 19.5557 0.814453H4.88867ZM5.38672 1.62988C7.08669 1.62988 8.46473 3.08873 8.46484 4.88867C8.46484 6.68871 7.08676 8.14844 5.38672 8.14844C3.68674 8.14836 2.30859 6.68866 2.30859 4.88867C2.3087 3.08878 3.68681 1.62996 5.38672 1.62988Z" fill="black"/>
</svg>
