<svg width="17" height="19" viewBox="0 0 17 19" fill="none" xmlns="http://www.w3.org/2000/svg">
<path d="M16.4665 2.44703L14.4978 0.521721C14.1562 0.187671 13.6929 2.47028e-06 13.2098 0L6.67857 0C5.67261 0 4.85714 0.79748 4.85714 1.78125V3.5625H1.82143C0.815469 3.5625 0 4.35998 0 5.34375V17.2188C0 18.2025 0.815469 19 1.82143 19H10.3214C11.3274 19 12.1429 18.2025 12.1429 17.2188V15.4375H15.1786C16.1845 15.4375 17 14.64 17 13.6562V3.70656C17 3.23414 16.8081 2.78108 16.4665 2.44703ZM13.3571 1.20572C13.4639 1.23148 13.5614 1.28532 13.6391 1.36139L15.6079 3.28674C15.6856 3.36274 15.7407 3.4581 15.767 3.5625H13.3571V1.20572ZM10.9286 17.2188C10.9286 17.5461 10.6562 17.8125 10.3214 17.8125H1.82143C1.48667 17.8125 1.21429 17.5461 1.21429 17.2188V5.34375C1.21429 5.01637 1.48667 4.75 1.82143 4.75H4.85714V13.6562C4.85714 14.64 5.67261 15.4375 6.67857 15.4375H10.9286V17.2188ZM15.7857 13.6562C15.7857 13.9836 15.5133 14.25 15.1786 14.25H6.67857C6.34381 14.25 6.07143 13.9836 6.07143 13.6562V1.78125C6.07143 1.45387 6.34381 1.1875 6.67857 1.1875H12.1429V3.85938C12.1429 4.34922 12.5527 4.75 13.0536 4.75H15.7857V13.6562Z" fill="black"/>
</svg>
