<svg width="23" height="25" viewBox="0 0 23 25" fill="none" xmlns="http://www.w3.org/2000/svg">
<path d="M21.1042 17.8524C16.0884 18.7895 11.4572 15.0276 11.4572 10.0302C11.4572 7.15459 13.028 4.52085 15.5671 3.10337C16.8527 2.3856 16.5293 0.473535 15.0686 0.208838C14.301 0.0700243 13.5222 0.000122618 12.7417 0C5.70717 0 0 5.59307 0 12.5C0 19.4011 5.70124 25 12.7417 25C16.6702 25 20.2612 23.2459 22.6388 20.3719C23.5768 19.2381 22.5539 17.5814 21.1042 17.8524V17.8524ZM12.7417 23.4375C6.58425 23.4375 1.59271 18.5406 1.59271 12.5C1.59271 6.45938 6.58425 1.5625 12.7417 1.5625C13.4377 1.5625 14.1186 1.62568 14.7793 1.74536C11.8442 3.38403 9.86448 6.48018 9.86448 10.0302C9.86448 16.0168 15.4197 20.505 21.4021 19.3873C19.3581 21.8581 16.2381 23.4375 12.7417 23.4375Z" fill="black"/>
</svg>
