<svg width="25" height="28" viewBox="0 0 25 28" fill="none" xmlns="http://www.w3.org/2000/svg">
<g clip-path="url(#clip0_320_1024)">
<path d="M12.5002 26.25C11.5147 26.25 10.7144 25.4636 10.7144 24.4984H8.92873C8.92873 26.4294 10.5314 28 12.5002 28C14.4689 28 16.0716 26.4294 16.0716 24.4984H14.2859C14.2859 25.4636 13.4857 26.25 12.5002 26.25ZM24.1843 18.3099C22.6241 16.8541 21.431 15.3305 21.431 10.1664C21.431 5.81383 17.8936 2.26406 13.393 1.83477V0.875C13.393 0.391562 12.9935 0 12.5002 0C12.0069 0 11.6073 0.391562 11.6073 0.875V1.83531C7.10674 2.26461 3.56935 5.81383 3.56935 10.1664C3.56935 15.33 2.37571 16.8541 0.815436 18.3099C0.0358592 19.0373 -0.210235 20.137 0.187645 21.1116C0.593896 22.1069 1.57158 22.75 2.67872 22.75H22.3216C23.4287 22.75 24.4064 22.1063 24.8127 21.111C25.2106 20.1365 24.9639 19.0373 24.1843 18.3099ZM22.3216 21H2.67872C1.88463 21 1.48787 20.0993 2.04702 19.5776C3.99234 17.7625 5.35506 15.7309 5.35506 10.167C5.35506 6.48211 8.55094 3.5 12.5002 3.5C16.4488 3.5 19.6453 6.48156 19.6453 10.1664C19.6453 15.709 20.9963 17.7516 22.9533 19.577C23.5147 20.1015 23.1123 21 22.3216 21Z" fill="black"/>
</g>
<defs>
<clipPath id="clip0_320_1024">
<rect width="25" height="28" fill="white"/>
</clipPath>
</defs>
</svg>
