<svg width="8" height="14" viewBox="0 0 8 14" fill="none" xmlns="http://www.w3.org/2000/svg">
<path d="M7.89014 9.71969L7.6692 9.49872C7.52276 9.35228 7.28533 9.35228 7.13886 9.49872L4.53123 12.1215V0.375C4.53123 0.167906 4.36333 0 4.15623 0H3.84373C3.63664 0 3.46873 0.167906 3.46873 0.375V12.1215L0.861109 9.49872C0.714672 9.35228 0.477234 9.35228 0.330766 9.49872L0.109828 9.71969C-0.0366094 9.86613 -0.0366094 10.1036 0.109828 10.25L3.73483 13.8902C3.88127 14.0366 4.1187 14.0366 4.26517 13.8902L7.89017 10.25C8.03661 10.1036 8.03661 9.86613 7.89014 9.71969Z" fill="black"/>
</svg>
