<svg width="26" height="26" viewBox="0 0 26 26" fill="none" xmlns="http://www.w3.org/2000/svg">
<path d="M13 7.29556C9.86172 7.29556 7.3125 9.84998 7.3125 12.9884C7.3125 16.1268 9.86172 18.6813 13 18.6813C16.1383 18.6813 18.6875 16.1268 18.6875 12.9884C18.6875 9.84998 16.1383 7.29556 13 7.29556ZM13 17.0562C10.7605 17.0562 8.9375 15.2331 8.9375 12.9884C8.9375 10.7438 10.7605 8.92064 13 8.92064C15.2395 8.92064 17.0625 10.7438 17.0625 12.9884C17.0625 15.2331 15.2395 17.0562 13 17.0562ZM26 12.9884C26 12.7193 25.8629 12.4653 25.6395 12.313L21.4297 9.49449L22.4148 4.52277C22.4656 4.25869 22.3844 3.97938 22.1914 3.79148C21.9984 3.5985 21.7293 3.51217 21.4602 3.56803L16.4937 4.55324L13.6754 0.338188C13.3707 -0.113787 12.6293 -0.113787 12.3246 0.338188L9.50625 4.55324L4.53984 3.56295C4.2707 3.50709 4.00156 3.59342 3.80859 3.7864C3.61563 3.97938 3.53437 4.25361 3.58516 4.51769L4.57031 9.49449L0.360547 12.313C0.137109 12.4653 0 12.7193 0 12.9884C0 13.2576 0.137109 13.5115 0.360547 13.6638L4.57031 16.4823L3.58516 21.4541C3.53437 21.7181 3.61563 21.9974 3.80859 22.1853C4.00156 22.3783 4.2707 22.4647 4.53984 22.4088L9.50625 21.4236L12.3246 25.6386C12.477 25.8672 12.7309 25.9992 13 25.9992C13.2691 25.9992 13.523 25.8621 13.6754 25.6386L16.4937 21.4236L21.4602 22.4088C21.7344 22.4697 22.0035 22.3783 22.1914 22.1853C22.3844 21.9924 22.4656 21.7181 22.4148 21.4541L21.4297 16.4823L25.6395 13.6638C25.8629 13.5115 26 13.2576 26 12.9884V12.9884ZM20.0738 15.4311C19.7996 15.6139 19.6676 15.944 19.7285 16.264L20.5816 20.5755L16.2754 19.7223C15.9402 19.6512 15.6254 19.7934 15.4426 20.0677L13 23.7241L10.5574 20.0727C10.4051 19.8442 10.1512 19.7122 9.88203 19.7122C9.83125 19.7122 9.77539 19.7173 9.72461 19.7274L5.41836 20.5806L6.27148 16.269C6.33242 15.9491 6.20039 15.619 5.92617 15.4362L2.275 12.9935L5.92617 10.5457C6.20039 10.3629 6.33242 10.0328 6.27148 9.71286L5.41836 5.40133L9.72461 6.25449C10.0547 6.32051 10.3746 6.18339 10.5574 5.90916L13 2.25273L15.4426 5.90916C15.6254 6.18339 15.9453 6.32051 16.2754 6.25449L20.5816 5.40133L19.7285 9.71286C19.6676 10.0328 19.7996 10.3629 20.0738 10.5457L23.725 12.9935L20.0738 15.4311V15.4311Z" fill="black"/>
</svg>
