<svg width="42" height="42" viewBox="0 0 42 42" fill="none" xmlns="http://www.w3.org/2000/svg">
<path d="M21 42C32.6008 42 42 32.6008 42 21C42 9.39919 32.6008 0 21 0C9.39919 0 0 9.39919 0 21C0 32.6008 9.39919 42 21 42ZM2.70968 21C2.70968 10.9488 10.8472 2.70968 21 2.70968C31.0512 2.70968 39.2903 10.8472 39.2903 21C39.2903 31.0512 31.1528 39.2903 21 39.2903C10.9488 39.2903 2.70968 31.1528 2.70968 21ZM30.7972 19.4758L15.894 10.4153C14.556 9.67016 12.871 10.627 12.871 12.1935V29.8065C12.871 31.3645 14.5476 32.3298 15.894 31.5847L30.7972 23.0323C32.1859 22.2617 32.1859 20.2548 30.7972 19.4758ZM15.5806 27.7573V14.302C15.5806 13.904 16.0125 13.6585 16.3512 13.8702L27.7403 20.7883C28.0706 20.9915 28.0621 21.4742 27.7319 21.6605L16.3427 28.1976C16.004 28.3923 15.5806 28.1468 15.5806 27.7573Z" fill="white"/>
</svg>
