<svg width="41" height="42" viewBox="0 0 41 42" fill="none" xmlns="http://www.w3.org/2000/svg">
<path d="M37.4601 29.992C28.6028 31.5664 20.4248 25.2463 20.4248 16.8508C20.4248 12.0197 23.1987 7.59503 27.6823 5.21366C29.9525 4.0078 29.3815 0.795539 26.8021 0.350848C25.4466 0.117641 24.0713 0.000205999 22.693 0C10.2711 0 0.192993 9.39635 0.192993 21C0.192993 32.5938 10.2606 42 22.693 42C29.6303 42 35.9714 39.0531 40.17 34.2248C41.8264 32.3201 40.0201 29.5368 37.4601 29.992ZM22.693 39.375C11.8199 39.375 3.00549 31.1483 3.00549 21C3.00549 10.8518 11.8199 2.625 22.693 2.625C23.9221 2.625 25.1245 2.73115 26.2912 2.93221C21.1082 5.68518 17.6123 10.8867 17.6123 16.8508C17.6123 26.9083 27.422 34.4484 37.9862 32.5706C34.3767 36.7215 28.8672 39.375 22.693 39.375Z" fill="white"/>
</svg>
