<svg width="25" height="25" viewBox="0 1 25 25" fill="none" xmlns="http://www.w3.org/2000/svg">
<path d="M24.9833 19.0446L25 24.3839C25 24.7228 24.6987 25 24.3304 25L18.5268 24.9846C18.1585 24.9846 17.8571 24.7074 17.8571 24.3685V23.8551C17.8571 23.5163 18.1585 23.2391 18.5268 23.2391L21.7634 23.2545L21.8025 23.2185L12.5 14.6603L3.19754 23.2185L3.23661 23.2545L6.47321 23.2391C6.84152 23.2391 7.14286 23.5163 7.14286 23.8551V24.3685C7.14286 24.7074 6.84152 24.9846 6.47321 24.9846L0.669643 25C0.301339 25 0 24.7228 0 24.3839L0.0167411 19.0446C0.0167411 18.7058 0.31808 18.4286 0.686384 18.4286H1.24442C1.61272 18.4286 1.91406 18.7058 1.91406 19.0446L1.89732 22.0223L1.93638 22.0583L11.2388 13.5L1.93638 4.94174L1.89732 4.97768L1.91406 7.95536C1.91406 8.2942 1.61272 8.57143 1.24442 8.57143H0.686384C0.31808 8.57143 0.0167411 8.2942 0.0167411 7.95536L0 2.61607C0 2.27723 0.301339 2 0.669643 2L6.47321 2.0154C6.84152 2.0154 7.14286 2.29263 7.14286 2.63147V3.14487C7.14286 3.48371 6.84152 3.76094 6.47321 3.76094L3.23661 3.74554L3.19754 3.78147L12.5 12.3397L21.8025 3.78147L21.7634 3.74554L18.5268 3.76094C18.1585 3.76094 17.8571 3.48371 17.8571 3.14487V2.63147C17.8571 2.29263 18.1585 2.0154 18.5268 2.0154L24.3304 2C24.6987 2 25 2.27723 25 2.61607L24.9833 7.95536C24.9833 8.2942 24.6819 8.57143 24.3136 8.57143H23.7556C23.3873 8.57143 23.0859 8.2942 23.0859 7.95536L23.1027 4.97768L23.0636 4.94174L13.7612 13.5L23.0636 22.0583L23.1027 22.0223L23.0859 19.0446C23.0859 18.7058 23.3873 18.4286 23.7556 18.4286H24.3136C24.6819 18.4286 24.9833 18.7058 24.9833 19.0446V19.0446Z" fill="black"/>
</svg>
