<svg width="16" height="16" viewBox="0 0 16 16" fill="none" xmlns="http://www.w3.org/2000/svg">
<g clip-path="url(#clip0_191_1003)">
<path d="M7.96191 0.25C3.68066 0.25 0.211914 3.71875 0.211914 8C0.211914 12.2812 3.68066 15.75 7.96191 15.75C12.2432 15.75 15.7119 12.2812 15.7119 8C15.7119 3.71875 12.2432 0.25 7.96191 0.25ZM13.9994 5H11.4213C11.14 3.6125 10.6682 2.43125 10.0713 1.59063C11.79 2.15938 13.2025 3.4 13.9994 5ZM10.7119 8C10.7119 8.71562 10.6619 9.38125 10.5775 10H5.34629C5.26191 9.38125 5.21191 8.71562 5.21191 8C5.21191 7.28438 5.26191 6.61875 5.34629 6H10.5775C10.6619 6.61875 10.7119 7.28438 10.7119 8ZM7.96191 1.25C8.80254 1.25 9.88066 2.62812 10.4025 5H5.52129C6.04316 2.62812 7.12129 1.25 7.96191 1.25ZM5.85254 1.59063C5.25879 2.42812 4.78379 3.60938 4.50254 5H1.92441C2.72129 3.4 4.13379 2.15938 5.85254 1.59063ZM1.21191 8C1.21191 7.30312 1.31816 6.63125 1.51504 6H4.34316C4.26191 6.64062 4.21191 7.30625 4.21191 8C4.21191 8.69375 4.25879 9.35938 4.34316 10H1.51504C1.31816 9.36875 1.21191 8.69687 1.21191 8ZM1.92441 11H4.50254C4.78379 12.3875 5.25566 13.5688 5.85254 14.4094C4.13379 13.8406 2.72129 12.6 1.92441 11ZM7.96191 14.75C7.12129 14.75 6.04316 13.3719 5.52129 11H10.4025C9.88066 13.3719 8.80254 14.75 7.96191 14.75ZM10.0713 14.4094C10.665 13.5719 11.14 12.3906 11.4213 11H13.9994C13.2025 12.6 11.79 13.8406 10.0713 14.4094ZM11.5807 10C11.6619 9.35938 11.7119 8.69375 11.7119 8C11.7119 7.30625 11.665 6.64062 11.5807 6H14.4088C14.6057 6.63125 14.7119 7.30312 14.7119 8C14.7119 8.69687 14.6057 9.36875 14.4088 10H11.5807Z" fill="black"/>
</g>
<defs>
<clipPath id="clip0_191_1003">
<rect width="15.5" height="16" fill="white" transform="translate(0.211914)"/>
</clipPath>
</defs>
</svg>
