<svg width="16" height="16" viewBox="0 0 16 16" fill="none" xmlns="http://www.w3.org/2000/svg">
<path d="M14 0H2C0.896875 0 0 0.896875 0 2V11C0 12.1031 0.896875 13 2 13H5V15.625C5 15.8469 5.18125 16 5.375 16C5.45 16 5.52813 15.9781 5.59688 15.925L9.5 13H14C15.1031 13 16 12.1031 16 11V2C16 0.896875 15.1031 0 14 0ZM15 11C15 11.55 14.55 12 14 12H9.16562L8.9 12.2L6 14.375V12H2C1.45 12 1 11.55 1 11V2C1 1.45 1.45 1 2 1H14C14.55 1 15 1.45 15 2V11ZM8 8.25C7.58437 8.25 7.25 8.58438 7.25 9C7.25 9.41562 7.58437 9.75 8 9.75C8.41562 9.75 8.75 9.41562 8.75 9C8.75 8.58438 8.41562 8.25 8 8.25ZM7.73438 7.5H8.26562C8.39688 7.5 8.50625 7.39687 8.51562 7.26562L8.73438 3.76562C8.74375 3.62188 8.62813 3.5 8.48438 3.5H7.51562C7.37187 3.5 7.25625 3.62188 7.26562 3.76562L7.48438 7.26562C7.49375 7.39687 7.60313 7.5 7.73438 7.5Z" fill="black"/>
</svg>
