<svg width="18" height="14" viewBox="0 0 18 14" fill="none" xmlns="http://www.w3.org/2000/svg">
<path d="M13.2188 7C13.2188 6.60006 13.5965 6.27586 14.0625 6.27586C14.5285 6.27586 14.9062 6.60006 14.9062 7C14.9062 7.39994 14.5285 7.72414 14.0625 7.72414C13.5965 7.72414 13.2188 7.39994 13.2188 7ZM11.8125 7.72414C12.2785 7.72414 12.6562 7.39994 12.6562 7C12.6562 6.60006 12.2785 6.27586 11.8125 6.27586C11.3465 6.27586 10.9688 6.60006 10.9688 7C10.9688 7.39994 11.3465 7.72414 11.8125 7.72414ZM18 3.86207C18 4.23307 17.8373 4.57133 17.57 4.82759C17.8373 5.08384 18 5.4221 18 5.7931V8.2069C18 8.5779 17.8373 8.91616 17.57 9.17241C17.8373 9.42867 18 9.76693 18 10.1379V12.5517C18 13.3516 17.2445 14 16.3125 14H1.6875C0.755508 14 0 13.3516 0 12.5517V10.1379C0 9.76693 0.162738 9.42867 0.430031 9.17241C0.162738 8.91616 0 8.5779 0 8.2069V5.7931C0 5.4221 0.162738 5.08384 0.430031 4.82759C0.162738 4.57133 0 4.23307 0 3.86207V1.44828C0 0.648405 0.755508 0 1.6875 0H16.3125C17.2445 0 18 0.648405 18 1.44828V3.86207ZM1.125 3.86207C1.125 4.12825 1.37735 4.34483 1.6875 4.34483H16.3125C16.6226 4.34483 16.875 4.12825 16.875 3.86207V1.44828C16.875 1.18209 16.6226 0.965517 16.3125 0.965517H1.6875C1.37735 0.965517 1.125 1.18209 1.125 1.44828V3.86207ZM16.3125 5.31034H1.6875C1.37735 5.31034 1.125 5.52692 1.125 5.7931V8.2069C1.125 8.47308 1.37735 8.68966 1.6875 8.68966H16.3125C16.6226 8.68966 16.875 8.47308 16.875 8.2069V5.7931C16.875 5.52692 16.6226 5.31034 16.3125 5.31034ZM16.875 10.1379C16.875 9.87175 16.6226 9.65517 16.3125 9.65517H1.6875C1.37735 9.65517 1.125 9.87175 1.125 10.1379V12.5517C1.125 12.8179 1.37735 13.0345 1.6875 13.0345H16.3125C16.6226 13.0345 16.875 12.8179 16.875 12.5517V10.1379ZM14.0625 3.37931C14.5285 3.37931 14.9062 3.05511 14.9062 2.65517C14.9062 2.25524 14.5285 1.93103 14.0625 1.93103C13.5965 1.93103 13.2188 2.25524 13.2188 2.65517C13.2188 3.05511 13.5965 3.37931 14.0625 3.37931ZM11.8125 3.37931C12.2785 3.37931 12.6562 3.05511 12.6562 2.65517C12.6562 2.25524 12.2785 1.93103 11.8125 1.93103C11.3465 1.93103 10.9688 2.25524 10.9688 2.65517C10.9688 3.05511 11.3465 3.37931 11.8125 3.37931ZM14.0625 10.6207C13.5965 10.6207 13.2188 10.9449 13.2188 11.3448C13.2188 11.7448 13.5965 12.069 14.0625 12.069C14.5285 12.069 14.9062 11.7448 14.9062 11.3448C14.9062 10.9449 14.5285 10.6207 14.0625 10.6207ZM11.8125 10.6207C11.3465 10.6207 10.9688 10.9449 10.9688 11.3448C10.9688 11.7448 11.3465 12.069 11.8125 12.069C12.2785 12.069 12.6562 11.7448 12.6562 11.3448C12.6562 10.9449 12.2785 10.6207 11.8125 10.6207Z" fill="black"/>
</svg>
