<svg width="16" height="16" viewBox="0 0 16 16" fill="none" xmlns="http://www.w3.org/2000/svg">
<path d="M8.21191 1.25C11.9188 1.25 14.9619 4.25234 14.9619 8C14.9619 11.7278 11.9429 14.75 8.21191 14.75C4.48554 14.75 1.46191 11.7324 1.46191 8C1.46191 4.27491 4.48073 1.25 8.21191 1.25ZM8.21191 0.25C3.93201 0.25 0.461914 3.72134 0.461914 8C0.461914 12.2812 3.93201 15.75 8.21191 15.75C12.4918 15.75 15.9619 12.2812 15.9619 8C15.9619 3.72134 12.4918 0.25 8.21191 0.25ZM7.08691 11H7.46191V7.25H7.08691C6.87982 7.25 6.71191 7.08209 6.71191 6.875V6.625C6.71191 6.41791 6.87982 6.25 7.08691 6.25H8.58691C8.79401 6.25 8.96191 6.41791 8.96191 6.625V11H9.33691C9.54401 11 9.71191 11.1679 9.71191 11.375V11.625C9.71191 11.8321 9.54401 12 9.33691 12H7.08691C6.87982 12 6.71191 11.8321 6.71191 11.625V11.375C6.71191 11.1679 6.87982 11 7.08691 11ZM8.21191 3.5C7.65963 3.5 7.21191 3.94772 7.21191 4.5C7.21191 5.05228 7.65963 5.5 8.21191 5.5C8.7642 5.5 9.21191 5.05228 9.21191 4.5C9.21191 3.94772 8.7642 3.5 8.21191 3.5Z" fill="black"/>
</svg>
