<svg width="25" height="20" viewBox="0 0 25 20" fill="none" xmlns="http://www.w3.org/2000/svg">
<path d="M5.89948 0.00396729C5.94751 0.00501712 5.99538 0.0057321 6.04303 0.00787354C6.04428 0.00792948 6.04569 0.00879314 6.04694 0.0088501C6.07757 0.0103498 6.10826 0.0127171 6.13873 0.0147095C6.14362 0.0150092 6.1485 0.0153722 6.15338 0.015686C6.24216 0.0213684 6.33 0.0296982 6.41705 0.0401001C6.42056 0.0405198 6.42429 0.0406492 6.4278 0.0410767C6.45414 0.0444164 6.48063 0.0479835 6.5069 0.0518188C6.51082 0.0523754 6.5147 0.0532019 6.51862 0.053772C6.58741 0.063747 6.65528 0.0761281 6.72272 0.0899048C6.72816 0.0910208 6.73388 0.0916959 6.73932 0.0928345C6.77866 0.101039 6.81821 0.109637 6.85748 0.119202C6.86009 0.119852 6.86269 0.120508 6.8653 0.121155C6.90188 0.1304 6.93857 0.138851 6.97467 0.149475C6.98145 0.151401 6.98843 0.153294 6.99518 0.155334C7.00658 0.158613 7.01796 0.162677 7.02936 0.166077C7.03613 0.168222 7.04309 0.169808 7.04987 0.171936C7.05476 0.173529 7.05963 0.175198 7.06451 0.176819C7.0671 0.177658 7.06975 0.178886 7.07233 0.179749C7.11142 0.191965 7.15136 0.204031 7.19049 0.217834C7.18769 0.218643 7.18352 0.218998 7.18073 0.219788C7.24819 0.24579 7.31461 0.27456 7.37994 0.306702C7.38739 0.310358 7.39499 0.313704 7.4024 0.317444C7.46006 0.346573 7.5165 0.378709 7.57233 0.413147C7.58063 0.41826 7.58946 0.42256 7.59772 0.427795C7.65842 0.466334 7.71713 0.509282 7.77545 0.554749C7.78238 0.560144 7.78907 0.565852 7.79596 0.57135C7.85555 0.618928 7.91486 0.669145 7.97174 0.72467L8.13776 0.910217C8.19217 0.972912 8.24586 1.03612 8.29791 1.10065C8.40209 1.22948 8.50155 1.36227 8.59479 1.50006C8.77057 1.75596 8.99236 1.961 9.24225 2.12408C9.54223 2.31962 9.88294 2.4543 10.2403 2.53229C10.4721 2.57149 10.702 2.56975 10.9366 2.56842C10.9909 2.56854 11.0456 2.56927 11.1016 2.5694C11.2829 2.56968 11.4643 2.56888 11.6456 2.56842H12.879L14.211 2.5694C14.363 2.56964 14.5151 2.57014 14.6671 2.57037C14.7238 2.57046 14.7243 2.57028 14.7823 2.57037L16.0782 2.57135C16.1175 2.57138 16.1568 2.5723 16.1973 2.57233C16.8368 2.57278 17.4768 2.57167 18.1163 2.57135L20.0889 2.5733C20.4939 2.57423 20.8998 2.57528 21.3047 2.57428L22.2364 2.57526C22.3633 2.57552 22.4903 2.57495 22.6172 2.57428L23.1387 2.57526C23.1885 2.57462 23.2388 2.57396 23.2901 2.5733L23.4571 2.58307C23.4799 2.58544 23.5022 2.58961 23.5245 2.59283C23.555 2.5973 23.5855 2.60044 23.6153 2.60651C23.7859 2.64103 23.9425 2.70325 24.0909 2.7901C24.2101 2.85905 24.3247 2.94314 24.4356 3.04401C24.7188 3.34949 24.9865 3.73453 24.9874 4.16119V4.45416C24.9876 4.53464 24.9881 4.53508 24.9883 4.61725C24.9888 4.79788 24.9883 4.97861 24.9883 5.15924C24.9886 5.28855 24.989 5.41861 24.9893 5.54791C24.99 5.89977 24.9901 6.25172 24.9903 6.60358C24.9904 6.82347 24.991 7.04384 24.9913 7.26373C24.9919 7.87317 24.9921 8.4834 24.9922 9.09283V9.32916C24.9923 9.40823 24.9932 9.4874 24.9932 9.56647C24.9932 9.60562 24.9932 9.64528 24.9932 9.68561C24.9934 10.3215 24.9939 10.9579 24.9952 11.5938C24.9964 12.2473 24.9971 12.9013 24.9971 13.5547C24.9972 13.9214 24.9971 14.2886 24.9981 14.6553C24.999 15.0004 24.9995 15.3455 24.9991 15.6905C24.999 15.8169 24.9995 15.9439 25.0001 16.0704C25.0042 17.1408 24.9295 18.0405 24.1485 18.8546C24.0786 18.9216 24.0079 18.9832 23.9376 19.0411L23.8067 19.1544C23.7734 19.1826 23.7394 19.2112 23.7051 19.2403C23.7029 19.2335 23.7006 19.2266 23.6983 19.2198C23.4455 19.3906 23.1857 19.5098 22.9092 19.5899C22.8433 19.6303 22.7921 19.6533 22.7354 19.668C22.5678 19.7229 22.3988 19.7247 22.1954 19.7247C22.1334 19.7248 22.0713 19.7246 22.0079 19.7247C21.9169 19.7285 21.8239 19.7327 21.7286 19.7325C21.6459 19.7327 21.5632 19.7332 21.4805 19.7335C21.254 19.7341 21.0274 19.7336 20.8008 19.7335C20.5564 19.7334 20.3119 19.7339 20.0674 19.7344C19.5884 19.7353 19.109 19.7363 18.6299 19.7364C18.2406 19.7364 17.8513 19.7361 17.462 19.7364C16.3573 19.7373 15.2522 19.7384 14.1475 19.7383H13.7862C12.8204 19.7383 11.8545 19.7388 10.8887 19.7403C9.89658 19.7418 8.90432 19.7423 7.91217 19.7422C7.35531 19.7422 6.79813 19.7431 6.24127 19.7442C5.7671 19.7452 5.29259 19.7449 4.81842 19.7442C4.57688 19.7439 4.33535 19.7443 4.09381 19.7452H3.18854C2.28932 19.7514 1.51766 19.5101 0.853577 18.8848C0.187115 18.1793 0.0130116 17.4225 0.0137329 16.4864C0.0135753 16.4234 0.0129193 16.3599 0.0127563 16.295C0.0123769 16.1207 0.0127954 15.9458 0.0127563 15.7715C0.0126574 15.5834 0.0121366 15.3952 0.0117798 15.2071C0.01106 14.7955 0.0100608 14.3833 0.00982666 13.9717C0.00967976 13.7148 0.0100653 13.4572 0.00982666 13.2003C0.00917965 12.488 0.0080534 11.7757 0.00787354 11.0635V10.3702C0.00766372 9.62672 0.00715631 8.88317 0.00592041 8.13971C0.00466035 7.37562 0.00402922 6.61083 0.00396729 5.84674C0.00391854 5.41809 0.00297909 4.98926 0.00201416 4.56061C0.00119574 4.19573 0.001577 3.83076 0.00201416 3.46588C0.00222109 3.27985 0.00178379 3.09331 0.0010376 2.90729C0.000582566 2.77097 0.000879949 2.63451 0.0010376 2.49811H6.10352e-05V1.70123H0.0010376C0.000886566 1.69225 6.10352e-05 1.68291 6.10352e-05 1.67389C0.000257323 0.791526 0.72648 0.0699274 1.64752 0.00592041V6.10352e-05H5.89948V0.00396729Z" fill="#82ACD9"/>
<rect x="6.10352e-05" y="5.00006" width="25" height="15" rx="2.90109" fill="#BAD1E3"/>
<path d="M12.1868 11.1133L9.11644 16.4326L9.05297 16.5303C8.7168 16.9961 8.07589 17.1409 7.56762 16.8477C7.05939 16.5542 6.86359 15.9264 7.09887 15.4023L7.15258 15.2988L11.0393 8.56641C11.268 8.17074 11.6991 7.96624 12.1262 8.00586C12.105 8.00389 12.0839 8.00077 12.0627 8C12.4538 8.00072 12.8345 8.20339 13.0442 8.56641L16.9299 15.2988C17.243 15.8412 17.0572 16.5345 16.5149 16.8477C15.9726 17.1605 15.2791 16.9748 14.9661 16.4326L12.0412 11.3662L12.1868 11.1133ZM12.4758 8.3457C12.0405 8.09448 11.484 8.24351 11.2327 8.67871L7.34594 15.4102C7.09469 15.8454 7.24373 16.4029 7.67894 16.6543C8.11422 16.9055 8.67077 16.7555 8.92211 16.3203L12.8088 9.58887C13.0601 9.15357 12.9111 8.59703 12.4758 8.3457ZM13.1213 8.86328C13.1281 8.89076 13.1342 8.91836 13.1389 8.94629C13.175 9.16124 13.1502 9.38783 13.0559 9.59766L13.0979 9.49219C13.1456 9.34898 13.1629 9.20025 13.1526 9.05469C13.148 8.98999 13.1368 8.92605 13.1213 8.86328ZM12.6848 8.21484H12.6858H12.6848ZM12.4758 8.09473C12.4547 8.08544 12.4328 8.07821 12.4114 8.07031C12.4328 8.07822 12.4547 8.08543 12.4758 8.09473ZM12.3616 8.05273C12.3382 8.04537 12.3148 8.03899 12.2912 8.0332C12.3148 8.039 12.3382 8.04536 12.3616 8.05273ZM12.2434 8.02246C12.218 8.01739 12.1927 8.01307 12.1672 8.00977C12.1927 8.01307 12.2181 8.01738 12.2434 8.02246Z" fill="#82ACD9"/>
</svg>
