<svg width="25" height="20" viewBox="0 0 25 20" fill="none" xmlns="http://www.w3.org/2000/svg">
<path d="M5.89941 0.00390625C5.94777 0.00494749 5.99598 0.005649 6.04395 0.0078125L6.0459 0.00878906C6.07652 0.0102816 6.10723 0.0126583 6.1377 0.0146484C6.14153 0.0148831 6.14558 0.0153816 6.14941 0.015625C6.24017 0.0213692 6.32999 0.0293692 6.41895 0.0400391C6.42155 0.0403521 6.42415 0.0406983 6.42676 0.0410156C6.4482 0.0437306 6.46984 0.0466635 6.49121 0.0498047C6.57097 0.0608023 6.64959 0.0747731 6.72754 0.0908203C6.72917 0.0911553 6.7308 0.0914598 6.73242 0.0917969C6.77432 0.100456 6.81658 0.108947 6.8584 0.119141C6.86254 0.120177 6.86695 0.121039 6.87109 0.12207C6.90543 0.130821 6.93972 0.139445 6.97363 0.149414C6.98077 0.151445 6.98801 0.153124 6.99512 0.155273C7.00582 0.158346 7.01664 0.16185 7.02734 0.165039C7.04328 0.170074 7.05936 0.175337 7.0752 0.180664C7.11311 0.192556 7.1515 0.204393 7.18945 0.217773C7.18664 0.218555 7.18346 0.217965 7.18066 0.21875C7.24824 0.244785 7.31445 0.274447 7.37988 0.306641C7.38733 0.310293 7.39493 0.313647 7.40234 0.317383C7.46 0.346512 7.51644 0.378648 7.57227 0.413086C7.58072 0.418284 7.58924 0.423386 7.59766 0.428711C7.6521 0.463293 7.70528 0.500881 7.75781 0.541016C7.77708 0.555701 7.79643 0.570466 7.81543 0.585938C7.86843 0.62918 7.92086 0.674998 7.97168 0.724609L8.1377 0.910156C8.19211 0.972851 8.2458 1.03606 8.29785 1.10059C8.38307 1.20621 8.46387 1.31526 8.54199 1.42676C8.55912 1.4512 8.57699 1.47524 8.59375 1.5C8.98041 2.06318 9.5848 2.38919 10.2402 2.53223C10.4721 2.57143 10.7019 2.56969 10.9365 2.56836H12.8789L14.2109 2.56934C14.363 2.56958 14.515 2.57008 14.667 2.57031C14.724 2.5704 14.7241 2.57022 14.7822 2.57031L16.0781 2.57129C16.1174 2.57132 16.1568 2.57224 16.1973 2.57227C16.8368 2.57272 17.4767 2.5716 18.1162 2.57129L20.0889 2.57324C20.4938 2.57417 20.8988 2.57522 21.3037 2.57422H22.6172L23.1387 2.5752C23.1886 2.57456 23.2386 2.5739 23.29 2.57324L23.457 2.58301C23.4798 2.58537 23.5021 2.58956 23.5244 2.59277C23.555 2.59724 23.5855 2.60038 23.6152 2.60645C23.7859 2.64091 23.9424 2.70321 24.0908 2.79004C24.2101 2.85899 24.3246 2.94308 24.4355 3.04395C24.7187 3.34943 24.9864 3.73447 24.9873 4.16113V4.4541C24.9875 4.53457 24.988 4.53502 24.9883 4.61719C24.9887 4.79782 24.9882 4.97855 24.9883 5.15918C24.9885 5.28849 24.989 5.41855 24.9893 5.54785C24.99 5.89971 24.99 6.25166 24.9902 6.60352C24.9904 6.82341 24.991 7.04378 24.9912 7.26367C24.9919 7.87311 24.992 8.48334 24.9922 9.09277V9.3291C24.9922 9.40817 24.9931 9.48734 24.9932 9.56641C24.9932 9.60556 24.9932 9.64522 24.9932 9.68555C24.9934 10.3215 24.9939 10.9578 24.9951 11.5938C24.9964 12.2472 24.997 12.9012 24.9971 13.5547C24.9971 13.9214 24.9971 14.2886 24.998 14.6553C24.999 15.0003 24.9995 15.3454 24.999 15.6904C24.999 15.8169 24.9995 15.9439 25 16.0703C25.0042 17.1407 24.9294 18.0405 24.1484 18.8545C24.0785 18.9215 24.0079 18.9831 23.9375 19.041L23.8066 19.1543C23.7734 19.1825 23.7393 19.2112 23.7051 19.2402C23.7028 19.2334 23.7005 19.2265 23.6982 19.2197C23.4454 19.3906 23.1857 19.5097 22.9092 19.5898C22.8432 19.6302 22.792 19.6532 22.7354 19.668C22.5677 19.7229 22.3988 19.7247 22.1953 19.7246C22.1334 19.7247 22.0712 19.7245 22.0078 19.7246C21.9169 19.7284 21.8238 19.7326 21.7285 19.7324C21.6459 19.7326 21.5631 19.7331 21.4805 19.7334C21.2539 19.734 21.0273 19.7335 20.8008 19.7334C20.5563 19.7334 20.3118 19.7339 20.0674 19.7344C19.5884 19.7353 19.1089 19.7363 18.6299 19.7363C18.2406 19.7364 17.8512 19.736 17.4619 19.7363C16.3572 19.7373 15.2522 19.7384 14.1475 19.7383H13.7861C12.8203 19.7382 11.8545 19.7387 10.8887 19.7402C9.89652 19.7418 8.90426 19.7423 7.91211 19.7422C7.35525 19.7422 6.79807 19.743 6.24121 19.7441C5.76704 19.7451 5.29253 19.7449 4.81836 19.7441C4.57682 19.7438 4.33529 19.7442 4.09375 19.7451H3.18848C2.28926 19.7513 1.5176 19.5101 0.853516 18.8848C0.187054 18.1792 0.0129506 17.4224 0.0136719 16.4863C0.0135142 16.4233 0.0128582 16.3599 0.0126953 16.2949C0.0123159 16.1206 0.0127344 15.9458 0.0126953 15.7715C0.0125963 15.5834 0.0120756 15.3951 0.0117188 15.207C0.0109989 14.7955 0.00999978 14.3832 0.00976562 13.9717C0.00961873 13.7147 0.0100043 13.4572 0.00976562 13.2002C0.00911862 12.488 0.00799237 11.7757 0.0078125 11.0635V10.3701C0.00760269 9.62666 0.00709527 8.88311 0.00585938 8.13965C0.00459931 7.37556 0.00396818 6.61077 0.00390625 5.84668C0.00385751 5.41803 0.00291805 4.9892 0.00195312 4.56055C0.00113471 4.19567 0.00151596 3.8307 0.00195312 3.46582C0.00216005 3.27979 0.00172275 3.09325 0.000976562 2.90723C0.000521531 2.77091 0.000818914 2.63445 0.000976562 2.49805H0V1.70117H0.000976562C0.00082553 1.69219 0 1.68284 0 1.67383C0.000196288 0.791465 0.726419 0.0698664 1.64746 0.00585938V0H5.89941V0.00390625Z" fill="#82ACD9"/>
<rect y="5" width="25" height="15" rx="2.92318" fill="#BAD1E3"/>
<path fill-rule="evenodd" clip-rule="evenodd" d="M16.8874 14.4287L16.8895 14.425C16.9632 14.2934 17 14.1467 17 14C17 13.8511 16.962 13.7022 16.8861 13.569L13.9526 8.42528C13.8028 8.16255 13.5278 8.001 13.2305 8.001H11.2279C16.3457 8.00095 10.7696 8 10.7696 8C10.4722 8 10.1973 8.16157 10.0474 8.42433L7.11389 13.569C6.96204 13.8353 6.96204 14.1646 7.11389 14.431L8.33805 16.5778L8.34037 16.5818C8.49096 16.8409 8.76395 17 9.05898 17H14.9411C15.2384 17 15.5134 16.8384 15.6632 16.5757L16.8874 14.4287ZM7.59532 13.8563L10.5289 8.71163C10.5546 8.66658 10.5913 8.63045 10.6344 8.60599L11.6772 10.4346L8.57877 15.8684L7.59532 14.1436C7.5447 14.0549 7.5447 13.9451 7.59532 13.8563ZM9.96427 14.5702H16.1615L15.1818 16.2884C15.1318 16.376 15.0402 16.4298 14.9411 16.4298H9.05898C9.011 16.4298 8.96478 16.4172 8.92419 16.3942L9.96427 14.5702ZM11.9998 11.0003L10.2894 14H13.7104L11.9998 11.0003ZM11.2598 8.5712L14.3557 14H16.4426C16.4426 13.9504 16.43 13.9007 16.4047 13.8564L13.4712 8.71262C13.4212 8.62504 13.3296 8.5712 13.2305 8.5712H11.2598Z" fill="#82ACD9"/>
</svg>
