<svg width="16" height="21" viewBox="0 0 16 21" fill="none" xmlns="http://www.w3.org/2000/svg">
<path d="M13.4216 0H5.68652L0.529785 5.15674V18.0486C0.529785 19.4707 1.68602 20.627 3.10815 20.627H13.4216C14.8438 20.627 16 19.4707 16 18.0486V2.57837C16 1.15624 14.8438 0 13.4216 0ZM14.7108 18.0486C14.7108 18.7576 14.1307 19.3378 13.4216 19.3378H3.10815C2.3991 19.3378 1.81897 18.7576 1.81897 18.0486V5.69256L6.22234 1.28918H13.4216C14.1307 1.28918 14.7108 1.86932 14.7108 2.57837V18.0486ZM12.1324 6.44592H13.4216V2.57837H12.1324V6.44592ZM9.55408 6.44592H10.8433V2.57837H9.55408V6.44592ZM6.97571 6.44592H8.26489V2.57837H6.97571V6.44592Z" fill="black"/>
</svg>
