<svg width="22" height="22" viewBox="0 0 22 22" fill="none" xmlns="http://www.w3.org/2000/svg">
<path d="M22 1.37543C22 0.590391 21.3847 0 20.6873 0C20.5567 0 20.423 0.020625 20.2898 0.0648828L7.79539 4.18988C7.24926 4.37035 6.875 4.89844 6.875 5.5V16.017C6.1441 15.4683 5.18633 15.125 4.125 15.125C1.8468 15.125 0 16.6641 0 18.5625C0 20.4609 1.8468 22 4.125 22C6.4032 22 8.25 20.4609 8.25 18.5625V11L20.625 6.875V13.267C19.8941 12.7183 18.9363 12.375 17.875 12.375C15.5968 12.375 13.75 13.9141 13.75 15.8125C13.75 17.7109 15.5968 19.25 17.875 19.25C20.1532 19.25 22 17.7109 22 15.8125C22 15.8112 21.9996 15.8104 21.9996 15.8091L22 1.37543ZM4.125 20.625C2.63441 20.625 1.375 19.6805 1.375 18.5625C1.375 17.4445 2.63441 16.5 4.125 16.5C5.61559 16.5 6.875 17.4445 6.875 18.5625C6.875 19.6805 5.61559 20.625 4.125 20.625ZM20.625 5.42566L8.25 9.55066V5.5H8.22637V5.49527L20.625 1.40207V5.42566ZM17.875 17.875C16.3844 17.875 15.125 16.9305 15.125 15.8125C15.125 14.6945 16.3844 13.75 17.875 13.75C19.3656 13.75 20.625 14.6945 20.625 15.8125C20.625 16.9305 19.3656 17.875 17.875 17.875Z" fill="white"/>
</svg>
