<svg width="22" height="22" viewBox="0 0 22 22" fill="none" xmlns="http://www.w3.org/2000/svg">
<path d="M11 0C4.92339 0 0 4.92339 0 11C0 17.0766 4.92339 22 11 22C17.0766 22 22 17.0766 22 11C22 4.92339 17.0766 0 11 0ZM20.5806 11C20.5806 16.2649 16.3181 20.5806 11 20.5806C5.73508 20.5806 1.41935 16.3181 1.41935 11C1.41935 5.73508 5.68185 1.41935 11 1.41935C16.2649 1.41935 20.5806 5.68185 20.5806 11ZM13.9762 14.9165L10.3746 12.2996C10.2371 12.1976 10.1573 12.0379 10.1573 11.8694V4.79032C10.1573 4.49758 10.3968 4.25806 10.6895 4.25806H11.3105C11.6032 4.25806 11.8427 4.49758 11.8427 4.79032V11.2794L14.9698 13.5548C15.2093 13.7278 15.2581 14.0605 15.0851 14.3L14.7214 14.8012C14.5484 15.0363 14.2157 15.0895 13.9762 14.9165Z" fill="white"/>
</svg>
