<svg width="17" height="22" viewBox="0 0 17 22" fill="none" xmlns="http://www.w3.org/2000/svg">
<path d="M15.8941 4.2085L12.2891 0.603418C11.9023 0.216699 11.3781 -0.00244141 10.8324 -0.00244141H2.0625C0.923828 0.00185547 0 0.925683 0 2.06436V19.9394C0 21.078 0.923828 22.0019 2.0625 22.0019H14.4375C15.5762 22.0019 16.5 21.078 16.5 19.9394V5.66943C16.5 5.12373 16.2809 4.59521 15.8941 4.2085ZM14.923 5.18389C15.0133 5.27412 15.0734 5.38154 15.1035 5.50186H11V1.39834C11.1203 1.42842 11.2277 1.48857 11.318 1.57881L14.923 5.18389ZM14.4375 20.6269H2.0625C1.68438 20.6269 1.375 20.3175 1.375 19.9394V2.06436C1.375 1.68623 1.68438 1.37686 2.0625 1.37686H9.625V5.84561C9.625 6.41709 10.0848 6.87685 10.6562 6.87685H15.125V19.9394C15.125 20.3175 14.8156 20.6269 14.4375 20.6269Z" fill="white"/>
</svg>
