<svg width="18" height="21" viewBox="0 0 18 21" fill="none" xmlns="http://www.w3.org/2000/svg">
<path d="M16.3359 10.875L9.39844 17.8359C9.17813 18.0562 8.82187 18.0562 8.60156 17.8359L1.66406 10.875C1.44375 10.6547 1.44375 10.2984 1.66406 10.0781L1.99687 9.74531C2.21719 9.525 2.57344 9.525 2.79375 9.74531L8.20312 15.1828V0.5625C8.20312 0.253125 8.45625 0 8.76562 0H9.23438C9.54375 0 9.79688 0.253125 9.79688 0.5625V15.1828L15.2062 9.75C15.4266 9.52969 15.7828 9.52969 16.0031 9.75L16.3359 10.0828C16.5562 10.2984 16.5562 10.6547 16.3359 10.875ZM18 20.4375V20.0625C18 19.7531 17.7469 19.5 17.4375 19.5H0.5625C0.253125 19.5 0 19.7531 0 20.0625V20.4375C0 20.7469 0.253125 21 0.5625 21H17.4375C17.7469 21 18 20.7469 18 20.4375Z" fill="white"/>
</svg>
