<svg width="24" height="21" viewBox="0 0 24 21" fill="none" xmlns="http://www.w3.org/2000/svg">
<path d="M15.2016 1.5C15.3562 1.5 15.4969 1.59844 15.5531 1.74375L16.5891 4.5H21.75C22.1625 4.5 22.5 4.8375 22.5 5.25V18.75C22.5 19.1625 22.1625 19.5 21.75 19.5H2.25C1.8375 19.5 1.5 19.1625 1.5 18.75V5.25C1.5 4.8375 1.8375 4.5 2.25 4.5H7.41562L8.35781 1.9875C8.46562 1.69688 8.74687 1.5 9.06094 1.5H15.2016ZM15.2016 0H9.06094C8.12344 0 7.28437 0.58125 6.95625 1.45781L6.375 3H2.25C1.00781 3 0 4.00781 0 5.25V18.75C0 19.9922 1.00781 21 2.25 21H21.75C22.9922 21 24 19.9922 24 18.75V5.25C24 4.00781 22.9922 3 21.75 3H17.625L16.9547 1.21875C16.6828 0.482813 15.9844 0 15.2016 0ZM12 17.625C8.89688 17.625 6.375 15.1031 6.375 12C6.375 8.89688 8.89688 6.375 12 6.375C15.1031 6.375 17.625 8.89688 17.625 12C17.625 15.1031 15.1031 17.625 12 17.625ZM12 7.875C9.72656 7.875 7.875 9.72656 7.875 12C7.875 14.2734 9.72656 16.125 12 16.125C14.2734 16.125 16.125 14.2734 16.125 12C16.125 9.72656 14.2734 7.875 12 7.875Z" fill="white"/>
</svg>
