<svg width="22" height="21" viewBox="0 0 22 21" fill="none" xmlns="http://www.w3.org/2000/svg">
<path d="M16.1703 10.6947C16.1703 10.1266 16.6309 9.66598 17.1991 9.66598C17.7673 9.66598 18.2279 10.1266 18.2279 10.6947C18.2279 11.2629 17.7673 11.7235 17.1991 11.7235C16.6309 11.7235 16.1703 11.2629 16.1703 10.6947ZM14.4557 11.7235C15.0239 11.7235 15.4845 11.2629 15.4845 10.6947C15.4845 10.1266 15.0239 9.66598 14.4557 9.66598C13.8875 9.66598 13.4269 10.1266 13.4269 10.6947C13.4269 11.2629 13.8875 11.7235 14.4557 11.7235ZM22 6.23676C22 6.76383 21.8016 7.24439 21.4757 7.60844C21.8016 7.9725 22 8.45306 22 8.98013V12.4094C22 12.9364 21.8016 13.417 21.4757 13.781C21.8016 14.1451 22 14.6257 22 15.1527V18.582C22 19.7183 21.0788 20.6395 19.9425 20.6395H2.11051C0.974153 20.6395 0.0529785 19.7183 0.0529785 18.582V15.1527C0.0529785 14.6257 0.251402 14.1451 0.577307 13.781C0.251402 13.417 0.0529785 12.9364 0.0529785 12.4094V8.98013C0.0529785 8.45306 0.251402 7.9725 0.577307 7.60844C0.251402 7.24439 0.0529785 6.76383 0.0529785 6.23676V2.80753C0.0529785 1.67117 0.974153 0.75 2.11051 0.75H19.9425C21.0788 0.75 22 1.67117 22 2.80753V6.23676ZM1.42467 6.23676C1.42467 6.61491 1.73235 6.9226 2.11051 6.9226H19.9425C20.3206 6.9226 20.6283 6.61491 20.6283 6.23676V2.80753C20.6283 2.42938 20.3206 2.12169 19.9425 2.12169H2.11051C1.73235 2.12169 1.42467 2.42938 1.42467 2.80753V6.23676ZM19.9425 8.29429H2.11051C1.73235 8.29429 1.42467 8.60198 1.42467 8.98013V12.4094C1.42467 12.7875 1.73235 13.0952 2.11051 13.0952H19.9425C20.3206 13.0952 20.6283 12.7875 20.6283 12.4094V8.98013C20.6283 8.60198 20.3206 8.29429 19.9425 8.29429ZM20.6283 15.1527C20.6283 14.7746 20.3206 14.4669 19.9425 14.4669H2.11051C1.73235 14.4669 1.42467 14.7746 1.42467 15.1527V18.582C1.42467 18.9601 1.73235 19.2678 2.11051 19.2678H19.9425C20.3206 19.2678 20.6283 18.9601 20.6283 18.582V15.1527ZM17.1991 5.55091C17.7673 5.55091 18.2279 5.09032 18.2279 4.52214C18.2279 3.95397 17.7673 3.49338 17.1991 3.49338C16.6309 3.49338 16.1703 3.95397 16.1703 4.52214C16.1703 5.09032 16.6309 5.55091 17.1991 5.55091ZM14.4557 5.55091C15.0239 5.55091 15.4845 5.09032 15.4845 4.52214C15.4845 3.95397 15.0239 3.49338 14.4557 3.49338C13.8875 3.49338 13.4269 3.95397 13.4269 4.52214C13.4269 5.09032 13.8875 5.55091 14.4557 5.55091ZM17.1991 15.8386C16.6309 15.8386 16.1703 16.2992 16.1703 16.8673C16.1703 17.4355 16.6309 17.8961 17.1991 17.8961C17.7673 17.8961 18.2279 17.4355 18.2279 16.8673C18.2279 16.2992 17.7673 15.8386 17.1991 15.8386ZM14.4557 15.8386C13.8875 15.8386 13.4269 16.2992 13.4269 16.8673C13.4269 17.4355 13.8875 17.8961 14.4557 17.8961C15.0239 17.8961 15.4845 17.4355 15.4845 16.8673C15.4845 16.2992 15.0239 15.8386 14.4557 15.8386Z" fill="white"/>
</svg>
