<svg width="20" height="20" viewBox="0 0 20 20" fill="none" xmlns="http://www.w3.org/2000/svg">
<g clip-path="url(#clip0_192_1429)">
<path d="M19.75 9.375H10.5V6.25H13C13.5522 6.25 14 5.69023 14 5V1.25C14 0.559766 13.5522 0 13 0H7C6.44781 0 6 0.559766 6 1.25V5C6 5.69023 6.44781 6.25 7 6.25H9.5V9.375H0.25C0.111875 9.375 0 9.51484 0 9.6875V10.3125C0 10.4852 0.111875 10.625 0.25 10.625H4V13.75H2C1.44781 13.75 1 14.3098 1 15V18.75C1 19.4402 1.44781 20 2 20H7C7.55219 20 8 19.4402 8 18.75V15C8 14.3098 7.55219 13.75 7 13.75H5V10.625H15V13.75H13C12.4478 13.75 12 14.3098 12 15V18.75C12 19.4402 12.4478 20 13 20H18C18.5522 20 19 19.4402 19 18.75V15C19 14.3098 18.5522 13.75 18 13.75H16V10.625H19.75C19.8881 10.625 20 10.4852 20 10.3125V9.6875C20 9.51484 19.8881 9.375 19.75 9.375ZM7 15V18.75H2V15H7ZM7 5V1.25H13V5H7ZM18 15V18.75H13V15H18Z" fill="white"/>
</g>
<defs>
<clipPath id="clip0_192_1429">
<rect width="20" height="20" fill="white"/>
</clipPath>
</defs>
</svg>
