<svg width="24" height="16" viewBox="0 0 24 16" fill="none" xmlns="http://www.w3.org/2000/svg">
<path d="M1.05532 15.1192C0.936103 15.1192 0.836751 15.0795 0.757269 15C0.691035 14.9205 0.657917 14.8145 0.657917 14.6821V1.32918C0.657917 1.18347 0.691035 1.07087 0.757269 0.991386C0.823504 0.911905 0.909609 0.872164 1.01558 0.872164C1.13481 0.872164 1.22091 0.892035 1.2739 0.931776C1.34013 0.971516 1.40637 1.04437 1.4726 1.15035L11.0501 14.1654H10.613V1.30931C10.613 1.1636 10.6461 1.05762 10.7123 0.991386C10.7918 0.911905 10.8912 0.872164 11.0104 0.872164C11.1296 0.872164 11.2223 0.911905 11.2886 0.991386C11.3548 1.05762 11.3879 1.1636 11.3879 1.30931V14.6622C11.3879 14.8079 11.3548 14.9205 11.2886 15C11.2356 15.0795 11.1561 15.1192 11.0501 15.1192C10.9574 15.1192 10.8713 15.0927 10.7918 15.0397C10.7256 15 10.6593 14.9338 10.5931 14.841L1.01558 1.82594H1.43286V14.6821C1.43286 14.8145 1.39974 14.9205 1.33351 15C1.26728 15.0795 1.17455 15.1192 1.05532 15.1192ZM12.8468 15.1192C12.7276 15.1192 12.6283 15.0861 12.5488 15.0199C12.4825 14.9669 12.4428 14.9006 12.4296 14.8212C12.4296 14.7284 12.4627 14.6357 12.5289 14.543L17.576 7.70757V7.90628L12.8667 1.50802C12.7872 1.38879 12.7475 1.28282 12.7475 1.19009C12.7607 1.09736 12.8005 1.0245 12.8667 0.971516C12.9462 0.905282 13.0323 0.872164 13.125 0.872164C13.231 0.872164 13.3171 0.892035 13.3833 0.931776C13.4628 0.971516 13.5357 1.04437 13.6019 1.15035L18.1324 7.31017H17.8939L22.3647 1.15035C22.431 1.04437 22.4972 0.971516 22.5635 0.931776C22.6429 0.892035 22.7357 0.872164 22.8416 0.872164C22.9476 0.872164 23.0337 0.905282 23.1 0.971516C23.1662 1.0245 23.1993 1.09736 23.1993 1.19009C23.2125 1.28282 23.1794 1.38879 23.1 1.50802L18.3907 7.90628V7.70757L23.4377 14.543C23.504 14.6357 23.5305 14.7284 23.5172 14.8212C23.5172 14.9006 23.4775 14.9669 23.398 15.0199C23.3318 15.0861 23.239 15.1192 23.1198 15.1192C23.0403 15.1192 22.9542 15.0927 22.8615 15.0397C22.782 15 22.7092 14.9338 22.6429 14.841L17.7747 8.20433H18.192L13.3237 14.841C13.2575 14.9338 13.178 15 13.0853 15.0397C13.0058 15.0927 12.9263 15.1192 12.8468 15.1192Z" fill="white"/>
</svg>
