<svg width="19" height="22" viewBox="0 0 19 22" fill="none" xmlns="http://www.w3.org/2000/svg">
<path d="M12.5536 18.5625H13.2321C13.3221 18.5625 13.4084 18.5263 13.4721 18.4618C13.5357 18.3974 13.5714 18.3099 13.5714 18.2188V6.53125C13.5714 6.44008 13.5357 6.35265 13.4721 6.28818C13.4084 6.22372 13.3221 6.1875 13.2321 6.1875H12.5536C12.4636 6.1875 12.3773 6.22372 12.3137 6.28818C12.25 6.35265 12.2143 6.44008 12.2143 6.53125V18.2188C12.2143 18.3099 12.25 18.3974 12.3137 18.4618C12.3773 18.5263 12.4636 18.5625 12.5536 18.5625ZM5.76786 18.5625H6.44643C6.53641 18.5625 6.62271 18.5263 6.68634 18.4618C6.74997 18.3974 6.78571 18.3099 6.78571 18.2188V6.53125C6.78571 6.44008 6.74997 6.35265 6.68634 6.28818C6.62271 6.22372 6.53641 6.1875 6.44643 6.1875H5.76786C5.67787 6.1875 5.59157 6.22372 5.52795 6.28818C5.46432 6.35265 5.42857 6.44008 5.42857 6.53125V18.2188C5.42857 18.3099 5.46432 18.3974 5.52795 18.4618C5.59157 18.5263 5.67787 18.5625 5.76786 18.5625ZM18.6607 2.75H14.25L12.825 0.825C12.6354 0.568846 12.3895 0.360939 12.1068 0.217744C11.8242 0.0745493 11.5125 0 11.1964 0L7.80357 0C7.48754 0 7.17584 0.0745493 6.89317 0.217744C6.6105 0.360939 6.36462 0.568846 6.175 0.825L4.75 2.75H0.339286C0.249302 2.75 0.163003 2.78622 0.0993745 2.85068C0.0357461 2.91515 0 3.00258 0 3.09375L0 3.78125C0 3.87242 0.0357461 3.95985 0.0993745 4.02432C0.163003 4.08878 0.249302 4.125 0.339286 4.125H1.35714V19.9375C1.35714 20.4845 1.57162 21.0091 1.95339 21.3959C2.33516 21.7827 2.85295 22 3.39286 22H15.6071C16.147 22 16.6648 21.7827 17.0466 21.3959C17.4284 21.0091 17.6429 20.4845 17.6429 19.9375V4.125H18.6607C18.7507 4.125 18.837 4.08878 18.9006 4.02432C18.9643 3.95985 19 3.87242 19 3.78125V3.09375C19 3.00258 18.9643 2.91515 18.9006 2.85068C18.837 2.78622 18.7507 2.75 18.6607 2.75ZM7.26071 1.65C7.32415 1.56486 7.40616 1.49574 7.50033 1.44803C7.5945 1.40033 7.69828 1.37533 7.80357 1.375H11.1964C11.3017 1.37533 11.4055 1.40033 11.4997 1.44803C11.5938 1.49574 11.6759 1.56486 11.7393 1.65L12.5536 2.75H6.44643L7.26071 1.65ZM16.2857 19.9375C16.2857 20.1198 16.2142 20.2947 16.087 20.4236C15.9597 20.5526 15.7871 20.625 15.6071 20.625H3.39286C3.21289 20.625 3.04029 20.5526 2.91303 20.4236C2.78578 20.2947 2.71429 20.1198 2.71429 19.9375V4.125H16.2857V19.9375ZM9.16071 18.5625H9.83928C9.92927 18.5625 10.0156 18.5263 10.0792 18.4618C10.1428 18.3974 10.1786 18.3099 10.1786 18.2188V6.53125C10.1786 6.44008 10.1428 6.35265 10.0792 6.28818C10.0156 6.22372 9.92927 6.1875 9.83928 6.1875H9.16071C9.07073 6.1875 8.98443 6.22372 8.9208 6.28818C8.85717 6.35265 8.82143 6.44008 8.82143 6.53125V18.2188C8.82143 18.3099 8.85717 18.3974 8.9208 18.4618C8.98443 18.5263 9.07073 18.5625 9.16071 18.5625Z" fill="white"/>
</svg>
