<svg width="25" height="20" viewBox="0 0 25 20" fill="none" xmlns="http://www.w3.org/2000/svg">
<path d="M5.89941 0.00390625C5.94777 0.00494749 5.99598 0.005649 6.04395 0.0078125L6.0459 0.00878906C6.07654 0.0102823 6.10721 0.0126578 6.1377 0.0146484C6.14155 0.0148843 6.14556 0.0153802 6.14941 0.015625C6.24017 0.0213692 6.32999 0.0293692 6.41895 0.0400391C6.42155 0.0403521 6.42415 0.0406983 6.42676 0.0410156C6.44822 0.0437329 6.46981 0.0466603 6.49121 0.0498047C6.57097 0.0608023 6.64959 0.0747731 6.72754 0.0908203C6.72917 0.0911553 6.7308 0.0914598 6.73242 0.0917969C6.77434 0.100459 6.81656 0.108941 6.8584 0.119141C6.86256 0.120182 6.86693 0.121034 6.87109 0.12207C6.90543 0.130821 6.93972 0.139445 6.97363 0.149414C6.98077 0.151446 6.98801 0.153124 6.99512 0.155273C7.00584 0.158351 7.01662 0.161846 7.02734 0.165039C7.0433 0.17008 7.05934 0.17533 7.0752 0.180664C7.11313 0.192562 7.15148 0.204385 7.18945 0.217773C7.18664 0.218561 7.18346 0.217971 7.18066 0.21875C7.24824 0.244785 7.31445 0.274447 7.37988 0.306641C7.38733 0.310293 7.39493 0.313647 7.40234 0.317383C7.46 0.346512 7.51644 0.378648 7.57227 0.413086C7.58072 0.418284 7.58925 0.423386 7.59766 0.428711C7.6521 0.463293 7.70528 0.500881 7.75781 0.541016C7.77708 0.555702 7.79643 0.570465 7.81543 0.585938C7.86843 0.62918 7.92086 0.674998 7.97168 0.724609L8.1377 0.910156C8.30069 1.09796 8.45386 1.29327 8.59375 1.5C8.98041 2.06318 9.5848 2.38919 10.2402 2.53223C10.4721 2.57143 10.7019 2.56969 10.9365 2.56836H12.8789C13.3228 2.56792 13.7671 2.56858 14.2109 2.56934C14.363 2.56958 14.515 2.57008 14.667 2.57031C14.724 2.5704 14.7241 2.57022 14.7822 2.57031L16.0781 2.57129C16.1174 2.57132 16.1568 2.57224 16.1973 2.57227C16.8368 2.57272 17.4767 2.5716 18.1162 2.57129L20.0889 2.57324C20.4938 2.57417 20.8988 2.57522 21.3037 2.57422H22.6172L23.1387 2.5752C23.1886 2.57456 23.2386 2.5739 23.29 2.57324L23.457 2.58301C23.4798 2.58537 23.5021 2.58956 23.5244 2.59277C23.555 2.59724 23.5855 2.60038 23.6152 2.60645C23.7858 2.64092 23.9424 2.7032 24.0908 2.79004C24.2101 2.85899 24.3246 2.94308 24.4355 3.04395C24.7187 3.34943 24.9864 3.73447 24.9873 4.16113V4.4541C24.9875 4.53457 24.988 4.53502 24.9883 4.61719C24.9887 4.79782 24.9882 4.97855 24.9883 5.15918C24.9885 5.28849 24.989 5.41855 24.9893 5.54785C24.99 5.89971 24.99 6.25166 24.9902 6.60352C24.9904 6.82341 24.991 7.04378 24.9912 7.26367C24.9919 7.87311 24.992 8.48334 24.9922 9.09277V9.3291C24.9922 9.40817 24.9931 9.48734 24.9932 9.56641C24.9932 9.60556 24.9932 9.64522 24.9932 9.68555C24.9934 10.3215 24.9939 10.9578 24.9951 11.5938C24.9964 12.2472 24.997 12.9012 24.9971 13.5547C24.9971 13.9214 24.9971 14.2886 24.998 14.6553C24.999 15.0003 24.9995 15.3454 24.999 15.6904C24.999 15.8169 24.9995 15.9439 25 16.0703C25.0042 17.1407 24.9294 18.0405 24.1484 18.8545C24.0785 18.9215 24.0079 18.9831 23.9375 19.041L23.8066 19.1543C23.7734 19.1825 23.7393 19.2112 23.7051 19.2402C23.7028 19.2334 23.7005 19.2265 23.6982 19.2197C23.4454 19.3906 23.1857 19.5097 22.9092 19.5898C22.8432 19.6302 22.792 19.6532 22.7354 19.668C22.5677 19.7229 22.3988 19.7247 22.1953 19.7246C22.1334 19.7247 22.0712 19.7245 22.0078 19.7246C21.9169 19.7284 21.8238 19.7326 21.7285 19.7324C21.6459 19.7326 21.5631 19.7331 21.4805 19.7334C21.2539 19.734 21.0273 19.7335 20.8008 19.7334C20.5563 19.7334 20.3118 19.7339 20.0674 19.7344C19.5884 19.7353 19.1089 19.7363 18.6299 19.7363C18.2406 19.7364 17.8512 19.736 17.4619 19.7363C16.3572 19.7373 15.2522 19.7384 14.1475 19.7383H13.7861C12.8203 19.7382 11.8545 19.7387 10.8887 19.7402C9.89652 19.7418 8.90426 19.7423 7.91211 19.7422C7.35525 19.7422 6.79807 19.743 6.24121 19.7441C5.76704 19.7451 5.29253 19.7449 4.81836 19.7441C4.57682 19.7438 4.33529 19.7442 4.09375 19.7451H3.18848C2.28926 19.7513 1.5176 19.5101 0.853516 18.8848C0.187054 18.1792 0.0129506 17.4224 0.0136719 16.4863C0.0135142 16.4233 0.0128582 16.3599 0.0126953 16.2949C0.0123159 16.1206 0.0127344 15.9458 0.0126953 15.7715C0.0125963 15.5834 0.0120756 15.3951 0.0117188 15.207C0.0109989 14.7955 0.00999978 14.3832 0.00976562 13.9717C0.00961873 13.7147 0.0100043 13.4572 0.00976562 13.2002C0.00911862 12.488 0.00799237 11.7757 0.0078125 11.0635V10.3701C0.00760269 9.62666 0.00709527 8.88311 0.00585938 8.13965C0.00459931 7.37556 0.00396818 6.61077 0.00390625 5.84668C0.00385751 5.41803 0.00291805 4.9892 0.00195312 4.56055C0.00113471 4.19567 0.00151596 3.8307 0.00195312 3.46582C0.00216005 3.27979 0.00172275 3.09325 0.000976562 2.90723C0.000521531 2.77091 0.000818914 2.63445 0.000976562 2.49805H0V1.70117H0.000976562C0.00082553 1.69219 0 1.68284 0 1.67383C0.000196288 0.791465 0.726419 0.0698664 1.64746 0.00585938V0H5.89941V0.00390625Z" fill="#82ACD9"/>
<rect y="5" width="25" height="15" rx="2.92318" fill="#BAD1E3"/>
<path d="M13.2857 15.5938H13.5714C13.6093 15.5938 13.6457 15.5789 13.6724 15.5526C13.6992 15.5262 13.7143 15.4904 13.7143 15.4531V10.6719C13.7143 10.6346 13.6992 10.5988 13.6724 10.5724C13.6457 10.5461 13.6093 10.5312 13.5714 10.5312H13.2857C13.2478 10.5312 13.2115 10.5461 13.1847 10.5724C13.1579 10.5988 13.1429 10.6346 13.1429 10.6719V15.4531C13.1429 15.4904 13.1579 15.5262 13.1847 15.5526C13.2115 15.5789 13.2478 15.5938 13.2857 15.5938ZM10.4286 15.5938H10.7143C10.7522 15.5938 10.7885 15.5789 10.8153 15.5526C10.8421 15.5262 10.8571 15.4904 10.8571 15.4531V10.6719C10.8571 10.6346 10.8421 10.5988 10.8153 10.5724C10.7885 10.5461 10.7522 10.5312 10.7143 10.5312H10.4286C10.3907 10.5312 10.3543 10.5461 10.3276 10.5724C10.3008 10.5988 10.2857 10.6346 10.2857 10.6719V15.4531C10.2857 15.4904 10.3008 15.5262 10.3276 15.5526C10.3543 15.5789 10.3907 15.5938 10.4286 15.5938ZM15.8571 9.125H14L13.4 8.3375C13.3202 8.23271 13.2166 8.14766 13.0976 8.08908C12.9786 8.0305 12.8474 8 12.7143 8H11.2857C11.1526 8 11.0214 8.0305 10.9024 8.08908C10.7834 8.14766 10.6798 8.23271 10.6 8.3375L10 9.125H8.14286C8.10497 9.125 8.06863 9.13982 8.04184 9.16619C8.01505 9.19256 8 9.22833 8 9.26562V9.54688C8 9.58417 8.01505 9.61994 8.04184 9.64631C8.06863 9.67268 8.10497 9.6875 8.14286 9.6875H8.57143V16.1562C8.57143 16.38 8.66173 16.5946 8.82248 16.7529C8.98323 16.9111 9.20124 17 9.42857 17H14.5714C14.7988 17 15.0168 16.9111 15.1775 16.7529C15.3383 16.5946 15.4286 16.38 15.4286 16.1562V9.6875H15.8571C15.895 9.6875 15.9314 9.67268 15.9582 9.64631C15.9849 9.61994 16 9.58417 16 9.54688V9.26562C16 9.22833 15.9849 9.19256 15.9582 9.16619C15.9314 9.13982 15.895 9.125 15.8571 9.125ZM11.0571 8.675C11.0839 8.64017 11.1184 8.61189 11.158 8.59238C11.1977 8.57286 11.2414 8.56264 11.2857 8.5625H12.7143C12.7586 8.56264 12.8023 8.57286 12.842 8.59238C12.8816 8.61189 12.9161 8.64017 12.9429 8.675L13.2857 9.125H10.7143L11.0571 8.675ZM14.8571 16.1562C14.8571 16.2308 14.827 16.3024 14.7735 16.3551C14.7199 16.4079 14.6472 16.4375 14.5714 16.4375H9.42857C9.3528 16.4375 9.28012 16.4079 9.22654 16.3551C9.17296 16.3024 9.14286 16.2308 9.14286 16.1562V9.6875H14.8571V16.1562ZM11.8571 15.5938H12.1429C12.1807 15.5938 12.2171 15.5789 12.2439 15.5526C12.2707 15.5262 12.2857 15.4904 12.2857 15.4531V10.6719C12.2857 10.6346 12.2707 10.5988 12.2439 10.5724C12.2171 10.5461 12.1807 10.5312 12.1429 10.5312H11.8571C11.8193 10.5312 11.7829 10.5461 11.7561 10.5724C11.7293 10.5988 11.7143 10.6346 11.7143 10.6719V15.4531C11.7143 15.4904 11.7293 15.5262 11.7561 15.5526C11.7829 15.5789 11.8193 15.5938 11.8571 15.5938Z" fill="#82ACD9"/>
</svg>
