<svg width="25" height="20" viewBox="0 0 25 20" fill="none" xmlns="http://www.w3.org/2000/svg">
<path d="M5.89941 0.00390625C5.94745 0.00495608 5.99532 0.00567107 6.04297 0.0078125C6.04418 0.00786652 6.04567 0.0087341 6.04688 0.00878906C6.07747 0.0102884 6.10824 0.0126597 6.13867 0.0146484C6.14356 0.0149482 6.14844 0.0153111 6.15332 0.015625C6.2421 0.0213073 6.32994 0.0296372 6.41699 0.0400391C6.42046 0.0404536 6.42427 0.0405935 6.42773 0.0410156C6.45404 0.0443498 6.48061 0.0479295 6.50684 0.0517578C6.51076 0.0523144 6.51464 0.0531409 6.51855 0.0537109C6.58735 0.063686 6.65522 0.076067 6.72266 0.0898438C6.72806 0.0909512 6.73387 0.0916438 6.73926 0.0927734C6.77856 0.100969 6.81819 0.109587 6.85742 0.119141C6.86003 0.119791 6.86263 0.120447 6.86523 0.121094C6.90182 0.130339 6.93851 0.13879 6.97461 0.149414C6.98135 0.151329 6.98841 0.153246 6.99512 0.155273C7.00647 0.158545 7.01794 0.162629 7.0293 0.166016C7.03607 0.16816 7.04303 0.169746 7.0498 0.171875C7.0547 0.173468 7.05957 0.175137 7.06445 0.176758C7.067 0.177584 7.06973 0.178838 7.07227 0.179688C7.11136 0.191902 7.1513 0.20397 7.19043 0.217773C7.18758 0.218594 7.1835 0.218926 7.18066 0.219727C7.24813 0.245729 7.31455 0.274499 7.37988 0.306641C7.38733 0.310297 7.39493 0.313643 7.40234 0.317383C7.46 0.346512 7.51644 0.378648 7.57227 0.413086C7.58057 0.418199 7.5894 0.422498 7.59766 0.427734C7.65835 0.466273 7.71707 0.509221 7.77539 0.554688C7.78232 0.560083 7.78901 0.565791 7.7959 0.571289C7.85549 0.618867 7.9148 0.669084 7.97168 0.724609L8.1377 0.910156C8.30069 1.09796 8.45483 1.29327 8.59473 1.5C8.69145 1.64081 8.80158 1.76689 8.92285 1.87891C9.28659 2.21458 9.74891 2.425 10.2402 2.53223C10.4721 2.57143 10.7019 2.56969 10.9365 2.56836C10.9909 2.56848 11.0456 2.56921 11.1016 2.56934C11.2829 2.56961 11.4642 2.56882 11.6455 2.56836H12.8789C13.3228 2.56792 13.7671 2.56858 14.2109 2.56934C14.363 2.56958 14.515 2.57008 14.667 2.57031C14.724 2.5704 14.7241 2.57022 14.7822 2.57031L16.0781 2.57129H18.1162L20.0889 2.57324C20.4938 2.57417 20.8998 2.57522 21.3047 2.57422L22.2363 2.5752C22.3633 2.57546 22.4902 2.57489 22.6172 2.57422L23.1387 2.5752C23.1883 2.57456 23.2389 2.5739 23.29 2.57324H23.291C23.384 2.57456 23.4729 2.58345 23.5586 2.59766C23.5772 2.60077 23.5959 2.60272 23.6143 2.60645C23.6335 2.61032 23.652 2.61655 23.6709 2.62109C23.7031 2.62888 23.7353 2.6358 23.7666 2.64551C23.845 2.66979 23.9198 2.70187 23.9932 2.73828C24.1484 2.81469 24.2948 2.91591 24.4355 3.04395C24.7187 3.34943 24.9864 3.73447 24.9873 4.16113V4.4541C24.9875 4.53457 24.988 4.53502 24.9883 4.61719C24.9887 4.79782 24.9882 4.97855 24.9883 5.15918C24.9885 5.28849 24.989 5.41855 24.9893 5.54785C24.99 5.89971 24.99 6.25166 24.9902 6.60352C24.9904 6.82341 24.991 7.04378 24.9912 7.26367C24.9919 7.87311 24.992 8.48334 24.9922 9.09277V9.3291C24.9922 9.40817 24.9931 9.48734 24.9932 9.56641C24.9932 9.60556 24.9932 9.64522 24.9932 9.68555C24.9934 10.3215 24.9939 10.9578 24.9951 11.5938C24.9964 12.2472 24.997 12.9012 24.9971 13.5547C24.9971 13.9214 24.9971 14.2886 24.998 14.6553C24.999 15.0003 24.9995 15.3454 24.999 15.6904C24.999 15.8169 24.9995 15.9439 25 16.0703C25.0042 17.1407 24.9294 18.0405 24.1484 18.8545C24.0785 18.9215 24.0079 18.9831 23.9375 19.041L23.8066 19.1543C23.7734 19.1825 23.7393 19.2112 23.7051 19.2402C23.7028 19.2334 23.7005 19.2265 23.6982 19.2197C23.4454 19.3906 23.1857 19.5097 22.9092 19.5898C22.8432 19.6302 22.792 19.6532 22.7354 19.668C22.5677 19.7229 22.3988 19.7247 22.1953 19.7246C22.1334 19.7247 22.0712 19.7245 22.0078 19.7246C21.9169 19.7284 21.8238 19.7326 21.7285 19.7324C21.6459 19.7326 21.5631 19.7331 21.4805 19.7334C21.2539 19.734 21.0273 19.7335 20.8008 19.7334C20.5563 19.7334 20.3118 19.7339 20.0674 19.7344C19.5884 19.7353 19.1089 19.7363 18.6299 19.7363C18.2406 19.7364 17.8512 19.736 17.4619 19.7363C16.3572 19.7373 15.2522 19.7384 14.1475 19.7383H13.7861C12.8203 19.7382 11.8545 19.7387 10.8887 19.7402C9.89652 19.7418 8.90426 19.7423 7.91211 19.7422C7.35525 19.7422 6.79807 19.743 6.24121 19.7441C5.76704 19.7451 5.29253 19.7449 4.81836 19.7441C4.57682 19.7438 4.33529 19.7442 4.09375 19.7451H3.18848C2.28926 19.7513 1.5176 19.5101 0.853516 18.8848C0.187054 18.1792 0.0129506 17.4224 0.0136719 16.4863C0.0135142 16.4233 0.0128582 16.3599 0.0126953 16.2949C0.0123159 16.1206 0.0127344 15.9458 0.0126953 15.7715C0.0125963 15.5834 0.0120756 15.3951 0.0117188 15.207C0.0109989 14.7955 0.00999978 14.3832 0.00976562 13.9717C0.00961873 13.7147 0.0100043 13.4572 0.00976562 13.2002C0.00911862 12.488 0.00799237 11.7757 0.0078125 11.0635V10.3701C0.00760269 9.62666 0.00709527 8.88311 0.00585938 8.13965C0.00459931 7.37556 0.00396818 6.61077 0.00390625 5.84668C0.00385751 5.41803 0.00291805 4.9892 0.00195312 4.56055C0.00113471 4.19567 0.00151596 3.8307 0.00195312 3.46582C0.00216005 3.27979 0.00172275 3.09325 0.000976562 2.90723C0.000521531 2.77091 0.000818914 2.63445 0.000976562 2.49805H0V1.70117H0.000976562C0.00082553 1.69219 0 1.68284 0 1.67383C0.000196288 0.791465 0.726419 0.0698664 1.64746 0.00585938V0H5.89941V0.00390625Z" fill="#82ACD9"/>
<rect y="5" width="25" height="15" rx="2.92318" fill="#BAD1E3"/>
<path d="M18.2221 8.75C18.0714 8.75 17.9182 8.79219 17.7796 8.88359L15.1129 10.5219V9.12031C15.1129 8.50156 14.5489 8 13.8536 8H6.25925C5.56399 8 5 8.50156 5 9.12031V15.8797C5 16.4984 5.56399 17 6.25925 17H13.8536C14.5489 17 15.1129 16.4984 15.1129 15.8797V14.4781L17.7772 16.1164C17.9158 16.2102 18.0714 16.25 18.2196 16.25C18.6232 16.25 19 15.9453 19 15.5117V9.48828C19.0024 9.05469 18.6256 8.75 18.2221 8.75V8.75ZM14.3349 15.8797C14.3349 16.0813 14.1137 16.25 13.8536 16.25H6.25925C5.99913 16.25 5.77791 16.0813 5.77791 15.8797V9.12031C5.77791 8.91875 5.99913 8.75 6.25925 8.75H13.8536C14.1137 8.75 14.3349 8.91875 14.3349 9.12031V15.8797ZM18.2245 15.5117L18.1953 15.4813L15.1129 13.5875V11.4102L18.2245 9.5V15.5117Z" fill="#82ACD9"/>
</svg>
