<svg width="27" height="18" viewBox="0 0 27 18" fill="none" xmlns="http://www.w3.org/2000/svg">
<path d="M25.4997 1.50026C25.209 1.50026 24.9137 1.58465 24.6464 1.76749L19.5034 5.04462V2.24101C19.5034 1.0033 18.4157 0 17.0748 0H2.42854C1.08769 0 0 1.0033 0 2.24101V15.7621C0 16.9998 1.08769 18.0031 2.42854 18.0031H17.0748C18.4157 18.0031 19.5034 16.9998 19.5034 15.7621V12.9585L24.6418 16.2356C24.909 16.4231 25.209 16.5028 25.495 16.5028C26.2733 16.5028 27 15.8934 27 15.026V2.97708C27.0047 2.10974 26.278 1.50026 25.4997 1.50026ZM18.0031 15.7621C18.0031 16.1653 17.5765 16.5028 17.0748 16.5028H2.42854C1.9269 16.5028 1.50026 16.1653 1.50026 15.7621V2.24101C1.50026 1.83782 1.9269 1.50026 2.42854 1.50026H17.0748C17.5765 1.50026 18.0031 1.83782 18.0031 2.24101V15.7621ZM25.5044 15.026L25.4481 14.9651L19.5034 11.1769V6.82149L25.5044 3.00052V15.026Z" fill="white"/>
</svg>
