<svg width="51" height="47" viewBox="0 0 51 47" fill="none" xmlns="http://www.w3.org/2000/svg">
<rect x="0.5" y="0.5" width="50" height="46" rx="4.5" fill="#F1A02E" stroke="#E4E4E4"/>
<path d="M10.9414 14H6.17188V5.43359H10.9414V6.3125H7.16797V9.08398H10.7246V9.95117H7.16797V13.1211H10.9414V14ZM14.1181 5.43359C15.2236 5.43359 16.0302 5.65039 16.538 6.08398C17.0498 6.51367 17.3056 7.13086 17.3056 7.93555C17.3056 8.29883 17.2451 8.64453 17.124 8.97266C17.0068 9.29688 16.8154 9.58398 16.5498 9.83398C16.2841 10.0801 15.9345 10.2754 15.5009 10.4199C15.0712 10.5605 14.5439 10.6309 13.9189 10.6309H12.8759V14H11.8798V5.43359H14.1181ZM14.0244 6.2832H12.8759V9.77539H13.8076C14.3545 9.77539 14.8095 9.7168 15.1728 9.59961C15.54 9.48242 15.8154 9.29297 15.999 9.03125C16.1826 8.76562 16.2744 8.41406 16.2744 7.97656C16.2744 7.40625 16.0927 6.98242 15.7295 6.70508C15.3662 6.42383 14.7978 6.2832 14.0244 6.2832ZM22.9726 11.7207C22.9726 12.2285 22.8456 12.6621 22.5917 13.0215C22.3417 13.377 21.9902 13.6484 21.537 13.8359C21.0839 14.0234 20.5507 14.1172 19.9374 14.1172C19.6132 14.1172 19.3066 14.1016 19.0175 14.0703C18.7284 14.0391 18.4628 13.9941 18.2206 13.9355C17.9784 13.877 17.7655 13.8047 17.582 13.7188V12.7637C17.8749 12.8848 18.2323 12.998 18.6542 13.1035C19.0761 13.2051 19.5175 13.2559 19.9784 13.2559C20.4081 13.2559 20.7714 13.1992 21.0683 13.0859C21.3652 12.9688 21.5898 12.8027 21.7421 12.5879C21.8984 12.3691 21.9765 12.1074 21.9765 11.8027C21.9765 11.5098 21.912 11.2656 21.7831 11.0703C21.6542 10.8711 21.4394 10.6914 21.1386 10.5312C20.8417 10.3672 20.4355 10.1934 19.9198 10.0098C19.5566 9.88086 19.2362 9.74023 18.9589 9.58789C18.6816 9.43164 18.4491 9.25586 18.2616 9.06055C18.0741 8.86523 17.9316 8.63867 17.8339 8.38086C17.7402 8.12305 17.6933 7.82812 17.6933 7.49609C17.6933 7.03906 17.8085 6.64844 18.039 6.32422C18.2734 5.99609 18.5956 5.74609 19.0058 5.57422C19.4198 5.39844 19.8945 5.31055 20.4296 5.31055C20.8866 5.31055 21.3085 5.35352 21.6952 5.43945C22.0859 5.52539 22.4433 5.64062 22.7675 5.78516L22.457 6.64062C22.1484 6.51172 21.8202 6.4043 21.4726 6.31836C21.1288 6.23242 20.7734 6.18945 20.4062 6.18945C20.039 6.18945 19.7284 6.24414 19.4745 6.35352C19.2245 6.45898 19.0331 6.60938 18.9003 6.80469C18.7675 7 18.7011 7.23242 18.7011 7.50195C18.7011 7.80273 18.7636 8.05273 18.8886 8.25195C19.0175 8.45117 19.2206 8.62891 19.498 8.78516C19.7792 8.9375 20.1503 9.09766 20.6112 9.26562C21.1152 9.44922 21.5429 9.64453 21.8945 9.85156C22.246 10.0547 22.5136 10.3047 22.6972 10.6016C22.8808 10.8945 22.9726 11.2676 22.9726 11.7207Z" fill="white"/>
<path d="M34 28.5C35.1047 28.5 36 27.6047 36 26.5C36 25.3953 35.1047 24.5 34 24.5C33.0691 24.5 32.2938 25.1388 32.0706 26H28.5V25C28.5 24.4478 28.0522 24 27.5 24H24.5C23.9478 24 23.5 24.4478 23.5 25V26H19.9294C19.7062 25.1388 18.9309 24.5 18 24.5C16.8953 24.5 16 25.3953 16 26.5C16 27.6047 16.8953 28.5 18 28.5C18.9309 28.5 19.7062 27.8612 19.9294 27H23.4547C20.9356 27.9847 19.2319 30.3059 19.04 33H18C17.4478 33 17 33.4478 17 34V37C17 37.5522 17.4478 38 18 38H21C21.5522 38 22 37.5522 22 37V34C22 33.4478 21.5522 33 21 33H20.0397C20.2197 30.8309 21.5416 28.9519 23.5109 28.0547C23.5409 28.58 23.9672 29 24.5 29H27.5C28.0328 29 28.4591 28.58 28.4891 28.0547C30.4584 28.9522 31.7803 30.8309 31.9603 33H31C30.4478 33 30 33.4478 30 34V37C30 37.5522 30.4478 38 31 38H34C34.5522 38 35 37.5522 35 37V34C35 33.4478 34.5522 33 34 33H32.9603C32.7687 30.3059 31.0647 27.9847 28.5456 27H32.0709C32.2938 27.8612 33.0691 28.5 34 28.5ZM21 37H18V34H21V37ZM18 27.5C17.4488 27.5 17 27.0512 17 26.5C17 25.9488 17.4488 25.5 18 25.5C18.5512 25.5 19 25.9488 19 26.5C19 27.0512 18.5512 27.5 18 27.5ZM27.5 28H24.5V25H27.5V28ZM34 37H31V34H34V37ZM34 25.5C34.5513 25.5 35 25.9488 35 26.5C35 27.0512 34.5513 27.5 34 27.5C33.4487 27.5 33 27.0512 33 26.5C33 25.9488 33.4487 25.5 34 25.5Z" fill="white"/>
</svg>
