<svg width="51" height="47" viewBox="0 0 51 47" fill="none" xmlns="http://www.w3.org/2000/svg">
<rect x="0.5" y="0.5" width="50" height="46" rx="4.5" fill="#C4C4C4" stroke="#E4E4E4"/>
<path d="M24.1465 32.4316V31.9746C24.1465 31.5059 24.1904 31.1045 24.2783 30.7705C24.3662 30.4307 24.5186 30.1143 24.7354 29.8213C24.958 29.5283 25.2656 29.2178 25.6582 28.8896C26.1152 28.5088 26.4756 28.1865 26.7393 27.9229C27.0088 27.6533 27.2021 27.3838 27.3193 27.1143C27.4365 26.8447 27.4951 26.5195 27.4951 26.1387C27.4951 25.5293 27.2988 25.0635 26.9062 24.7412C26.5137 24.4131 25.96 24.249 25.2451 24.249C24.665 24.249 24.1494 24.3223 23.6982 24.4688C23.2471 24.6152 22.8135 24.791 22.3975 24.9961L21.8877 23.8184C22.3682 23.5664 22.8896 23.3613 23.4521 23.2031C24.0146 23.0449 24.6416 22.9658 25.333 22.9658C26.4639 22.9658 27.3398 23.2471 27.9609 23.8096C28.582 24.3662 28.8926 25.1338 28.8926 26.1123C28.8926 26.6572 28.8047 27.123 28.6289 27.5098C28.4531 27.8906 28.2041 28.2422 27.8818 28.5645C27.5596 28.8809 27.1787 29.2178 26.7393 29.5752C26.3525 29.9033 26.0566 30.1934 25.8516 30.4453C25.6465 30.6914 25.5059 30.9463 25.4297 31.21C25.3535 31.4678 25.3154 31.7783 25.3154 32.1416V32.4316H24.1465ZM23.7598 35.0859C23.7598 34.6758 23.8564 34.3857 24.0498 34.2158C24.2432 34.04 24.4922 33.9521 24.7969 33.9521C25.084 33.9521 25.3271 34.04 25.5264 34.2158C25.7314 34.3857 25.834 34.6758 25.834 35.0859C25.834 35.4902 25.7314 35.7861 25.5264 35.9736C25.3271 36.1553 25.084 36.2461 24.7969 36.2461C24.4922 36.2461 24.2432 36.1553 24.0498 35.9736C23.8564 35.7861 23.7598 35.4902 23.7598 35.0859Z" fill="white"/>
</svg>
