<svg width="51" height="47" viewBox="0 0 51 47" fill="none" xmlns="http://www.w3.org/2000/svg">
<rect x="0.5" y="0.5" width="50" height="46" rx="4.5" fill="#F57900" stroke="#E4E4E4"/>
<path d="M11.8906 14H10.7598L8.44531 10.2266L6.0957 14H5.03516L7.88867 9.53516L5.23438 5.43359H6.3418L8.48047 8.84961L10.6309 5.43359H11.6855L9.03711 9.51758L11.8906 14ZM15.917 14L13.04 6.41797H12.9931C13.0087 6.57812 13.0224 6.77344 13.0341 7.00391C13.0459 7.23438 13.0556 7.48633 13.0634 7.75977C13.0712 8.0293 13.0752 8.30469 13.0752 8.58594V14H12.1494V5.43359H13.6259L16.3388 12.5586H16.3798L19.1337 5.43359H20.5986V14H19.6142V8.51562C19.6142 8.26172 19.6181 8.00781 19.6259 7.75391C19.6337 7.49609 19.6435 7.25391 19.6552 7.02734C19.667 6.79688 19.6787 6.59766 19.6904 6.42969H19.6435L16.7314 14H15.917ZM21.9823 14V5.43359H22.9784V13.1094H26.7812V14H21.9823Z" fill="white"/>
<path d="M23.6617 33.8643L15.2066 30.1201V29.2852L23.6617 25.1016V26.4023L16.7886 29.6455L23.6617 32.5723V33.8643ZM27.3032 32.5723L34.185 29.6631L27.3032 26.4023V25.1016L35.7582 29.2852V30.1201L27.3032 33.8643V32.5723Z" fill="white"/>
</svg>
