<svg width="25" height="25" viewBox="0 0 25 25" fill="none" xmlns="http://www.w3.org/2000/svg">
<path d="M22.3214 0H2.67857C1.19978 0 0 1.19978 0 2.67857V22.3214C0 23.8002 1.19978 25 2.67857 25H22.3214C23.8002 25 25 23.8002 25 22.3214V2.67857C25 1.19978 23.8002 0 22.3214 0ZM23.2143 22.3214C23.2143 22.8125 22.8125 23.2143 22.3214 23.2143H2.67857C2.1875 23.2143 1.78571 22.8125 1.78571 22.3214V2.67857C1.78571 2.1875 2.1875 1.78571 2.67857 1.78571H22.3214C22.8125 1.78571 23.2143 2.1875 23.2143 2.67857V22.3214ZM19.4699 4.22433C18.5993 3.35379 17.1875 3.35379 16.3114 4.22433L4.01786 16.5179L3.57701 20.5022C3.51562 21.0379 3.96763 21.4844 4.50335 21.4286L8.48214 20.9821L20.7757 8.68862C21.6462 7.81808 21.6462 6.40625 20.7757 5.53013L19.4699 4.22433V4.22433ZM7.66183 19.2746L5.47991 19.5145L5.71987 17.3326L14.7991 8.25335L16.7355 10.1897L7.66183 19.2746V19.2746ZM19.5145 7.42746L18.0078 8.93415L16.0714 6.99777L17.5781 5.49107C17.7511 5.31808 18.0357 5.31808 18.2087 5.49107L19.5145 6.79688C19.6875 6.96987 19.6875 7.25446 19.5145 7.42746V7.42746Z" fill="black"/>
</svg>
