<svg width="50" height="50" viewBox="0 0 50 50" fill="none" xmlns="http://www.w3.org/2000/svg">
<circle cx="25" cy="25" r="24.375" fill="#D03926"/>
<path fill-rule="evenodd" clip-rule="evenodd" d="M39.8827 17.1226C39.9701 17.4346 40.0167 17.7622 40.0167 18.1V31.9C40.0167 34.0171 38.1885 35.7333 35.9333 35.7333H13.0667C10.8115 35.7333 8.98334 34.0171 8.98334 31.9V18.1C8.98334 15.9829 10.8115 14.2667 13.0667 14.2667H35.9333C37.2133 14.2667 38.3558 14.8195 39.1045 15.6848C39.4644 16.1008 39.7333 16.589 39.8827 17.1226ZM13.0667 15.8H35.9333C36.7627 15.8 37.4958 16.1869 37.9391 16.7788L27.3874 26.6845C25.7928 28.1815 23.2073 28.1815 21.6127 26.6845L11.061 16.7788C11.5043 16.1868 12.2373 15.8 13.0667 15.8ZM10.6167 18.5301V31.9C10.6167 33.1703 11.7136 34.2 13.0667 34.2H35.9333C37.2864 34.2 38.3833 33.1703 38.3833 31.9V18.5302L28.5423 27.7687C26.3098 29.8645 22.6903 29.8645 20.4578 27.7687L10.6167 18.5301Z" fill="white"/>
</svg>
