<svg width="51" height="47" viewBox="0 0 51 47" fill="none" xmlns="http://www.w3.org/2000/svg">
<rect x="0.5" y="0.5" width="50" height="46" rx="4.5" fill="#00AEEF" stroke="#E4E4E4"/>
<path d="M12.9746 9.63477C12.9746 10.5996 12.7988 11.4062 12.4473 12.0547C12.0957 12.6992 11.5859 13.1855 10.918 13.5137C10.2539 13.8379 9.44727 14 8.49805 14H6.17188V5.43359H8.75586C9.62695 5.43359 10.377 5.59375 11.0059 5.91406C11.6348 6.23047 12.1191 6.70117 12.459 7.32617C12.8027 7.94727 12.9746 8.7168 12.9746 9.63477ZM11.9258 9.66992C11.9258 8.90039 11.7969 8.26562 11.5391 7.76562C11.2852 7.26562 10.9102 6.89453 10.4141 6.65234C9.92188 6.40625 9.31836 6.2832 8.60352 6.2832H7.16797V13.1445H8.38086C9.56055 13.1445 10.4453 12.8535 11.0352 12.2715C11.6289 11.6895 11.9258 10.8223 11.9258 9.66992ZM21.3486 9.70508C21.3486 10.3652 21.2646 10.9668 21.0966 11.5098C20.9287 12.0488 20.6787 12.5137 20.3466 12.9043C20.0185 13.291 19.6103 13.5898 19.122 13.8008C18.6337 14.0117 18.0673 14.1172 17.4228 14.1172C16.7587 14.1172 16.1787 14.0117 15.6826 13.8008C15.1904 13.5898 14.7802 13.2891 14.4521 12.8984C14.1279 12.5078 13.8837 12.041 13.7197 11.498C13.5595 10.9551 13.4795 10.3535 13.4795 9.69336C13.4795 8.81836 13.624 8.05078 13.913 7.39062C14.2021 6.73047 14.6396 6.2168 15.2255 5.84961C15.8154 5.48242 16.5537 5.29883 17.4404 5.29883C18.288 5.29883 19.0009 5.48047 19.5791 5.84375C20.1611 6.20703 20.6005 6.71875 20.8974 7.37891C21.1982 8.03516 21.3486 8.81055 21.3486 9.70508ZM14.5283 9.70508C14.5283 10.4316 14.6318 11.0605 14.8388 11.5918C15.0459 12.123 15.3623 12.5332 15.788 12.8223C16.2177 13.1113 16.7627 13.2559 17.4228 13.2559C18.0869 13.2559 18.6298 13.1113 19.0517 12.8223C19.4775 12.5332 19.792 12.123 19.9951 11.5918C20.1982 11.0605 20.2998 10.4316 20.2998 9.70508C20.2998 8.59961 20.0673 7.73633 19.6025 7.11523C19.1416 6.49023 18.4209 6.17773 17.4404 6.17773C16.7763 6.17773 16.2295 6.32031 15.7998 6.60547C15.3701 6.89062 15.0498 7.29688 14.8388 7.82422C14.6318 8.34766 14.5283 8.97461 14.5283 9.70508ZM25.9609 6.18945C25.4882 6.18945 25.0624 6.27148 24.6835 6.43555C24.3085 6.5957 23.9882 6.83008 23.7226 7.13867C23.4609 7.44336 23.2597 7.8125 23.1191 8.24609C22.9784 8.67969 22.9081 9.16797 22.9081 9.71094C22.9081 10.4297 23.0195 11.0547 23.2421 11.5859C23.4687 12.1133 23.8046 12.5215 24.2499 12.8105C24.6991 13.0996 25.2597 13.2441 25.9316 13.2441C26.3144 13.2441 26.6737 13.2129 27.0097 13.1504C27.3495 13.084 27.6796 13.002 27.9999 12.9043V13.7715C27.6874 13.8887 27.3593 13.9746 27.0155 14.0293C26.6718 14.0879 26.2636 14.1172 25.7909 14.1172C24.9198 14.1172 24.1913 13.9375 23.6054 13.5781C23.0234 13.2148 22.5859 12.7031 22.2929 12.043C22.0038 11.3828 21.8593 10.6035 21.8593 9.70508C21.8593 9.05664 21.9491 8.46484 22.1288 7.92969C22.3124 7.39062 22.578 6.92578 22.9257 6.53516C23.2773 6.14453 23.707 5.84375 24.2148 5.63281C24.7265 5.41797 25.3124 5.31055 25.9726 5.31055C26.4062 5.31055 26.8241 5.35352 27.2265 5.43945C27.6288 5.52539 27.9921 5.64844 28.3163 5.80859L27.9179 6.65234C27.6445 6.52734 27.3437 6.41992 27.0155 6.33008C26.6913 6.23633 26.3398 6.18945 25.9609 6.18945Z" fill="white"/>
<path d="M27 24.1875V24.9375C27 24.9872 26.9802 25.0349 26.9451 25.0701C26.9099 25.1052 26.8622 25.125 26.8125 25.125H18.1875C18.1378 25.125 18.0901 25.1052 18.0549 25.0701C18.0198 25.0349 18 24.9872 18 24.9375V24.1875C18 24.1378 18.0198 24.0901 18.0549 24.0549C18.0901 24.0198 18.1378 24 18.1875 24H26.8125C26.8622 24 26.9099 24.0198 26.9451 24.0549C26.9802 24.0901 27 24.1378 27 24.1875ZM18.1875 29.125H31.8125C31.8622 29.125 31.9099 29.1052 31.9451 29.0701C31.9802 29.0349 32 28.9872 32 28.9375V28.1875C32 28.1378 31.9802 28.0901 31.9451 28.0549C31.9099 28.0198 31.8622 28 31.8125 28H18.1875C18.1378 28 18.0901 28.0198 18.0549 28.0549C18.0198 28.0901 18 28.1378 18 28.1875V28.9375C18 28.9872 18.0198 29.0349 18.0549 29.0701C18.0901 29.1052 18.1378 29.125 18.1875 29.125ZM18.1875 37.125H31.8125C31.8622 37.125 31.9099 37.1052 31.9451 37.0701C31.9802 37.0349 32 36.9872 32 36.9375V36.1875C32 36.1378 31.9802 36.0901 31.9451 36.0549C31.9099 36.0198 31.8622 36 31.8125 36H18.1875C18.1378 36 18.0901 36.0198 18.0549 36.0549C18.0198 36.0901 18 36.1378 18 36.1875V36.9375C18 36.9872 18.0198 37.0349 18.0549 37.0701C18.0901 37.1052 18.1378 37.125 18.1875 37.125ZM26.8125 32H18.1875C18.1378 32 18.0901 32.0198 18.0549 32.0549C18.0198 32.0901 18 32.1378 18 32.1875V32.9375C18 32.9872 18.0198 33.0349 18.0549 33.0701C18.0901 33.1052 18.1378 33.125 18.1875 33.125H26.8125C26.8622 33.125 26.9099 33.1052 26.9451 33.0701C26.9802 33.0349 27 32.9872 27 32.9375V32.1875C27 32.1378 26.9802 32.0901 26.9451 32.0549C26.9099 32.0198 26.8622 32 26.8125 32Z" fill="white"/>
</svg>
