<svg width="51" height="47" viewBox="0 0 51 47" fill="none" xmlns="http://www.w3.org/2000/svg">
<rect x="0.5" y="0.5" width="50" height="46" rx="4.5" fill="#619E00" stroke="#E4E4E4"/>
<path d="M8.41016 5.43359C9.51562 5.43359 10.3223 5.65039 10.8301 6.08398C11.3418 6.51367 11.5977 7.13086 11.5977 7.93555C11.5977 8.29883 11.5371 8.64453 11.416 8.97266C11.2988 9.29688 11.1074 9.58398 10.8418 9.83398C10.5762 10.0801 10.2266 10.2754 9.79297 10.4199C9.36328 10.5605 8.83594 10.6309 8.21094 10.6309H7.16797V14H6.17188V5.43359H8.41016ZM8.31641 6.2832H7.16797V9.77539H8.09961C8.64648 9.77539 9.10156 9.7168 9.46484 9.59961C9.83203 9.48242 10.1074 9.29297 10.291 9.03125C10.4746 8.76562 10.5664 8.41406 10.5664 7.97656C10.5664 7.40625 10.3848 6.98242 10.0215 6.70508C9.6582 6.42383 9.08984 6.2832 8.31641 6.2832ZM18.9228 14H17.9267V9.96289H13.4267V14H12.4306V5.43359H13.4267V9.08398H17.9267V5.43359H18.9228V14ZM22.5566 5.43359C23.662 5.43359 24.4687 5.65039 24.9765 6.08398C25.4882 6.51367 25.7441 7.13086 25.7441 7.93555C25.7441 8.29883 25.6835 8.64453 25.5624 8.97266C25.4452 9.29688 25.2538 9.58398 24.9882 9.83398C24.7226 10.0801 24.373 10.2754 23.9394 10.4199C23.5097 10.5605 22.9823 10.6309 22.3573 10.6309H21.3144V14H20.3183V5.43359H22.5566ZM22.4628 6.2832H21.3144V9.77539H22.246C22.7929 9.77539 23.248 9.7168 23.6112 9.59961C23.9784 9.48242 24.2538 9.29297 24.4374 9.03125C24.621 8.76562 24.7128 8.41406 24.7128 7.97656C24.7128 7.40625 24.5312 6.98242 24.1679 6.70508C23.8046 6.42383 23.2362 6.2832 22.4628 6.2832Z" fill="white"/>
<path d="M22.3604 33.8643L13.9053 30.1201V29.2852L22.3604 25.1016V26.4023L15.4873 29.6455L22.3604 32.5723V33.8643ZM28.268 23.1504L23.4868 36H22.0454L26.8354 23.1504H28.268ZM27.9354 32.5723L34.8173 29.6631L27.9354 26.4023V25.1016L36.3905 29.2852V30.1201L27.9354 33.8643V32.5723Z" fill="white"/>
</svg>
