<svg width="51" height="47" viewBox="0 0 51 47" fill="none" xmlns="http://www.w3.org/2000/svg">
<rect x="0.5" y="0.5" width="50" height="46" rx="4.5" fill="#C4C4C4" stroke="#E4E4E4"/>
<path d="M27 24.1875V24.9375C27 24.9872 26.9802 25.0349 26.9451 25.0701C26.9099 25.1052 26.8622 25.125 26.8125 25.125H18.1875C18.1378 25.125 18.0901 25.1052 18.0549 25.0701C18.0198 25.0349 18 24.9872 18 24.9375V24.1875C18 24.1378 18.0198 24.0901 18.0549 24.0549C18.0901 24.0198 18.1378 24 18.1875 24H26.8125C26.8622 24 26.9099 24.0198 26.9451 24.0549C26.9802 24.0901 27 24.1378 27 24.1875ZM18.1875 29.125H31.8125C31.8622 29.125 31.9099 29.1052 31.9451 29.0701C31.9802 29.0349 32 28.9872 32 28.9375V28.1875C32 28.1378 31.9802 28.0901 31.9451 28.0549C31.9099 28.0198 31.8622 28 31.8125 28H18.1875C18.1378 28 18.0901 28.0198 18.0549 28.0549C18.0198 28.0901 18 28.1378 18 28.1875V28.9375C18 28.9872 18.0198 29.0349 18.0549 29.0701C18.0901 29.1052 18.1378 29.125 18.1875 29.125ZM18.1875 37.125H31.8125C31.8622 37.125 31.9099 37.1052 31.9451 37.0701C31.9802 37.0349 32 36.9872 32 36.9375V36.1875C32 36.1378 31.9802 36.0901 31.9451 36.0549C31.9099 36.0198 31.8622 36 31.8125 36H18.1875C18.1378 36 18.0901 36.0198 18.0549 36.0549C18.0198 36.0901 18 36.1378 18 36.1875V36.9375C18 36.9872 18.0198 37.0349 18.0549 37.0701C18.0901 37.1052 18.1378 37.125 18.1875 37.125ZM26.8125 32H18.1875C18.1378 32 18.0901 32.0198 18.0549 32.0549C18.0198 32.0901 18 32.1378 18 32.1875V32.9375C18 32.9872 18.0198 33.0349 18.0549 33.0701C18.0901 33.1052 18.1378 33.125 18.1875 33.125H26.8125C26.8622 33.125 26.9099 33.1052 26.9451 33.0701C26.9802 33.0349 27 32.9872 27 32.9375V32.1875C27 32.1378 26.9802 32.0901 26.9451 32.0549C26.9099 32.0198 26.8622 32 26.8125 32Z" fill="white"/>
</svg>
