<svg viewBox="0 0 24 24" xmlns="http://www.w3.org/2000/svg">
  <defs><linearGradient id="bg" x1="12" y1="0" x2="12" y2="24" gradientUnits="userSpaceOnUse"><stop offset="0" stop-color="#4B5B7A"/><stop offset="1" stop-color="#1A2540"/></linearGradient></defs>
  <g data-layer="background"><rect width="24" height="24" rx="5.4" fill="url(#bg)"/></g>
  <g data-layer="symbol"><rect x="4.5" y="6" width="15" height="12" rx="1" fill="#FFFFFF"/><g fill="#1A2540"><rect x="5.5" y="7" width="1" height="1.2" rx="0.2"/><rect x="5.5" y="9" width="1" height="1.2" rx="0.2"/><rect x="5.5" y="11" width="1" height="1.2" rx="0.2"/><rect x="5.5" y="13" width="1" height="1.2" rx="0.2"/><rect x="5.5" y="15" width="1" height="1.2" rx="0.2"/><rect x="17.5" y="7" width="1" height="1.2" rx="0.2"/><rect x="17.5" y="9" width="1" height="1.2" rx="0.2"/><rect x="17.5" y="11" width="1" height="1.2" rx="0.2"/><rect x="17.5" y="13" width="1" height="1.2" rx="0.2"/><rect x="17.5" y="15" width="1" height="1.2" rx="0.2"/></g><line x1="7" y1="10" x2="17" y2="10" stroke="#4B5B7A" stroke-width="0.4"/><line x1="7" y1="14" x2="17" y2="14" stroke="#4B5B7A" stroke-width="0.4"/></g>
</svg>