<svg viewBox="0 0 24 24" xmlns="http://www.w3.org/2000/svg">
  <defs><linearGradient id="bg" x1="12" y1="0" x2="12" y2="24" gradientUnits="userSpaceOnUse"><stop offset="0" stop-color="#FF7B95"/><stop offset="1" stop-color="#C9162C"/></linearGradient></defs>
  <g data-layer="background"><rect width="24" height="24" rx="5.4" fill="url(#bg)"/></g>
  <g data-layer="symbol"><path d="M 12 18.5 C 12 18.5 4.5 14 4.5 9.5 C 4.5 7.5 6 6 8 6 C 9.2 6 10.2 6.6 12 8 C 13.8 6.6 14.8 6 16 6 C 18 6 19.5 7.5 19.5 9.5 C 19.5 14 12 18.5 12 18.5 Z" fill="#FFFFFF"/><polyline points="6.5,11.5 9,11.5 10,9.5 11,13.5 12,10 13.4,12.5 14.5,11.5 17.5,11.5" fill="none" stroke="#C9162C" stroke-width="0.5" stroke-linecap="round" stroke-linejoin="round"/></g>
</svg>