<svg viewBox="0 0 24 24" xmlns="http://www.w3.org/2000/svg">
  <defs><linearGradient id="bg" x1="12" y1="0" x2="12" y2="24" gradientUnits="userSpaceOnUse"><stop offset="0" stop-color="#5BE082"/><stop offset="1" stop-color="#00A852"/></linearGradient></defs>
  <g data-layer="background"><rect width="24" height="24" rx="5.4" fill="url(#bg)"/></g>
  <g data-layer="symbol" transform="translate(3.5 3.5) scale(1.06)" fill="#FFFFFF">
    <path d="M3.654 1.328a.678.678 0 0 0-1.015-.063L1.605 2.3c-.483.484-.661 1.169-.45 1.77a17.568 17.568 0 0 0 4.168 6.608 17.569 17.569 0 0 0 6.608 4.168c.601.211 1.286.033 1.77-.45l1.034-1.034a.678.678 0 0 0-.063-1.015l-2.307-1.794a.678.678 0 0 0-.58-.122l-2.19.547a1.745 1.745 0 0 1-1.657-.459L5.482 8.062a1.745 1.745 0 0 1-.46-1.657l.548-2.19a.678.678 0 0 0-.122-.58L3.654 1.328z"/>
  </g>
</svg>
