<svg viewBox="0 0 1024 1024" xmlns="http://www.w3.org/2000/svg">
  <defs>
    <linearGradient id="bg" x1="512" y1="0" x2="512" y2="1024" gradientUnits="userSpaceOnUse">
      <stop offset="0" stop-color="#B5B8C0"/>
      <stop offset="1" stop-color="#6B6F7A"/>
    </linearGradient>
  </defs>
  <g data-layer="background">
    <rect width="1024" height="1024" rx="230" ry="230" fill="url(#bg)"/>
    <rect x="1.5" y="1.5" width="1021" height="1021" rx="228.5" ry="228.5" fill="none" stroke="#FFFFFF" stroke-opacity="0.18" stroke-width="3"/>
  </g>
  <g data-layer="symbol">
    <g transform="translate(512 512)" fill="#FFFFFF">
      <rect x="-50" y="-340" width="100" height="120" rx="14"/>
      <rect x="-50" y="-340" width="100" height="120" rx="14" transform="rotate(45)"/>
      <rect x="-50" y="-340" width="100" height="120" rx="14" transform="rotate(90)"/>
      <rect x="-50" y="-340" width="100" height="120" rx="14" transform="rotate(135)"/>
      <rect x="-50" y="-340" width="100" height="120" rx="14" transform="rotate(180)"/>
      <rect x="-50" y="-340" width="100" height="120" rx="14" transform="rotate(225)"/>
      <rect x="-50" y="-340" width="100" height="120" rx="14" transform="rotate(270)"/>
      <rect x="-50" y="-340" width="100" height="120" rx="14" transform="rotate(315)"/>
      <circle cx="0" cy="0" r="260"/>
      <circle cx="0" cy="0" r="100" fill="#6B6F7A"/>
    </g>
  </g>
</svg>