<svg width="19" height="19" viewBox="0 0 19 19" fill="none" xmlns="http://www.w3.org/2000/svg">
<path d="M18.102 0.894564L14.3614 0.0299265C13.8159 -0.0962438 13.2555 0.185784 13.0329 0.701598L11.3073 4.72791C11.1032 5.1992 11.2405 5.75583 11.6376 6.08239L13.6378 7.71889C12.3761 10.2868 10.2868 12.3798 7.71518 13.6415L6.07868 11.6413C5.75212 11.2442 5.19549 11.1069 4.7242 11.311L0.701598 13.0366C0.185784 13.2593 -0.0962438 13.8159 0.0299265 14.3614L0.890853 18.0983C1.01331 18.6289 1.48088 19 2.02267 19C11.3815 19 19 11.4224 19 2.02267C19 1.48088 18.6289 1.01331 18.102 0.894564ZM2.04494 17.8125L1.19144 14.1165L5.17693 12.4095L7.38491 15.111C11.2294 13.3075 13.3112 11.2183 15.1073 7.38862L12.4057 5.18064L14.1128 1.19515L17.8088 2.04865C17.8014 10.7507 10.747 17.8014 2.04494 17.8125Z" fill="black"/>
</svg>
