<svg width="49" height="49" viewBox="0 0 49 49" fill="none" xmlns="http://www.w3.org/2000/svg">
<circle cx="24.375" cy="24.375" r="24.375" fill="#564E45"/>
<path d="M24.1562 21.1211C25.4323 21.1211 26.3796 21.4076 26.998 21.9805C27.6165 22.5534 27.9258 23.4681 27.9258 24.7246V32H26.7441L26.4316 30.418H26.3535C26.054 30.8086 25.7415 31.1374 25.416 31.4043C25.0905 31.6647 24.7129 31.8633 24.2832 32C23.86 32.1302 23.3392 32.1953 22.7207 32.1953C22.0697 32.1953 21.4902 32.0814 20.9824 31.8535C20.4811 31.6257 20.084 31.2806 19.791 30.8184C19.5046 30.3561 19.3613 29.7702 19.3613 29.0605C19.3613 27.9928 19.7845 27.1725 20.6309 26.5996C21.4772 26.0267 22.7663 25.7142 24.498 25.6621L26.3438 25.584V24.9297C26.3438 24.0052 26.1452 23.3574 25.748 22.9863C25.3509 22.6152 24.791 22.4297 24.0684 22.4297C23.5085 22.4297 22.9746 22.5111 22.4668 22.6738C21.959 22.8366 21.4772 23.0286 21.0215 23.25L20.5234 22.0195C21.0052 21.7721 21.5586 21.5605 22.1836 21.3848C22.8086 21.209 23.4661 21.1211 24.1562 21.1211ZM26.3242 26.7266L24.6934 26.7949C23.3587 26.847 22.418 27.0651 21.8711 27.4492C21.3242 27.8333 21.0508 28.377 21.0508 29.0801C21.0508 29.6921 21.2363 30.1445 21.6074 30.4375C21.9785 30.7305 22.4701 30.877 23.082 30.877C24.0326 30.877 24.8105 30.6133 25.416 30.0859C26.0215 29.5586 26.3242 28.7676 26.3242 27.7129V26.7266ZM23.3262 16.6777C23.4824 16.9772 23.6745 17.3125 23.9023 17.6836C24.1367 18.0482 24.3809 18.4062 24.6348 18.7578C24.8952 19.1029 25.1328 19.3991 25.3477 19.6465V19.8809H24.2441C24.0098 19.6921 23.7526 19.4674 23.4727 19.207C23.1992 18.9466 22.9258 18.6732 22.6523 18.3867C22.3789 18.0938 22.1315 17.8171 21.9102 17.5566C21.6888 17.2897 21.5163 17.0618 21.3926 16.873V16.6777H23.3262Z" fill="white"/>
</svg>
