<svg width="50" height="49" viewBox="0 0 50 49" fill="none" xmlns="http://www.w3.org/2000/svg">
<circle cx="25" cy="24.375" r="24.375" fill="#4244C6"/>
<path fill-rule="evenodd" clip-rule="evenodd" d="M33.3524 19.0571C33.5418 19.4358 33.3883 19.8963 33.0096 20.0857L25.3429 23.919C24.9642 24.1084 24.5037 23.9549 24.3143 23.5762C24.1249 23.1975 24.2784 22.7369 24.6572 22.5476L32.3238 18.7142C32.7026 18.5249 33.1631 18.6784 33.3524 19.0571Z" fill="white"/>
<path fill-rule="evenodd" clip-rule="evenodd" d="M31.4521 9.11939C31.8372 9.29543 32.0067 9.75032 31.8306 10.1354L25.6973 23.5521C25.5212 23.9372 25.0664 24.1066 24.6813 23.9306C24.2962 23.7545 24.1267 23.2997 24.3027 22.9146L30.4361 9.49791C30.6121 9.11282 31.067 8.94335 31.4521 9.11939Z" fill="white"/>
<path fill-rule="evenodd" clip-rule="evenodd" d="M25 24.7667C25.8468 24.7667 26.5333 24.0802 26.5333 23.2333C26.5333 22.3865 25.8468 21.7 25 21.7C24.1532 21.7 23.4667 22.3865 23.4667 23.2333C23.4667 24.0802 24.1532 24.7667 25 24.7667Z" fill="white"/>
<path d="M25 7.13333C24.5766 7.13333 24.2333 7.47658 24.2333 7.9C24.2333 8.32342 24.5766 8.66666 25 8.66666C25.4234 8.66666 25.7667 8.32342 25.7667 7.9C25.7667 7.47658 25.4234 7.13333 25 7.13333Z" fill="white"/>
<path d="M25 39.3333C24.5766 39.3333 24.2333 39.6766 24.2333 40.1C24.2333 40.5234 24.5766 40.8667 25 40.8667C25.4234 40.8667 25.7667 40.5234 25.7667 40.1C25.7667 39.6766 25.4234 39.3333 25 39.3333Z" fill="white"/>
<path d="M8.9 24.7667C8.47658 24.7667 8.13333 24.4234 8.13333 24C8.13333 23.5766 8.47658 23.2333 8.9 23.2333C9.32342 23.2333 9.66666 23.5766 9.66666 24C9.66666 24.4234 9.32342 24.7667 8.9 24.7667Z" fill="white"/>
<path d="M40.3333 24C40.3333 24.4234 40.6766 24.7667 41.1 24.7667C41.5234 24.7667 41.8667 24.4234 41.8667 24C41.8667 23.5766 41.5234 23.2333 41.1 23.2333C40.6766 23.2333 40.3333 23.5766 40.3333 24Z" fill="white"/>
<path d="M14.1578 35.9265C13.8584 36.2259 13.373 36.2259 13.0736 35.9265C12.7742 35.6271 12.7742 35.1417 13.0736 34.8423C13.373 34.5429 13.8584 34.5429 14.1578 34.8423C14.4572 35.1417 14.4572 35.6271 14.1578 35.9265Z" fill="white"/>
<path d="M35.8001 13.2C36.0995 13.4994 36.5849 13.4994 36.8843 13.2C37.1837 12.9006 37.1837 12.4151 36.8843 12.1157C36.5849 11.8163 36.0995 11.8163 35.8001 12.1157C35.5007 12.4151 35.5007 12.9006 35.8001 13.2Z" fill="white"/>
<path d="M14.5786 12.4943C14.878 12.7937 14.878 13.2792 14.5786 13.5786C14.2792 13.878 13.7938 13.878 13.4944 13.5786C13.195 13.2792 13.195 12.7937 13.4944 12.4943C13.7938 12.1949 14.2792 12.1949 14.5786 12.4943Z" fill="white"/>
<path d="M36.3228 36.4667C36.6298 36.1751 36.6422 35.6898 36.3506 35.3828C36.059 35.0759 35.5737 35.0634 35.2667 35.355C34.9598 35.6467 34.9473 36.1319 35.2389 36.4389C35.5306 36.7459 36.0158 36.7583 36.3228 36.4667Z" fill="white"/>
</svg>
