<svg width="50" height="51" viewBox="0 0 50 51" fill="none" xmlns="http://www.w3.org/2000/svg">
<circle cx="25" cy="25.375" r="24.375" transform="rotate(1 25 25.375)" fill="#17A9FD"/>
<path d="M25.3207 7.0028C15.3787 6.82926 7.18282 14.7439 7.00928 24.6859C6.83574 34.6279 14.7504 42.8238 24.6924 42.9973C34.6344 43.1709 42.8303 35.2562 43.0038 25.3142C43.1773 15.3722 35.2627 7.17634 25.3207 7.0028ZM39.1486 18.2781L33.1616 18.1736C32.5647 14.9401 31.5168 12.1779 30.1648 10.2015C34.1331 11.592 37.3629 14.5302 39.1486 18.2781ZM31.3927 25.1115C31.3637 26.7734 31.2206 28.3171 30.9995 29.7505L18.8514 29.5385C18.6805 28.0982 18.5914 26.5504 18.6204 24.8886C18.6494 23.2267 18.7925 21.683 19.0135 20.2496L31.1617 20.4616C31.3325 21.9019 31.4217 23.4497 31.3927 25.1115ZM25.2801 9.32503C27.2323 9.3591 29.6801 12.6031 30.7958 18.1323L19.4605 17.9344C20.7685 12.4476 23.328 9.29095 25.2801 9.32503ZM20.3679 10.0305C18.9551 11.9513 17.8042 14.6752 17.0947 17.8932L11.1077 17.7886C13.0231 14.1054 16.3535 11.2816 20.3679 10.0305ZM9.33151 24.7264C9.35976 23.1081 9.63373 21.5522 10.1165 20.0943L16.6841 20.2089C16.4694 21.6933 16.3263 23.237 16.2982 24.8481C16.2701 26.4591 16.3519 28.0067 16.5219 29.4978L9.95436 29.3832C9.52276 27.9093 9.30326 26.3448 9.33151 24.7264ZM10.8645 31.722L16.8515 31.8265C17.4484 35.06 18.4963 37.8223 19.8483 39.7986C15.88 38.4081 12.6502 35.4699 10.8645 31.722ZM24.7329 40.6751C22.7808 40.641 20.333 37.397 19.2173 31.8678L30.5526 32.0657C29.2446 37.5525 26.6851 40.7092 24.7329 40.6751ZM29.6452 39.9696C31.058 38.0488 32.2089 35.3249 32.9184 32.107L38.9054 32.2115C36.99 35.8947 33.6596 38.7185 29.6452 39.9696ZM33.329 29.7912C33.5437 28.3068 33.6868 26.7631 33.7149 25.1521C33.743 23.541 33.6611 21.9934 33.4912 20.5023L40.0587 20.6169C40.4903 22.0908 40.7098 23.6554 40.6816 25.2737C40.6533 26.892 40.3794 28.4479 39.8966 29.9058L33.329 29.7912Z" fill="white"/>
</svg>
