<svg width="50" height="50" viewBox="0 0 50 50" fill="none" xmlns="http://www.w3.org/2000/svg">
<path d="M49.375 25C49.375 38.4619 38.4619 49.375 25 49.375C11.5381 49.375 0.625 38.4619 0.625 25C0.625 11.5381 11.5381 0.625 25 0.625C38.4619 0.625 49.375 11.5381 49.375 25Z" fill="#EE6B8D"/>
<path d="M24.5 27.0833C25.2957 27.0833 26.0587 26.7497 26.6213 26.1558C27.1839 25.562 27.5 24.7565 27.5 23.9167C27.5 23.0768 27.1839 22.2714 26.6213 21.6775C26.0587 21.0836 25.2957 20.75 24.5 20.75C24.4531 20.75 24.4119 20.7619 24.3664 20.7643C24.511 21.1846 24.539 21.6396 24.4472 22.0761C24.3553 22.5125 24.1475 22.9123 23.848 23.2284C23.5485 23.5445 23.1698 23.764 22.7563 23.8609C22.3428 23.9578 21.9117 23.9282 21.5136 23.7757C21.5136 23.8251 21.5 23.8687 21.5 23.9167C21.5 24.3325 21.5776 24.7443 21.7284 25.1285C21.8791 25.5127 22.1001 25.8618 22.3787 26.1558C22.9413 26.7497 23.7043 27.0833 24.5 27.0833ZM37.8369 24.7776C35.2949 19.5422 30.2624 16 24.5 16C18.7376 16 13.7037 19.5447 11.1631 24.7781C11.0559 25.002 11 25.2494 11 25.5002C11 25.7511 11.0559 25.9985 11.1631 26.2224C13.7051 31.4578 18.7376 35 24.5 35C30.2624 35 35.2963 31.4553 37.8369 26.2219C37.9441 25.998 38 25.7506 38 25.4998C38 25.2489 37.9441 25.0015 37.8369 24.7776ZM24.5 17.5833C25.6867 17.5833 26.8467 17.9548 27.8334 18.6507C28.8201 19.3466 29.5892 20.3357 30.0433 21.493C30.4974 22.6503 30.6162 23.9237 30.3847 25.1522C30.1532 26.3808 29.5818 27.5093 28.7426 28.395C27.9035 29.2807 26.8344 29.8839 25.6705 30.1283C24.5067 30.3727 23.3003 30.2473 22.2039 29.7679C21.1075 29.2885 20.1705 28.4768 19.5112 27.4353C18.8519 26.3938 18.5 25.1693 18.5 23.9167C18.5017 22.2375 19.1344 20.6277 20.2593 19.4403C21.3841 18.253 22.9092 17.5852 24.5 17.5833ZM24.5 33.4167C19.4675 33.4167 14.869 30.3831 12.5 25.5C13.8324 22.739 15.9631 20.4977 18.5834 19.1009C17.6051 20.4378 17 22.0943 17 23.9167C17 26.0163 17.7902 28.0299 19.1967 29.5146C20.6032 30.9993 22.5109 31.8333 24.5 31.8333C26.4891 31.8333 28.3968 30.9993 29.8033 29.5146C31.2098 28.0299 32 26.0163 32 23.9167C32 22.0943 31.3949 20.4378 30.4166 19.1009C33.0369 20.4977 35.1676 22.739 36.5 25.5C34.1314 30.3831 29.5325 33.4167 24.5 33.4167Z" fill="white"/>
</svg>
