<svg width="50" height="49" viewBox="0 0 50 49" fill="none" xmlns="http://www.w3.org/2000/svg">
<circle cx="25" cy="24.375" r="24.375" fill="black"/>
<path d="M14.0447 15.1337L22.0458 23.1593C22.2235 23.3375 22.2235 23.6264 22.0458 23.8046L14.0447 31.8302C13.867 32.0084 13.579 32.0084 13.4013 31.8302L13.1332 31.5614C12.9556 31.3832 12.9556 31.0942 13.1332 30.916L20.5446 23.4819L13.1332 16.0479C12.9556 15.8697 12.9556 15.5808 13.1332 15.4025L13.4013 15.1337C13.579 14.9554 13.867 14.9554 14.0447 15.1337ZM37 31.5437V31.1634C37 30.9114 36.7963 30.7071 36.5451 30.7071H24.1102C23.859 30.7071 23.6553 30.9114 23.6553 31.1634V31.5437C23.6553 31.7957 23.859 32 24.1102 32H36.5451C36.7963 32 37 31.7957 37 31.5437Z" fill="#1CB31C"/>
</svg>
