<svg xmlns="http://www.w3.org/2000/svg" width="64" height="64" viewBox="0 0 64 64">
  <defs>
    <linearGradient id="clkbg" x1="32" x2="32" y1="60" y2="4" gradientUnits="userSpaceOnUse">
      <stop offset="0" stop-color="#daf6ed"></stop>
      <stop offset="1" stop-color="#fbfffd"></stop>
    </linearGradient>
  </defs>
  <rect width="58" height="58" x="3" y="3" fill="url(#clkbg)" rx="13" ry="13"></rect>
  <circle cx="32" cy="32" r="20" fill="#333" stroke="#2a2a2a" stroke-width="2"></circle>
  <circle cx="32" cy="32" r="20" fill="url(#clkbg)" opacity="0.1"></circle>
  <circle cx="32" cy="32" r="18" fill="none" stroke="#555" stroke-width="0.5"></circle>
  <line x1="32" y1="15" x2="32" y2="19" stroke="#fff" stroke-width="2.5" stroke-linecap="round"></line>
  <line x1="32" y1="45" x2="32" y2="49" stroke="#fff" stroke-width="2.5" stroke-linecap="round"></line>
  <line x1="15" y1="32" x2="19" y2="32" stroke="#fff" stroke-width="2.5" stroke-linecap="round"></line>
  <line x1="45" y1="32" x2="49" y2="32" stroke="#fff" stroke-width="2.5" stroke-linecap="round"></line>
  <line x1="19.5" y1="19.5" x2="22" y2="22" stroke="#aaa" stroke-width="1.5" stroke-linecap="round"></line>
  <line x1="44.5" y1="19.5" x2="42" y2="22" stroke="#aaa" stroke-width="1.5" stroke-linecap="round"></line>
  <line x1="19.5" y1="44.5" x2="22" y2="42" stroke="#aaa" stroke-width="1.5" stroke-linecap="round"></line>
  <line x1="44.5" y1="44.5" x2="42" y2="42" stroke="#aaa" stroke-width="1.5" stroke-linecap="round"></line>
  <line x1="32" y1="32" x2="32" y2="20" stroke="#d35f5f" stroke-width="2" stroke-linecap="round"></line>
  <line x1="32" y1="32" x2="42" y2="32" stroke="#fff" stroke-width="2.5" stroke-linecap="round"></line>
</svg>