<?xml version="1.0" encoding="UTF-8" standalone="no"?>
<!DOCTYPE svg PUBLIC "-//W3C//DTD SVG 1.1//EN" "http://www.w3.org/Graphics/SVG/1.1/DTD/svg11.dtd">
<svg width="100%" height="100%" viewBox="0 0 3508 2481" version="1.1" xmlns="http://www.w3.org/2000/svg" xmlns:xlink="http://www.w3.org/1999/xlink" xml:space="preserve" xmlns:serif="http://www.serif.com/" style="fill-rule:evenodd;clip-rule:evenodd;stroke-linejoin:round;stroke-miterlimit:2;" fill="#FFFFFF">
    <g id="open-nexus" serif:id="open nexus" transform="matrix(0.655606,0,0,-0.655606,-250.214,3420.28)">
        <g id="open">
            <g transform="matrix(1,0,0,1,0,73.204)">
                <path d="M2598,3904C2538,3883 2476,3830 2447,3776C2430,3743 2425,3718 2425,3650C2425,3575 2428,3559 2453,3518C2514,3414 2627,3376 2768,3412C2832,3428 2902,3498 2918,3562C2934,3623 2933,3706 2916,3753C2872,3876 2723,3947 2598,3904ZM2736,3811C2795,3784 2825,3732 2825,3655C2825,3578 2800,3533 2740,3502C2636,3449 2520,3530 2520,3657C2520,3724 2553,3779 2610,3808C2663,3835 2683,3835 2736,3811Z" style="fill-rule:nonzero;"/>
            </g>
            <g transform="matrix(1,0,0,1,-12.1685,79.8201)">
                <path d="M3156,3875C3130,3856 3108,3840 3106,3840C3104,3840 3100,3854 3096,3871C3091,3900 3088,3901 3048,3898L3005,3895L3005,3175L3053,3172L3100,3169L3100,3492L3145,3452C3210,3395 3290,3384 3367,3421C3451,3462 3490,3537 3490,3658C3490,3809 3399,3910 3261,3910C3208,3910 3196,3906 3156,3875ZM3319,3801C3358,3773 3390,3705 3390,3649C3389,3532 3273,3454 3182,3510C3138,3537 3095,3627 3103,3677C3118,3769 3184,3836 3252,3827C3272,3824 3302,3813 3319,3801Z" style="fill-rule:nonzero;"/>
            </g>
            <g transform="matrix(0.727686,0,0,0.727686,-1001.57,1460.92)">
                <path d="M6522,3465C6400,3437 6323,3385 6280,3300C6237,3215 6230,3058 6266,2972C6325,2828 6471,2747 6642,2763C6753,2773 6867,2848 6899,2933C6912,2966 6894,2973 6820,2964C6783,2959 6755,2949 6735,2932C6650,2861 6547,2863 6460,2937C6429,2962 6391,3029 6390,3057C6390,3067 6452,3070 6653,3072L6915,3075L6918,3146C6922,3235 6896,3309 6839,3373C6762,3461 6649,3494 6522,3465ZM6680,3335C6721,3314 6762,3256 6763,3218L6765,3185L6586,3182C6487,3181 6402,3184 6397,3189C6386,3200 6421,3271 6453,3301C6465,3313 6489,3328 6505,3336C6546,3354 6644,3354 6680,3335Z" style="fill-rule:nonzero;"/>
            </g>
            <g transform="matrix(0.727686,0,0,0.727686,72.905,1466.62)">
                <path d="M5740,3455C5641,3427 5580,3367 5552,3270C5546,3251 5539,3133 5535,3008L5529,2780L5680,2780L5680,2998C5680,3204 5681,3218 5703,3260C5728,3312 5791,3350 5850,3350C5905,3350 5970,3312 5994,3265C6013,3229 6015,3204 6018,3003L6021,2780L6172,2780L6168,3018C6165,3240 6163,3258 6142,3306C6095,3409 6009,3461 5875,3467C5824,3469 5775,3464 5740,3455Z" style="fill-rule:nonzero;"/>
            </g>
        </g>
        <g transform="matrix(1,-3.10792e-19,-3.10792e-19,0.997462,-90,110.755)">
            <path d="M1461,3895C1350,3870 1273,3802 1234,3695C1218,3651 1216,3602 1212,3288C1208,2891 1215,2788 1254,2712C1286,2649 1353,2590 1421,2565C1485,2542 1701,2531 1869,2542C1957,2548 1982,2553 2036,2580C2105,2614 2136,2647 2172,2726C2195,2774 2195,2783 2198,3179C2201,3521 2199,3594 2185,3655C2159,3774 2099,3849 1999,3886C1937,3910 1555,3916 1461,3895ZM1920,3729C1939,3725 1966,3713 1979,3704C2028,3669 2030,3650 2030,3218C2030,2678 2054,2715 1709,2715C1495,2715 1480,2716 1454,2736C1439,2747 1417,2769 1406,2784C1386,2811 1385,2823 1385,3218C1385,3609 1386,3626 1405,3660C1436,3713 1482,3734 1580,3741C1680,3749 1870,3742 1920,3729Z" style="fill-rule:nonzero;"/>
        </g>
        <g id="o-nexus" transform="matrix(1,0,0,1,-47.1684,209.279)">
            <g transform="matrix(0.727686,0,0,0.727686,-1551.21,423.598)">
                <path d="M6522,3465C6400,3437 6323,3385 6280,3300C6237,3215 6230,3058 6266,2972C6325,2828 6471,2747 6642,2763C6753,2773 6867,2848 6899,2933C6912,2966 6894,2973 6820,2964C6783,2959 6755,2949 6735,2932C6650,2861 6547,2863 6460,2937C6429,2962 6391,3029 6390,3057C6390,3067 6452,3070 6653,3072L6915,3075L6918,3146C6922,3235 6896,3309 6839,3373C6762,3461 6649,3494 6522,3465ZM6680,3335C6721,3314 6762,3256 6763,3218L6765,3185L6586,3182C6487,3181 6402,3184 6397,3189C6386,3200 6421,3271 6453,3301C6465,3313 6489,3328 6505,3336C6546,3354 6644,3354 6680,3335Z" style="fill-rule:nonzero;"/>
            </g>
            <g transform="matrix(0.727686,0,0,0.727686,-1551.21,423.598)">
                <path d="M8640,3460C8550,3437 8503,3413 8474,3375C8429,3315 8430,3226 8477,3170C8515,3125 8561,3105 8720,3066C8902,3021 8945,2987 8887,2932C8808,2858 8661,2865 8588,2948C8563,2977 8560,2978 8493,2973C8456,2970 8423,2966 8421,2964C8411,2955 8434,2905 8465,2872C8541,2787 8679,2746 8811,2768C8906,2784 8973,2815 9014,2860C9075,2928 9072,3022 9007,3097C8967,3142 8924,3160 8775,3195C8599,3235 8561,3259 8596,3307C8647,3375 8834,3378 8870,3311C8879,3293 8890,3290 8956,3290L9030,3290L9024,3318C9007,3390 8949,3441 8859,3466C8791,3484 8722,3482 8640,3460Z" style="fill-rule:nonzero;"/>
            </g>
            <g transform="matrix(0.727686,0,0,0.727686,-1551.21,423.598)">
                <path d="M5740,3455C5641,3427 5580,3367 5552,3270C5546,3251 5539,3133 5535,3008L5529,2780L5680,2780L5680,2998C5680,3204 5681,3218 5703,3260C5728,3312 5791,3350 5850,3350C5905,3350 5970,3312 5994,3265C6013,3229 6015,3204 6018,3003L6021,2780L6172,2780L6168,3018C6165,3240 6163,3258 6142,3306C6095,3409 6009,3461 5875,3467C5824,3469 5775,3464 5740,3455Z" style="fill-rule:nonzero;"/>
            </g>
            <g transform="matrix(0.727686,0,0,0.727686,-1551.21,423.598)">
                <path d="M6910,3455C6910,3445 6992,3337 7077,3236C7123,3181 7160,3133 7160,3129C7160,3125 7103,3053 7033,2969C6888,2797 6876,2781 6881,2776C6883,2773 6922,2774 6968,2777C7049,2783 7051,2784 7090,2824C7112,2846 7158,2899 7192,2942C7227,2984 7257,3019 7260,3019C7263,3019 7305,2970 7355,2910C7416,2834 7454,2797 7475,2791C7501,2782 7599,2775 7638,2779C7645,2779 7593,2848 7523,2931C7453,3014 7387,3092 7378,3105C7361,3127 7362,3129 7494,3291L7629,3455L7543,3458C7443,3461 7451,3466 7348,3338C7310,3289 7273,3250 7266,3250C7260,3250 7219,3292 7176,3344C7133,3395 7087,3443 7074,3449C7049,3460 6910,3465 6910,3455Z" style="fill-rule:nonzero;"/>
            </g>
            <g transform="matrix(0.727686,0,0,0.727686,-1551.21,423.598)">
                <path d="M7690,3227C7690,2967 7697,2922 7750,2858C7767,2838 7806,2809 7838,2793C7891,2767 7904,2765 8015,2765C8194,2765 8280,2803 8332,2904C8352,2941 8355,2970 8363,3188C8368,3321 8370,3437 8366,3445C8362,3456 8344,3460 8291,3460L8222,3460L8218,3238C8215,3022 8214,3014 8190,2970C8160,2917 8097,2880 8035,2880C7975,2880 7898,2920 7869,2966C7846,3003 7845,3014 7840,3230L7835,3455L7763,3458L7690,3461L7690,3227Z" style="fill-rule:nonzero;"/>
            </g>
        </g>
    </g>
</svg>
