<svg width="49" height="49" viewBox="0 0 49 49" fill="none" xmlns="http://www.w3.org/2000/svg">
<circle cx="24.375" cy="24.375" r="24.375" fill="#D9D9D9"/>
<path d="M15.05 19.1H21.35C21.5986 19.1 21.8 18.8986 21.8 18.65V17.75C21.8 17.5014 21.5986 17.3 21.35 17.3H15.05C14.8014 17.3 14.6 17.5014 14.6 17.75V18.65C14.6 18.8986 14.8014 19.1 15.05 19.1ZM15.3363 33.0275L15.9725 33.6637C16.148 33.8392 16.4332 33.8392 16.6087 33.6637L18.2 32.0729L19.7913 33.6642C19.9668 33.8398 20.252 33.8398 20.4275 33.6642L21.0637 33.0281C21.2392 32.8526 21.2392 32.5674 21.0637 32.3919L19.4729 30.8L21.0642 29.2087C21.2397 29.0332 21.2397 28.748 21.0642 28.5725L20.4281 27.9363C20.2526 27.7608 19.9674 27.7608 19.7919 27.9363L18.2 29.5271L16.6087 27.9357C16.4332 27.7602 16.148 27.7602 15.9725 27.9357L15.3363 28.5725C15.1608 28.748 15.1608 29.0332 15.3363 29.2087L16.9271 30.8L15.3358 32.3907C15.2514 32.4753 15.2041 32.5898 15.2042 32.7092C15.2043 32.8286 15.2518 32.9431 15.3363 33.0275ZM36.2 11H12.8C11.8061 11 11 11.8061 11 12.8V36.2C11 37.1939 11.8061 38 12.8 38H36.2C37.1939 38 38 37.1939 38 36.2V12.8C38 11.8061 37.1939 11 36.2 11ZM23.6 36.2H12.8V25.4H23.6V36.2ZM23.6 23.6H12.8V12.8H23.6V23.6ZM36.2 36.2H25.4V25.4H36.2V36.2ZM36.2 23.6H25.4V12.8H36.2V23.6ZM27.65 19.1H29.9V21.35C29.9 21.5986 30.1014 21.8 30.35 21.8H31.25C31.4986 21.8 31.7 21.5986 31.7 21.35V19.1H33.95C34.1986 19.1 34.4 18.8986 34.4 18.65V17.75C34.4 17.5014 34.1986 17.3 33.95 17.3H31.7V15.05C31.7 14.8014 31.4986 14.6 31.25 14.6H30.35C30.1014 14.6 29.9 14.8014 29.9 15.05V17.3H27.65C27.4014 17.3 27.2 17.5014 27.2 17.75V18.65C27.2 18.8986 27.4014 19.1 27.65 19.1ZM27.65 33.5H33.95C34.1986 33.5 34.4 33.2986 34.4 33.05V32.15C34.4 31.9014 34.1986 31.7 33.95 31.7H27.65C27.4014 31.7 27.2 31.9014 27.2 32.15V33.05C27.2 33.2986 27.4014 33.5 27.65 33.5ZM27.65 29.9H33.95C34.1986 29.9 34.4 29.6986 34.4 29.45V28.55C34.4 28.3014 34.1986 28.1 33.95 28.1H27.65C27.4014 28.1 27.2 28.3014 27.2 28.55V29.45C27.2 29.6986 27.4014 29.9 27.65 29.9Z" fill="black"/>
</svg>
