<svg width="49" height="49" viewBox="0 0 49 49" fill="none" xmlns="http://www.w3.org/2000/svg">
<circle cx="24.375" cy="24.375" r="24.375" fill="#794AC9"/>
<path d="M34.3214 12H14.6786C13.1998 12 12 13.1998 12 14.6786V34.3214C12 35.8002 13.1998 37 14.6786 37H34.3214C35.8002 37 37 35.8002 37 34.3214V14.6786C37 13.1998 35.8002 12 34.3214 12ZM35.2143 34.3214C35.2143 34.8125 34.8125 35.2143 34.3214 35.2143H14.6786C14.1875 35.2143 13.7857 34.8125 13.7857 34.3214V14.6786C13.7857 14.1875 14.1875 13.7857 14.6786 13.7857H34.3214C34.8125 13.7857 35.2143 14.1875 35.2143 14.6786V34.3214ZM31.4699 16.2243C30.5993 15.3538 29.1875 15.3538 28.3114 16.2243L16.0179 28.5179L15.577 32.5022C15.5156 33.0379 15.9676 33.4844 16.5033 33.4286L20.4821 32.9821L32.7757 20.6886C33.6462 19.8181 33.6462 18.4063 32.7757 17.5301L31.4699 16.2243ZM19.6618 31.2746L17.4799 31.5145L17.7199 29.3326L26.7991 20.2533L28.7355 22.1897L19.6618 31.2746ZM31.5145 19.4275L30.0078 20.9342L28.0714 18.9978L29.5781 17.4911C29.7511 17.3181 30.0357 17.3181 30.2087 17.4911L31.5145 18.7969C31.6875 18.9699 31.6875 19.2545 31.5145 19.4275Z" fill="white"/>
</svg>
