<svg width="27" height="27" viewBox="0 0 27 27" fill="none" xmlns="http://www.w3.org/2000/svg">
<path d="M4.05 8.1H10.35C10.5986 8.1 10.8 7.89862 10.8 7.65V6.75C10.8 6.50137 10.5986 6.3 10.35 6.3H4.05C3.80137 6.3 3.6 6.50137 3.6 6.75V7.65C3.6 7.89862 3.80137 8.1 4.05 8.1ZM4.33631 22.0275L4.9725 22.6637C5.148 22.8392 5.43319 22.8392 5.60869 22.6637L7.2 21.0729L8.79131 22.6643C8.96681 22.8398 9.252 22.8398 9.4275 22.6643L10.0637 22.0281C10.2392 21.8526 10.2392 21.5674 10.0637 21.3919L8.47294 19.8L10.0642 18.2087C10.2397 18.0332 10.2397 17.748 10.0642 17.5725L9.42806 16.9363C9.25256 16.7608 8.96737 16.7608 8.79187 16.9363L7.2 18.5271L5.60869 16.9357C5.43319 16.7602 5.148 16.7602 4.9725 16.9357L4.33631 17.5725C4.16081 17.748 4.16081 18.0332 4.33631 18.2087L5.92706 19.8L4.33575 21.3907C4.25141 21.4753 4.20409 21.5898 4.20419 21.7092C4.2043 21.8286 4.25182 21.9431 4.33631 22.0275V22.0275ZM25.2 0H1.8C0.806062 0 0 0.806062 0 1.8V25.2C0 26.1939 0.806062 27 1.8 27H25.2C26.1939 27 27 26.1939 27 25.2V1.8C27 0.806062 26.1939 0 25.2 0ZM12.6 25.2H1.8V14.4H12.6V25.2ZM12.6 12.6H1.8V1.8H12.6V12.6ZM25.2 25.2H14.4V14.4H25.2V25.2ZM25.2 12.6H14.4V1.8H25.2V12.6ZM16.65 8.1H18.9V10.35C18.9 10.5986 19.1014 10.8 19.35 10.8H20.25C20.4986 10.8 20.7 10.5986 20.7 10.35V8.1H22.95C23.1986 8.1 23.4 7.89862 23.4 7.65V6.75C23.4 6.50137 23.1986 6.3 22.95 6.3H20.7V4.05C20.7 3.80137 20.4986 3.6 20.25 3.6H19.35C19.1014 3.6 18.9 3.80137 18.9 4.05V6.3H16.65C16.4014 6.3 16.2 6.50137 16.2 6.75V7.65C16.2 7.89862 16.4014 8.1 16.65 8.1ZM16.65 22.5H22.95C23.1986 22.5 23.4 22.2986 23.4 22.05V21.15C23.4 20.9014 23.1986 20.7 22.95 20.7H16.65C16.4014 20.7 16.2 20.9014 16.2 21.15V22.05C16.2 22.2986 16.4014 22.5 16.65 22.5ZM16.65 18.9H22.95C23.1986 18.9 23.4 18.6986 23.4 18.45V17.55C23.4 17.3014 23.1986 17.1 22.95 17.1H16.65C16.4014 17.1 16.2 17.3014 16.2 17.55V18.45C16.2 18.6986 16.4014 18.9 16.65 18.9Z" fill="black"/>
</svg>
