<svg width="46" height="46" viewBox="0 0 46 46" fill="none" xmlns="http://www.w3.org/2000/svg">
<path fill-rule="evenodd" clip-rule="evenodd" d="M31.3524 18.0571C31.5418 18.4358 31.3883 18.8963 31.0096 19.0857L23.3429 22.919C22.9642 23.1084 22.5037 22.9549 22.3143 22.5762C22.1249 22.1974 22.2784 21.7369 22.6572 21.5476L30.3238 17.7142C30.7026 17.5249 31.1631 17.6784 31.3524 18.0571Z" fill="black"/>
<path fill-rule="evenodd" clip-rule="evenodd" d="M29.4521 8.11938C29.8372 8.29542 30.0067 8.7503 29.8306 9.13539L23.6973 22.5521C23.5212 22.9371 23.0664 23.1066 22.6813 22.9306C22.2962 22.7545 22.1267 22.2996 22.3028 21.9146L28.4361 8.49789C28.6121 8.1128 29.067 7.94334 29.4521 8.11938Z" fill="black"/>
<path fill-rule="evenodd" clip-rule="evenodd" d="M23 23.7667C23.8468 23.7667 24.5333 23.0802 24.5333 22.2333C24.5333 21.3865 23.8468 20.7 23 20.7C22.1532 20.7 21.4667 21.3865 21.4667 22.2333C21.4667 23.0802 22.1532 23.7667 23 23.7667Z" fill="black"/>
<path d="M23 6.13333C22.5766 6.13333 22.2333 6.47658 22.2333 6.9C22.2333 7.32342 22.5766 7.66666 23 7.66666C23.4234 7.66666 23.7667 7.32342 23.7667 6.9C23.7667 6.47658 23.4234 6.13333 23 6.13333Z" fill="black"/>
<path d="M23 38.3333C22.5766 38.3333 22.2333 38.6766 22.2333 39.1C22.2333 39.5234 22.5766 39.8667 23 39.8667C23.4234 39.8667 23.7667 39.5234 23.7667 39.1C23.7667 38.6766 23.4234 38.3333 23 38.3333Z" fill="black"/>
<path d="M6.9 23.7667C6.47658 23.7667 6.13333 23.4234 6.13333 23C6.13333 22.5766 6.47658 22.2333 6.9 22.2333C7.32342 22.2333 7.66667 22.5766 7.66667 23C7.66667 23.4234 7.32342 23.7667 6.9 23.7667Z" fill="black"/>
<path d="M38.3333 23C38.3333 23.4234 38.6766 23.7667 39.1 23.7667C39.5234 23.7667 39.8667 23.4234 39.8667 23C39.8667 22.5766 39.5234 22.2333 39.1 22.2333C38.6766 22.2333 38.3333 22.5766 38.3333 23Z" fill="black"/>
<path d="M12.1578 34.9265C11.8584 35.2259 11.373 35.2259 11.0736 34.9265C10.7742 34.6271 10.7742 34.1417 11.0736 33.8423C11.373 33.5429 11.8584 33.5429 12.1578 33.8423C12.4572 34.1417 12.4572 34.6271 12.1578 34.9265Z" fill="black"/>
<path d="M33.8001 12.2C34.0995 12.4994 34.5849 12.4994 34.8843 12.2C35.1837 11.9006 35.1837 11.4151 34.8843 11.1157C34.5849 10.8163 34.0995 10.8163 33.8001 11.1157C33.5007 11.4151 33.5007 11.9006 33.8001 12.2Z" fill="black"/>
<path d="M12.5786 11.4943C12.878 11.7937 12.878 12.2792 12.5786 12.5786C12.2792 12.878 11.7938 12.878 11.4944 12.5786C11.195 12.2792 11.195 11.7937 11.4944 11.4943C11.7938 11.1949 12.2792 11.1949 12.5786 11.4943Z" fill="black"/>
<path d="M34.3228 35.4667C34.6298 35.1751 34.6422 34.6898 34.3506 34.3828C34.059 34.0759 33.5737 34.0634 33.2667 34.355C32.9598 34.6467 32.9473 35.1319 33.2389 35.4389C33.5306 35.7459 34.0158 35.7583 34.3228 35.4667Z" fill="black"/>
</svg>
