<svg width="23" height="27" viewBox="0 0 23 27" fill="none" xmlns="http://www.w3.org/2000/svg">
<path d="M16.1 15.1875C14.6266 15.1875 13.9181 16.0312 11.5 16.0312C9.08192 16.0312 8.37857 15.1875 6.9 15.1875C3.09062 15.1875 0 18.3621 0 22.275V24.4688C0 25.8662 1.10379 27 2.46429 27H20.5357C21.8962 27 23 25.8662 23 24.4688V22.275C23 18.3621 19.9094 15.1875 16.1 15.1875ZM21.3571 24.4688C21.3571 24.9328 20.9875 25.3125 20.5357 25.3125H2.46429C2.0125 25.3125 1.64286 24.9328 1.64286 24.4688V22.275C1.64286 19.2955 3.99933 16.875 6.9 16.875C7.90625 16.875 8.90737 17.7188 11.5 17.7188C14.0875 17.7188 15.0938 16.875 16.1 16.875C19.0007 16.875 21.3571 19.2955 21.3571 22.275V24.4688ZM11.5 13.5C15.1297 13.5 18.0714 10.4783 18.0714 6.75C18.0714 3.02168 15.1297 0 11.5 0C7.87031 0 4.92857 3.02168 4.92857 6.75C4.92857 10.4783 7.87031 13.5 11.5 13.5ZM11.5 1.6875C14.2158 1.6875 16.4286 3.96035 16.4286 6.75C16.4286 9.53965 14.2158 11.8125 11.5 11.8125C8.78415 11.8125 6.57143 9.53965 6.57143 6.75C6.57143 3.96035 8.78415 1.6875 11.5 1.6875Z" fill="black"/>
</svg>
