<svg width="32" height="22" viewBox="0 0 32 22" fill="none" xmlns="http://www.w3.org/2000/svg">
<path fill-rule="evenodd" clip-rule="evenodd" d="M30.8994 2.85595C30.9868 3.16798 31.0333 3.49555 31.0333 3.83333V17.6333C31.0333 19.7504 29.2052 21.4667 26.95 21.4667H4.08333C1.82817 21.4667 0 19.7504 0 17.6333V3.83333C0 1.71624 1.82817 0 4.08333 0H26.95C28.23 0 29.3724 0.55287 30.1211 1.41813C30.4811 1.8341 30.75 2.3223 30.8994 2.85595ZM4.08333 1.53333H26.95C27.7794 1.53333 28.5125 1.92019 28.9557 2.51217L18.4041 12.4178C16.8094 13.9148 14.224 13.9148 12.6294 12.4178L2.07764 2.51212C2.52092 1.92017 3.25401 1.53333 4.08333 1.53333ZM1.63333 4.26347V17.6333C1.63333 18.9036 2.73024 19.9333 4.08333 19.9333H26.95C28.3031 19.9333 29.4 18.9036 29.4 17.6333V4.26356L19.559 13.502C17.3265 15.5979 13.7069 15.5979 11.4744 13.502L1.63333 4.26347Z" fill="black"/>
</svg>
