<svg width="27" height="19" viewBox="0 0 27 19" fill="none" xmlns="http://www.w3.org/2000/svg">
<path d="M13.5 11.0833C14.2957 11.0833 15.0587 10.7497 15.6213 10.1558C16.1839 9.56197 16.5 8.75652 16.5 7.91667C16.5 7.07681 16.1839 6.27136 15.6213 5.6775C15.0587 5.08363 14.2957 4.75 13.5 4.75C13.4531 4.75 13.4119 4.76187 13.3664 4.76435C13.511 5.18458 13.539 5.63963 13.4472 6.07608C13.3553 6.51253 13.1475 6.91227 12.848 7.22841C12.5485 7.54455 12.1698 7.76395 11.7563 7.86088C11.3428 7.95781 10.9117 7.92825 10.5136 7.77565C10.5136 7.82513 10.5 7.86867 10.5 7.91667C10.5 8.33252 10.5776 8.7443 10.7284 9.1285C10.8791 9.5127 11.1001 9.86179 11.3787 10.1558C11.9413 10.7497 12.7043 11.0833 13.5 11.0833ZM26.8369 8.7776C24.2949 3.54221 19.2624 0 13.5 0C7.73765 0 2.70373 3.54469 0.1631 8.7781C0.0558691 9.002 0 9.24937 0 9.50025C0 9.75113 0.0558691 9.9985 0.1631 10.2224C2.70514 15.4578 7.73765 19 13.5 19C19.2624 19 24.2963 15.4553 26.8369 10.2219C26.9441 9.998 27 9.75063 27 9.49975C27 9.24887 26.9441 9.0015 26.8369 8.7776V8.7776ZM13.5 1.58333C14.6867 1.58333 15.8467 1.95478 16.8334 2.65069C17.8201 3.34661 18.5892 4.33574 19.0433 5.49301C19.4974 6.65027 19.6162 7.92369 19.3847 9.15224C19.1532 10.3808 18.5818 11.5093 17.7426 12.395C16.9035 13.2807 15.8344 13.8839 14.6705 14.1283C13.5067 14.3727 12.3003 14.2473 11.2039 13.7679C10.1075 13.2885 9.17046 12.4768 8.51117 11.4353C7.85188 10.3938 7.49999 9.16928 7.49999 7.91667C7.50173 6.23753 8.13443 4.62768 9.25927 3.44035C10.3841 2.25302 11.9092 1.58517 13.5 1.58333V1.58333ZM13.5 17.4167C8.46749 17.4167 3.86904 14.3831 1.49998 9.5C2.83237 6.73902 4.96314 4.49767 7.58343 3.10086C6.60514 4.43779 5.99999 6.09435 5.99999 7.91667C5.99999 10.0163 6.79016 12.0299 8.19669 13.5146C9.60321 14.9993 11.5109 15.8333 13.5 15.8333C15.4891 15.8333 17.3968 14.9993 18.8033 13.5146C20.2098 12.0299 21 10.0163 21 7.91667C21 6.09435 20.3949 4.43779 19.4166 3.10086C22.0369 4.49767 24.1676 6.73902 25.5 9.5C23.1314 14.3831 18.5325 17.4167 13.5 17.4167Z" fill="black"/>
</svg>
