<svg width="49" height="49" viewBox="0 0 49 49" fill="none" xmlns="http://www.w3.org/2000/svg">
<circle cx="24.375" cy="24.375" r="24.375" fill="#D9D9D9"/>
<path d="M23.1465 27.4316V26.9746C23.1465 26.5059 23.1904 26.1045 23.2783 25.7705C23.3662 25.4307 23.5186 25.1143 23.7354 24.8213C23.958 24.5283 24.2656 24.2178 24.6582 23.8896C25.1152 23.5088 25.4756 23.1865 25.7393 22.9229C26.0088 22.6533 26.2021 22.3838 26.3193 22.1143C26.4365 21.8447 26.4951 21.5195 26.4951 21.1387C26.4951 20.5293 26.2988 20.0635 25.9062 19.7412C25.5137 19.4131 24.96 19.249 24.2451 19.249C23.665 19.249 23.1494 19.3223 22.6982 19.4688C22.2471 19.6152 21.8135 19.791 21.3975 19.9961L20.8877 18.8184C21.3682 18.5664 21.8896 18.3613 22.4521 18.2031C23.0146 18.0449 23.6416 17.9658 24.333 17.9658C25.4639 17.9658 26.3398 18.2471 26.9609 18.8096C27.582 19.3662 27.8926 20.1338 27.8926 21.1123C27.8926 21.6572 27.8047 22.123 27.6289 22.5098C27.4531 22.8906 27.2041 23.2422 26.8818 23.5645C26.5596 23.8809 26.1787 24.2178 25.7393 24.5752C25.3525 24.9033 25.0566 25.1934 24.8516 25.4453C24.6465 25.6914 24.5059 25.9463 24.4297 26.21C24.3535 26.4678 24.3154 26.7783 24.3154 27.1416V27.4316H23.1465ZM22.7598 30.0859C22.7598 29.6758 22.8564 29.3857 23.0498 29.2158C23.2432 29.04 23.4922 28.9521 23.7969 28.9521C24.084 28.9521 24.3271 29.04 24.5264 29.2158C24.7314 29.3857 24.834 29.6758 24.834 30.0859C24.834 30.4902 24.7314 30.7861 24.5264 30.9736C24.3271 31.1553 24.084 31.2461 23.7969 31.2461C23.4922 31.2461 23.2432 31.1553 23.0498 30.9736C22.8564 30.7861 22.7598 30.4902 22.7598 30.0859Z" fill="black"/>
</svg>
