<svg width="23" height="23" viewBox="0 0 23 23" fill="none" xmlns="http://www.w3.org/2000/svg">
<path d="M22.5208 10.0625H12.9375V0.479167C12.9375 0.214427 12.7231 0 12.4583 0H10.5417C10.2769 0 10.0625 0.214427 10.0625 0.479167V10.0625H0.479167C0.214427 10.0625 0 10.2769 0 10.5417V12.4583C0 12.7231 0.214427 12.9375 0.479167 12.9375H10.0625V22.5208C10.0625 22.7856 10.2769 23 10.5417 23H12.4583C12.7231 23 12.9375 22.7856 12.9375 22.5208V12.9375H22.5208C22.7856 12.9375 23 12.7231 23 12.4583V10.5417C23 10.2769 22.7856 10.0625 22.5208 10.0625Z" fill="white"/>
</svg>
