<svg width="19" height="19" viewBox="0 0 19 19" fill="none" xmlns="http://www.w3.org/2000/svg">
<path d="M8.43248 10.3276L8.67235 10.5675C8.87109 10.7663 8.87109 11.0885 8.67235 11.2873L2.31677 17.6429H4.91964C5.2007 17.6429 5.42857 17.8707 5.42857 18.1518V18.4911C5.42857 18.7721 5.2007 19 4.91964 19H0.508929C0.227873 19 0 18.7721 0 18.4911V14.0804C0 13.7993 0.227873 13.5714 0.508929 13.5714H0.848214C1.12927 13.5714 1.35714 13.7993 1.35714 14.0804V16.6832L7.71273 10.3276C7.91151 10.1289 8.23374 10.1289 8.43248 10.3276ZM18.4911 0H14.0804C13.7993 0 13.5714 0.227873 13.5714 0.508929V0.848214C13.5714 1.12927 13.7993 1.35714 14.0804 1.35714H16.6832L10.3276 7.71273C10.1289 7.91146 10.1289 8.2337 10.3276 8.43248L10.5675 8.67235C10.7663 8.87109 11.0885 8.87109 11.2873 8.67235L17.6429 2.31677V4.91964C17.6429 5.2007 17.8707 5.42857 18.1518 5.42857H18.4911C18.7721 5.42857 19 5.2007 19 4.91964V0.508929C19 0.227873 18.7721 0 18.4911 0Z" fill="white"/>
</svg>
