<svg width="21" height="19" viewBox="0 0 21 19" fill="none" xmlns="http://www.w3.org/2000/svg">
<path d="M20.748 2.61735H5.124C5.05717 2.61735 4.99307 2.58671 4.94581 2.53217C4.89855 2.47763 4.872 2.40366 4.872 2.32653V1.16327C4.872 1.08614 4.89855 1.01217 4.94581 0.957627C4.99307 0.903089 5.05717 0.872449 5.124 0.872449H20.748C20.8148 0.872449 20.8789 0.903089 20.9262 0.957627C20.9734 1.01217 21 1.08614 21 1.16327V2.32653C21 2.40366 20.9734 2.47763 20.9262 2.53217C20.8789 2.58671 20.8148 2.61735 20.748 2.61735ZM21 10.0816V8.91837C21 8.84124 20.9734 8.76727 20.9262 8.71273C20.8789 8.65819 20.8148 8.62755 20.748 8.62755H5.124C5.05717 8.62755 4.99307 8.65819 4.94581 8.71273C4.89855 8.76727 4.872 8.84124 4.872 8.91837V10.0816C4.872 10.1588 4.89855 10.2327 4.94581 10.2873C4.99307 10.3418 5.05717 10.3724 5.124 10.3724H20.748C20.8148 10.3724 20.8789 10.3418 20.9262 10.2873C20.9734 10.2327 21 10.1588 21 10.0816ZM21 17.8367V16.6735C21 16.5963 20.9734 16.5224 20.9262 16.4678C20.8789 16.4133 20.8148 16.3827 20.748 16.3827H5.124C5.05717 16.3827 4.99307 16.4133 4.94581 16.4678C4.89855 16.5224 4.872 16.5963 4.872 16.6735V17.8367C4.872 17.9139 4.89855 17.9878 4.94581 18.0424C4.99307 18.0969 5.05717 18.1276 5.124 18.1276H20.748C20.8148 18.1276 20.8789 18.0969 20.9262 18.0424C20.9734 17.9878 21 17.9139 21 17.8367ZM3.024 2.90816V0.581633C3.024 0.260426 2.79833 0 2.52 0H0.504C0.225666 0 0 0.260426 0 0.581633V2.90816C0 3.22937 0.225666 3.4898 0.504 3.4898H2.52C2.79833 3.4898 3.024 3.22937 3.024 2.90816ZM3.024 10.6633V8.33673C3.024 8.01553 2.79833 7.7551 2.52 7.7551H0.504C0.225666 7.7551 0 8.01553 0 8.33673V10.6633C0 10.9845 0.225666 11.2449 0.504 11.2449H2.52C2.79833 11.2449 3.024 10.9845 3.024 10.6633ZM3.024 18.4184V16.0918C3.024 15.7706 2.79833 15.5102 2.52 15.5102H0.504C0.225666 15.5102 0 15.7706 0 16.0918V18.4184C0 18.7396 0.225666 19 0.504 19H2.52C2.79833 19 3.024 18.7396 3.024 18.4184Z" fill="white"/>
</svg>
