<svg width="19" height="15" viewBox="0 0 19 15" fill="none" xmlns="http://www.w3.org/2000/svg">
<path d="M17.2188 0H1.78125C0.797852 0 0 0.839844 0 1.875V13.125C0 14.1602 0.797852 15 1.78125 15H17.2188C18.2021 15 19 14.1602 19 13.125V1.875C19 0.839844 18.2021 0 17.2188 0ZM1.78125 1.25H17.2188C17.5453 1.25 17.8125 1.53125 17.8125 1.875V3.49219C16.9998 4.21484 15.8383 5.21094 12.2238 8.23047C11.5967 8.75391 10.3609 10.0156 9.5 10C8.63906 10.0156 7.39961 8.75391 6.77617 8.23047C3.16172 5.21094 2.0002 4.21484 1.1875 3.49219V1.875C1.1875 1.53125 1.45469 1.25 1.78125 1.25ZM17.2188 13.75H1.78125C1.45469 13.75 1.1875 13.4688 1.1875 13.125V5.11719C2.03359 5.84766 3.36953 6.97656 6.0377 9.20703C6.79844 9.84766 8.1418 11.2578 9.5 11.25C10.8508 11.2617 12.183 9.86328 12.9623 9.20703C15.6305 6.97656 16.9664 5.84766 17.8125 5.11719V13.125C17.8125 13.4688 17.5453 13.75 17.2188 13.75Z" fill="white"/>
</svg>
