<svg width="19" height="19" viewBox="0 0 19 19" fill="none" xmlns="http://www.w3.org/2000/svg">
<path d="M0.388928 18.8509L0.149053 18.6111C-0.0496843 18.4123 -0.0496843 18.0901 0.149053 17.8913L7.18322 10.8571H4.58035C4.29929 10.8571 4.07142 10.6293 4.07142 10.3482V10.0089C4.07142 9.72787 4.29929 9.5 4.58035 9.5H8.82143C9.19621 9.5 9.5 9.80379 9.5 10.1786V14.4197C9.5 14.7007 9.27213 14.9286 8.99107 14.9286H8.65178C8.37073 14.9286 8.14285 14.7007 8.14285 14.4197V11.8168L1.10868 18.8509C0.909903 19.0497 0.587665 19.0497 0.388928 18.8509ZM10.1786 9.5H14.4197C14.7007 9.5 14.9286 9.27213 14.9286 8.99107V8.65178C14.9286 8.37073 14.7007 8.14285 14.4197 8.14285H11.8168L18.8509 1.10868C19.0497 0.909945 19.0497 0.587708 18.8509 0.388928L18.6111 0.149053C18.4123 -0.0496843 18.0901 -0.0496843 17.8913 0.149053L10.8571 7.18322V4.58035C10.8571 4.29929 10.6293 4.07142 10.3482 4.07142H10.0089C9.72787 4.07142 9.5 4.29929 9.5 4.58035V8.82143C9.5 9.19621 9.80379 9.5 10.1786 9.5Z" fill="white"/>
</svg>
