<svg width="17" height="18" viewBox="0 0 17 18" fill="none" xmlns="http://www.w3.org/2000/svg">
<path d="M13.0413 1.65357C15.42 3.225 17 5.99285 17 9.14285C17 14.0286 13.2024 17.9893 8.51714 18C3.83871 18.0107 0.0068604 14.0357 5.56498e-06 9.15713C-0.00342185 5.99999 1.57662 3.225 3.95867 1.65357C4.15746 1.52143 4.42138 1.58928 4.53791 1.80357L4.67158 2.05357C4.77783 2.25357 4.71613 2.50357 4.53105 2.625C2.46432 4 1.09678 6.41428 1.09678 9.14285C1.09678 13.425 4.43166 16.8571 8.5 16.8571C12.6095 16.8571 15.9032 13.3821 15.9032 9.14285C15.9032 6.39285 14.5288 3.99285 12.4655 2.62857C12.2804 2.50714 12.2188 2.25357 12.325 2.05714L12.4587 1.80714C12.5752 1.58928 12.8425 1.525 13.0413 1.65357ZM9.04839 9.85713V0.428571C9.04839 0.192857 8.86331 0 8.6371 0H8.36291C8.1367 0 7.95162 0.192857 7.95162 0.428571V9.85713C7.95162 10.0928 8.1367 10.2857 8.36291 10.2857H8.6371C8.86331 10.2857 9.04839 10.0928 9.04839 9.85713Z" fill="white"/>
</svg>
