<svg width="24" height="22" viewBox="0 0 24 22" fill="none" xmlns="http://www.w3.org/2000/svg">
<path d="M23.9839 16.3036L24 21.4107C24 21.7348 23.7107 22 23.3571 22L17.7857 21.9853C17.4321 21.9853 17.1429 21.7201 17.1429 21.396V20.9049C17.1429 20.5808 17.4321 20.3156 17.7857 20.3156L20.8929 20.3304L20.9304 20.296L12 12.1098L3.06964 20.296L3.10714 20.3304L6.21429 20.3156C6.56786 20.3156 6.85714 20.5808 6.85714 20.9049V21.396C6.85714 21.7201 6.56786 21.9853 6.21429 21.9853L0.642857 22C0.289286 22 0 21.7348 0 21.4107L0.0160714 16.3036C0.0160714 15.9795 0.305357 15.7143 0.658929 15.7143H1.19464C1.54821 15.7143 1.8375 15.9795 1.8375 16.3036L1.82143 19.1518L1.85893 19.1862L10.7893 11L1.85893 2.81384L1.82143 2.84821L1.8375 5.69643C1.8375 6.02054 1.54821 6.28571 1.19464 6.28571H0.658929C0.305357 6.28571 0.0160714 6.02054 0.0160714 5.69643L0 0.589286C0 0.265179 0.289286 0 0.642857 0L6.21429 0.0147321C6.56786 0.0147321 6.85714 0.279911 6.85714 0.604018V1.09509C6.85714 1.4192 6.56786 1.68438 6.21429 1.68438L3.10714 1.66964L3.06964 1.70402L12 9.89018L20.9304 1.70402L20.8929 1.66964L17.7857 1.68438C17.4321 1.68438 17.1429 1.4192 17.1429 1.09509V0.604018C17.1429 0.279911 17.4321 0.0147321 17.7857 0.0147321L23.3571 0C23.7107 0 24 0.265179 24 0.589286L23.9839 5.69643C23.9839 6.02054 23.6946 6.28571 23.3411 6.28571H22.8054C22.4518 6.28571 22.1625 6.02054 22.1625 5.69643L22.1786 2.84821L22.1411 2.81384L13.2107 11L22.1411 19.1862L22.1786 19.1518L22.1625 16.3036C22.1625 15.9795 22.4518 15.7143 22.8054 15.7143H23.3411C23.6946 15.7143 23.9839 15.9795 23.9839 16.3036Z" fill="white"/>
</svg>
