<svg width="19" height="17" viewBox="0 0 19 17" fill="none" xmlns="http://www.w3.org/2000/svg">
<path d="M4.75185 6.98214C4.25836 6.98214 3.86134 7.38817 3.86134 7.89286C3.86134 8.39754 4.25836 8.80357 4.75185 8.80357C5.24534 8.80357 5.64236 8.39754 5.64236 7.89286C5.64236 7.38817 5.24534 6.98214 4.75185 6.98214ZM9.50123 6.98214C9.00774 6.98214 8.61072 7.38817 8.61072 7.89286C8.61072 8.39754 9.00774 8.80357 9.50123 8.80357C9.99472 8.80357 10.3917 8.39754 10.3917 7.89286C10.3917 7.38817 9.99472 6.98214 9.50123 6.98214ZM14.2506 6.98214C13.7571 6.98214 13.3601 7.38817 13.3601 7.89286C13.3601 8.39754 13.7571 8.80357 14.2506 8.80357C14.7441 8.80357 15.1411 8.39754 15.1411 7.89286C15.1411 7.38817 14.7441 6.98214 14.2506 6.98214ZM9.50123 0C4.25465 0 0.00246256 3.53281 0.00246256 7.89286C0.00246256 9.69911 0.740843 11.3536 1.96529 12.6855C1.41244 14.1806 0.262195 15.448 0.243642 15.4632C-0.00124789 15.7288 -0.0680361 16.1158 0.0729612 16.4498C0.213959 16.7837 0.536768 17 0.892972 17C3.1749 17 4.97447 16.0248 6.05422 15.2431C7.12654 15.5884 8.2842 15.7857 9.50123 15.7857C14.7478 15.7857 19 12.2529 19 7.89286C19 3.53281 14.7478 0 9.50123 0ZM9.50123 14.5714C8.45117 14.5714 7.41224 14.4083 6.41413 14.0857L5.85014 13.9036L5.36778 14.2527C4.51438 14.8712 3.19717 15.5922 1.56085 15.7554C2.00611 15.1824 2.66657 14.2223 3.07472 13.1143L3.33816 12.4047L2.82983 11.8507C1.75751 10.6895 1.18981 9.31964 1.18981 7.89286C1.18981 4.21205 4.91882 1.21429 9.50123 1.21429C14.0836 1.21429 17.8127 4.21205 17.8127 7.89286C17.8127 11.5737 14.0836 14.5714 9.50123 14.5714Z" fill="white"/>
</svg>
