<svg width="25" height="23" viewBox="0 0 25 23" fill="none" xmlns="http://www.w3.org/2000/svg">
<path d="M23.9731 10.0625H13.8495V0.479167C13.8495 0.214427 13.623 0 13.3433 0H11.3186C11.0389 0 10.8124 0.214427 10.8124 0.479167V10.0625H0.688797C0.409133 10.0625 0.182617 10.2769 0.182617 10.5417V12.4583C0.182617 12.7231 0.409133 12.9375 0.688797 12.9375H10.8124V22.5208C10.8124 22.7856 11.0389 23 11.3186 23H13.3433C13.623 23 13.8495 22.7856 13.8495 22.5208V12.9375H23.9731C24.2527 12.9375 24.4793 12.7231 24.4793 12.4583V10.5417C24.4793 10.2769 24.2527 10.0625 23.9731 10.0625Z" fill="black"/>
</svg>
