<svg width="5" height="19" viewBox="0 0 5 19" fill="none" xmlns="http://www.w3.org/2000/svg">
<path d="M2.55855 7.5C3.72717 7.5 4.6713 8.39375 4.6713 9.5C4.6713 10.6062 3.72717 11.5 2.55855 11.5C1.38994 11.5 0.445801 10.6062 0.445801 9.5C0.445801 8.39375 1.38994 7.5 2.55855 7.5ZM0.445801 2C0.445801 3.10625 1.38994 4 2.55855 4C3.72717 4 4.6713 3.10625 4.6713 2C4.6713 0.89375 3.72717 0 2.55855 0C1.38994 0 0.445801 0.89375 0.445801 2ZM0.445801 17C0.445801 18.1063 1.38994 19 2.55855 19C3.72717 19 4.6713 18.1063 4.6713 17C4.6713 15.8938 3.72717 15 2.55855 15C1.38994 15 0.445801 15.8938 0.445801 17Z" fill="black"/>
</svg>
