<svg width="26" height="18" viewBox="0 0 26 18" fill="none" xmlns="http://www.w3.org/2000/svg">
<path d="M9.88914 1.5L12.6633 4.06078C12.968 4.34203 13.3814 4.5 13.8125 4.5H23.5625C24.0114 4.5 24.375 4.83563 24.375 5.25V15.75C24.375 16.1644 24.0114 16.5 23.5625 16.5H2.4375C1.98859 16.5 1.625 16.1644 1.625 15.75V2.25C1.625 1.83562 1.98859 1.5 2.4375 1.5H9.88914ZM2.4375 0C1.09129 0 0 1.00734 0 2.25V15.75C0 16.9927 1.09129 18 2.4375 18H23.5625C24.9087 18 26 16.9927 26 15.75V5.25C26 4.00734 24.9087 3 23.5625 3H13.8125L11.0383 0.439219C10.7336 0.157969 10.3203 0 9.88914 0H2.4375Z" fill="black"/>
<path d="M15.7197 6.10985L15.4987 6.33079C15.3523 6.47723 15.3523 6.71466 15.4987 6.86113L18.1215 9.46875H6.375C6.16791 9.46875 6 9.63666 6 9.84375V10.1563C6 10.3633 6.16791 10.5313 6.375 10.5313H18.1215L15.4987 13.1389C15.3523 13.2853 15.3523 13.5227 15.4987 13.6692L15.7197 13.8902C15.8661 14.0366 16.1036 14.0366 16.25 13.8902L19.8902 10.2652C20.0366 10.1187 20.0366 9.88128 19.8902 9.73482L16.25 6.10985C16.1036 5.96338 15.8661 5.96338 15.7197 6.10985Z" fill="black"/>
</svg>
