<svg width="39" height="40" viewBox="0 0 39 40" fill="none" xmlns="http://www.w3.org/2000/svg">
<path d="M29.9184 3.6746C35.3752 7.16666 39 13.3174 39 20.3174C39 31.1746 30.2879 39.9761 19.5393 40C8.80646 40.0238 0.0157386 31.1904 1.27667e-05 20.3492C-0.00785013 13.3333 3.61695 7.16666 9.08166 3.6746C9.53771 3.38095 10.1432 3.53174 10.4105 4.00793L10.7171 4.56349C10.9609 5.00793 10.8194 5.56349 10.3948 5.83333C5.65344 8.88888 2.51614 14.254 2.51614 20.3174C2.51614 29.8333 10.1667 37.4603 19.5 37.4603C28.9276 37.4603 36.4839 29.7381 36.4839 20.3174C36.4839 14.2063 33.3308 8.873 28.5974 5.84126C28.1728 5.57142 28.0313 5.00793 28.275 4.57142L28.5817 4.01587C28.849 3.53174 29.4623 3.38888 29.9184 3.6746ZM20.7581 21.9047V0.95238C20.7581 0.428571 20.3335 0 19.8145 0H19.1855C18.6665 0 18.2419 0.428571 18.2419 0.95238V21.9047C18.2419 22.4285 18.6665 22.8571 19.1855 22.8571H19.8145C20.3335 22.8571 20.7581 22.4285 20.7581 21.9047Z" fill="white"/>
</svg>
