<svg width="49" height="42" viewBox="0 0 49 42" fill="none" xmlns="http://www.w3.org/2000/svg">
<path d="M32.3732 3.88281L48.6145 20.0703C49.1285 20.5844 49.1285 21.4156 48.6145 21.9297L32.3732 38.1172C31.8592 38.6312 31.028 38.6312 30.5139 38.1172L29.7374 37.3406C29.2234 36.8266 29.2234 35.9953 29.7374 35.4813L42.4242 22.8594H8.31204C7.5902 22.8594 6.99961 22.2687 6.99961 21.5469V20.4531C6.99961 19.7313 7.5902 19.1406 8.31204 19.1406H42.4242L29.7483 6.51875C29.2343 6.00469 29.2343 5.17344 29.7483 4.65937L30.5249 3.88281C31.028 3.36875 31.8592 3.36875 32.3732 3.88281ZM1.31243 42H2.18738C2.90921 42 3.4998 41.4094 3.4998 40.6875V1.3125C3.4998 0.590625 2.90921 0 2.18738 0H1.31243C0.590592 0 0 0.590625 0 1.3125V40.6875C0 41.4094 0.590592 42 1.31243 42Z" fill="white"/>
</svg>
