<svg width="25" height="20" viewBox="0 0 25 20" fill="none" xmlns="http://www.w3.org/2000/svg">
<path d="M5.89941 0.00390625C5.94777 0.00494749 5.99598 0.005649 6.04395 0.0078125L6.0459 0.00878906C6.07615 0.0102643 6.10662 0.0126854 6.13672 0.0146484C6.13984 0.014839 6.14336 0.0144526 6.14648 0.0146484C6.23723 0.0203428 6.32707 0.0284572 6.41602 0.0390625C6.42027 0.0395693 6.42446 0.0404964 6.42871 0.0410156C6.45143 0.0439036 6.47442 0.0474368 6.49707 0.0507812C6.57348 0.0614331 6.64888 0.0745497 6.72363 0.0898438C6.72689 0.0905096 6.73015 0.0911218 6.7334 0.0917969C6.77563 0.100538 6.8182 0.109813 6.86035 0.120117C6.90287 0.130789 6.94544 0.140784 6.9873 0.15332C6.98928 0.153905 6.99119 0.154679 6.99316 0.155273C7.00482 0.158612 7.01667 0.162536 7.02832 0.166016C7.04059 0.169899 7.05322 0.172701 7.06543 0.176758C7.06778 0.177509 7.06992 0.178904 7.07227 0.179688C7.11113 0.191839 7.15056 0.204061 7.18945 0.217773C7.18667 0.218533 7.18342 0.217971 7.18066 0.21875C7.24824 0.244785 7.31445 0.274447 7.37988 0.306641C7.38733 0.310293 7.39493 0.313647 7.40234 0.317383C7.46 0.346512 7.51644 0.378648 7.57227 0.413086C7.58072 0.418283 7.58924 0.423387 7.59766 0.428711C7.6521 0.463293 7.70528 0.500881 7.75781 0.541016C7.77709 0.5557 7.79643 0.570467 7.81543 0.585938C7.86843 0.62918 7.92086 0.674998 7.97168 0.724609L8.13867 0.910156C8.19294 0.972694 8.24593 1.03622 8.29785 1.10059C8.40178 1.2294 8.50056 1.36229 8.59375 1.5C8.7388 1.71127 8.91479 1.88877 9.1123 2.03613C9.17811 2.08527 9.24608 2.13137 9.31641 2.17383C9.5977 2.34351 9.91261 2.46073 10.2402 2.53223C10.4721 2.57143 10.7019 2.56969 10.9365 2.56836H12.8789L14.2109 2.56934C14.363 2.56958 14.515 2.57008 14.667 2.57031C14.7235 2.5704 14.7246 2.57022 14.7822 2.57031L16.0781 2.57129C16.1174 2.57132 16.1568 2.57224 16.1973 2.57227C16.8366 2.57272 17.4768 2.5716 18.1162 2.57129L20.0889 2.57324C20.4938 2.57417 20.8988 2.57522 21.3037 2.57422H22.6172L23.1387 2.5752C23.1884 2.57456 23.2388 2.5739 23.29 2.57324L23.457 2.58301C23.4798 2.58538 23.5021 2.58955 23.5244 2.59277C23.608 2.60497 23.6888 2.62136 23.7666 2.64551C23.838 2.66764 23.9064 2.69631 23.9736 2.72852C24.1362 2.80583 24.2888 2.91052 24.4355 3.04395C24.7187 3.34943 24.9864 3.73447 24.9873 4.16113V4.4541C24.9875 4.53457 24.988 4.53502 24.9883 4.61719C24.9887 4.79782 24.9882 4.97855 24.9883 5.15918C24.9885 5.28849 24.989 5.41855 24.9893 5.54785C24.99 5.89971 24.99 6.25166 24.9902 6.60352C24.9904 6.82341 24.991 7.04378 24.9912 7.26367C24.9919 7.87311 24.992 8.48334 24.9922 9.09277V9.3291C24.9922 9.40817 24.9931 9.48734 24.9932 9.56641C24.9932 9.60556 24.9932 9.64522 24.9932 9.68555C24.9934 10.3215 24.9939 10.9578 24.9951 11.5938C24.9964 12.2472 24.997 12.9012 24.9971 13.5547C24.9971 13.9214 24.9971 14.2886 24.998 14.6553C24.999 15.0003 24.9995 15.3454 24.999 15.6904C24.999 15.8169 24.9995 15.9439 25 16.0703C25.0042 17.1407 24.9294 18.0405 24.1484 18.8545C24.0785 18.9215 24.0079 18.9831 23.9375 19.041L23.8066 19.1543C23.7734 19.1825 23.7393 19.2112 23.7051 19.2402C23.7028 19.2334 23.7005 19.2265 23.6982 19.2197C23.4454 19.3906 23.1857 19.5097 22.9092 19.5898C22.8432 19.6302 22.792 19.6532 22.7354 19.668C22.5677 19.7229 22.3988 19.7247 22.1953 19.7246C22.1334 19.7247 22.0712 19.7245 22.0078 19.7246C21.9169 19.7284 21.8238 19.7326 21.7285 19.7324C21.6459 19.7326 21.5631 19.7331 21.4805 19.7334C21.2539 19.734 21.0273 19.7335 20.8008 19.7334C20.5563 19.7334 20.3118 19.7339 20.0674 19.7344C19.5884 19.7353 19.1089 19.7363 18.6299 19.7363C18.2406 19.7364 17.8512 19.736 17.4619 19.7363C16.3572 19.7373 15.2522 19.7384 14.1475 19.7383H13.7861C12.8203 19.7382 11.8545 19.7387 10.8887 19.7402C9.89652 19.7418 8.90426 19.7423 7.91211 19.7422C7.35525 19.7422 6.79807 19.743 6.24121 19.7441C5.76704 19.7451 5.29253 19.7449 4.81836 19.7441C4.57682 19.7438 4.33529 19.7442 4.09375 19.7451H3.18848C2.28926 19.7513 1.5176 19.5101 0.853516 18.8848C0.187054 18.1792 0.0129506 17.4224 0.0136719 16.4863C0.0135142 16.4233 0.0128582 16.3599 0.0126953 16.2949C0.0123159 16.1206 0.0127344 15.9458 0.0126953 15.7715C0.0125963 15.5834 0.0120756 15.3951 0.0117188 15.207C0.0109989 14.7955 0.00999978 14.3832 0.00976562 13.9717C0.00961873 13.7147 0.0100043 13.4572 0.00976562 13.2002C0.00911862 12.488 0.00799237 11.7757 0.0078125 11.0635V10.3701C0.00760269 9.62666 0.00709527 8.88311 0.00585938 8.13965C0.00459931 7.37556 0.00396818 6.61077 0.00390625 5.84668C0.00385751 5.41803 0.00291805 4.9892 0.00195312 4.56055C0.00113471 4.19567 0.00151596 3.8307 0.00195312 3.46582C0.00216005 3.27979 0.00172275 3.09325 0.000976562 2.90723C0.000521531 2.77091 0.000818914 2.63445 0.000976562 2.49805H0V1.70117H0.000976562C0.00082553 1.69219 0 1.68284 0 1.67383C0.000196288 0.791465 0.726419 0.0698664 1.64746 0.00585938V0H5.89941V0.00390625Z" fill="#82ACD9"/>
<rect y="5" width="25" height="15" rx="2.92318" fill="#BAD1E3"/>
<path d="M17 8.56268C17 8.24152 16.7483 8 16.463 8C16.4096 8 16.3549 8.00844 16.3004 8.02654L11.189 9.71404C10.9656 9.78787 10.8125 10.0039 10.8125 10.25V14.5524C10.5135 14.3279 10.1217 14.1875 9.6875 14.1875C8.75551 14.1875 8 14.8171 8 15.5938C8 16.3704 8.75551 17 9.6875 17C10.6195 17 11.375 16.3704 11.375 15.5938V12.5L16.4375 10.8125V13.4274C16.1385 13.2029 15.7467 13.0625 15.3125 13.0625C14.3805 13.0625 13.625 13.6921 13.625 14.4688C13.625 15.2454 14.3805 15.875 15.3125 15.875C16.2445 15.875 17 15.2454 17 14.4688C17 14.4682 16.9998 14.4679 16.9998 14.4673L17 8.56268ZM9.6875 16.4375C9.07771 16.4375 8.5625 16.0511 8.5625 15.5938C8.5625 15.1364 9.07771 14.75 9.6875 14.75C10.2973 14.75 10.8125 15.1364 10.8125 15.5938C10.8125 16.0511 10.2973 16.4375 9.6875 16.4375ZM16.4375 10.2196L11.375 11.9071V10.25H11.3653V10.2481L16.4375 8.57357V10.2196V10.2196ZM15.3125 15.3125C14.7027 15.3125 14.1875 14.9261 14.1875 14.4688C14.1875 14.0114 14.7027 13.625 15.3125 13.625C15.9223 13.625 16.4375 14.0114 16.4375 14.4688C16.4375 14.9261 15.9223 15.3125 15.3125 15.3125Z" fill="#82ACD9"/>
</svg>
