<svg width="25" height="20" viewBox="0 0 25 20" fill="none" xmlns="http://www.w3.org/2000/svg">
<path d="M5.89941 0.00390625C5.94745 0.00495608 5.99532 0.00567107 6.04297 0.0078125C6.04422 0.00786845 6.04562 0.0087321 6.04688 0.00878906C6.07751 0.0102888 6.10819 0.0126561 6.13867 0.0146484C6.14356 0.0149482 6.14844 0.0153112 6.15332 0.015625C6.2421 0.0213073 6.32994 0.0296372 6.41699 0.0400391C6.4205 0.0404588 6.42423 0.0405882 6.42773 0.0410156C6.45408 0.0443554 6.48057 0.0479224 6.50684 0.0517578C6.51076 0.0523143 6.51464 0.0531409 6.51855 0.0537109C6.58735 0.063686 6.65522 0.076067 6.72266 0.0898438C6.7281 0.0909598 6.73382 0.0916348 6.73926 0.0927734C6.7786 0.100978 6.81814 0.109576 6.85742 0.119141C6.86003 0.119791 6.86263 0.120447 6.86523 0.121094C6.90182 0.130339 6.93851 0.13879 6.97461 0.149414C6.98139 0.15134 6.98837 0.153233 6.99512 0.155273C7.00652 0.158552 7.0179 0.162616 7.0293 0.166016C7.03607 0.168161 7.04303 0.169746 7.0498 0.171875C7.0547 0.173468 7.05957 0.175137 7.06445 0.176758C7.06704 0.177597 7.06969 0.178825 7.07227 0.179688C7.11136 0.191904 7.1513 0.20397 7.19043 0.217773C7.18762 0.218582 7.18346 0.218937 7.18066 0.219727C7.24813 0.245729 7.31455 0.274499 7.37988 0.306641C7.38733 0.310297 7.39493 0.313643 7.40234 0.317383C7.46 0.346512 7.51644 0.378648 7.57227 0.413086C7.58057 0.418199 7.5894 0.422499 7.59766 0.427734C7.65835 0.466273 7.71707 0.509221 7.77539 0.554688C7.78232 0.560083 7.789 0.565791 7.7959 0.571289C7.85549 0.618867 7.9148 0.669084 7.97168 0.724609L8.1377 0.910156C8.19211 0.972851 8.2458 1.03606 8.29785 1.10059C8.40203 1.22942 8.50149 1.36221 8.59473 1.5C8.77051 1.7559 8.9923 1.96094 9.24219 2.12402C9.54217 2.31956 9.88288 2.45424 10.2402 2.53223C10.4721 2.57143 10.7019 2.56969 10.9365 2.56836C10.9909 2.56848 11.0456 2.56921 11.1016 2.56934C11.2829 2.56961 11.4642 2.56882 11.6455 2.56836H12.8789L14.2109 2.56934C14.3629 2.56958 14.515 2.57008 14.667 2.57031C14.7238 2.5704 14.7242 2.57022 14.7822 2.57031L16.0781 2.57129C16.1174 2.57132 16.1568 2.57224 16.1973 2.57227C16.8367 2.57271 17.4768 2.5716 18.1162 2.57129L20.0889 2.57324C20.4938 2.57417 20.8998 2.57522 21.3047 2.57422L22.2363 2.5752C22.3633 2.57546 22.4902 2.57489 22.6172 2.57422L23.1387 2.5752C23.1885 2.57456 23.2387 2.5739 23.29 2.57324L23.457 2.58301C23.4798 2.58538 23.5021 2.58955 23.5244 2.59277C23.555 2.59724 23.5855 2.60038 23.6152 2.60645C23.7858 2.64097 23.9425 2.70319 24.0908 2.79004C24.2101 2.85899 24.3246 2.94308 24.4355 3.04395C24.7187 3.34943 24.9864 3.73447 24.9873 4.16113V4.4541C24.9875 4.53457 24.988 4.53502 24.9883 4.61719C24.9887 4.79782 24.9882 4.97855 24.9883 5.15918C24.9885 5.28849 24.989 5.41855 24.9893 5.54785C24.99 5.89971 24.99 6.25166 24.9902 6.60352C24.9904 6.82341 24.991 7.04378 24.9912 7.26367C24.9919 7.87311 24.992 8.48334 24.9922 9.09277V9.3291C24.9922 9.40817 24.9931 9.48734 24.9932 9.56641C24.9932 9.60556 24.9932 9.64522 24.9932 9.68555C24.9934 10.3215 24.9939 10.9578 24.9951 11.5938C24.9964 12.2472 24.997 12.9012 24.9971 13.5547C24.9971 13.9214 24.9971 14.2886 24.998 14.6553C24.999 15.0003 24.9995 15.3454 24.999 15.6904C24.999 15.8169 24.9995 15.9439 25 16.0703C25.0042 17.1407 24.9294 18.0405 24.1484 18.8545C24.0785 18.9215 24.0079 18.9831 23.9375 19.041L23.8066 19.1543C23.7734 19.1825 23.7393 19.2112 23.7051 19.2402C23.7028 19.2334 23.7005 19.2265 23.6982 19.2197C23.4454 19.3906 23.1857 19.5097 22.9092 19.5898C22.8432 19.6302 22.792 19.6532 22.7354 19.668C22.5677 19.7229 22.3988 19.7247 22.1953 19.7246C22.1334 19.7247 22.0712 19.7245 22.0078 19.7246C21.9169 19.7284 21.8238 19.7326 21.7285 19.7324C21.6459 19.7326 21.5631 19.7331 21.4805 19.7334C21.2539 19.734 21.0273 19.7335 20.8008 19.7334C20.5563 19.7334 20.3118 19.7339 20.0674 19.7344C19.5884 19.7353 19.1089 19.7363 18.6299 19.7363C18.2406 19.7364 17.8512 19.736 17.4619 19.7363C16.3572 19.7373 15.2522 19.7384 14.1475 19.7383H13.7861C12.8203 19.7382 11.8545 19.7387 10.8887 19.7402C9.89652 19.7418 8.90426 19.7423 7.91211 19.7422C7.35525 19.7422 6.79807 19.743 6.24121 19.7441C5.76704 19.7451 5.29253 19.7449 4.81836 19.7441C4.57682 19.7438 4.33529 19.7442 4.09375 19.7451H3.18848C2.28926 19.7513 1.5176 19.5101 0.853516 18.8848C0.187054 18.1792 0.0129506 17.4224 0.0136719 16.4863C0.0135142 16.4233 0.0128582 16.3599 0.0126953 16.2949C0.0123159 16.1206 0.0127344 15.9458 0.0126953 15.7715C0.0125963 15.5834 0.0120756 15.3951 0.0117188 15.207C0.0109989 14.7955 0.00999978 14.3832 0.00976562 13.9717C0.00961873 13.7147 0.0100043 13.4572 0.00976562 13.2002C0.00911862 12.488 0.00799237 11.7757 0.0078125 11.0635V10.3701C0.00760269 9.62666 0.00709527 8.88311 0.00585938 8.13965C0.00459931 7.37556 0.00396818 6.61077 0.00390625 5.84668C0.00385751 5.41803 0.00291805 4.9892 0.00195312 4.56055C0.00113471 4.19567 0.00151596 3.8307 0.00195312 3.46582C0.00216005 3.27979 0.00172275 3.09325 0.000976562 2.90723C0.000521531 2.77091 0.000818914 2.63445 0.000976562 2.49805H0V1.70117H0.000976562C0.00082553 1.69219 0 1.68284 0 1.67383C0.000196288 0.791465 0.726419 0.0698664 1.64746 0.00585938V0H5.89941V0.00390625Z" fill="#82ACD9"/>
<rect y="5" width="25" height="15" rx="2.92318" fill="#BAD1E3"/>
<path d="M14.7797 9.72266L13.4688 8.24785C13.3281 8.08965 13.1375 8 12.9391 8H9.75C9.33594 8.00176 9 8.37969 9 8.84551V16.158C9 16.6238 9.33594 17.0018 9.75 17.0018H14.25C14.6641 17.0018 15 16.6238 15 16.158V10.3203C15 10.0971 14.9203 9.88086 14.7797 9.72266ZM14.4266 10.1217C14.4594 10.1586 14.4813 10.2025 14.4922 10.2518H13V8.57305C13.0437 8.58535 13.0828 8.60996 13.1156 8.64687L14.4266 10.1217ZM14.25 16.4393H9.75C9.6125 16.4393 9.5 16.3127 9.5 16.158V8.84551C9.5 8.69082 9.6125 8.56426 9.75 8.56426H12.5V10.3924C12.5 10.6262 12.6672 10.8143 12.875 10.8143H14.5V16.158C14.5 16.3127 14.3875 16.4393 14.25 16.4393Z" fill="#82ACD9"/>
</svg>
