<svg width="25" height="22" viewBox="0 0 25 22" fill="none" xmlns="http://www.w3.org/2000/svg">
<path fill-rule="evenodd" clip-rule="evenodd" d="M24.7185 15.7147L24.7238 15.7055C24.9079 15.3838 25 15.0252 25 14.6667C25 14.3027 24.9051 13.9387 24.7152 13.6132L17.3815 1.03958C17.0069 0.397356 16.3195 0.00245642 15.5762 0.00245642H10.5698C23.3642 0.00233003 9.42396 0 9.42396 0C8.68058 0 7.99315 0.394956 7.61858 1.03726L0.284715 13.6132C-0.0949049 14.2642 -0.0949051 15.0691 0.284715 15.7201L3.34513 20.968L3.35091 20.9778C3.72739 21.6112 4.40988 22 5.14744 22H19.8526C20.596 22 21.2834 21.605 21.658 20.9627L24.7185 15.7147ZM1.4883 14.3155L8.82217 1.73955C8.88639 1.62942 8.97821 1.5411 9.08597 1.4813L11.6929 5.95114L3.94693 19.2338L1.4883 15.0178C1.36176 14.8008 1.36176 14.5325 1.4883 14.3155ZM7.41068 16.0605H22.9037L20.4544 20.2604C20.3296 20.4746 20.1004 20.6062 19.8526 20.6062H5.14744C5.02751 20.6062 4.91195 20.5754 4.81046 20.5193L7.41068 16.0605ZM12.4995 7.33415L8.22349 14.6667H16.7761L12.4995 7.33415ZM10.6496 1.39625L18.3893 14.6667H23.6066C23.6066 14.5453 23.5749 14.424 23.5117 14.3156L16.178 1.74196C16.0531 1.52789 15.824 1.39625 15.5762 1.39625H10.6496Z" fill="#111111"/>
</svg>
