<svg width="16" height="14" viewBox="0 0 16 14" fill="none" xmlns="http://www.w3.org/2000/svg">
<path d="M15.9046 6.16023L8.628 0.222732C8.44931 0.0786026 8.22665 0 7.99707 0C7.76749 0 7.54483 0.0786026 7.36613 0.222732L0.0920656 6.16023C0.0407511 6.20205 0.00811722 6.26252 0.00132161 6.32836C-0.00547401 6.39421 0.0141235 6.46007 0.0558156 6.51148L0.371441 6.8993C0.413094 6.95038 0.473239 6.98295 0.538787 6.98992C0.604336 6.99688 0.669982 6.97768 0.721441 6.93648L1.99832 5.89336V13.4871C1.99832 13.6197 2.05099 13.7469 2.14476 13.8407C2.23853 13.9344 2.36571 13.9871 2.49832 13.9871H6.49832C6.63092 13.9871 6.7581 13.9344 6.85187 13.8407C6.94564 13.7469 6.99832 13.6197 6.99832 13.4871V9.48711L8.99832 9.49648V13.499C8.99832 13.6316 9.05099 13.7588 9.14476 13.8525C9.23853 13.9463 9.36571 13.999 9.49832 13.999L13.4983 13.9887C13.6309 13.9887 13.7581 13.936 13.8519 13.8422C13.9456 13.7485 13.9983 13.6213 13.9983 13.4887V5.89336L15.2752 6.93648C15.3266 6.97827 15.3926 6.99793 15.4585 6.99113C15.5244 6.98433 15.5849 6.95164 15.6268 6.90023L15.9424 6.51242C15.9631 6.48684 15.9785 6.45742 15.9878 6.42585C15.9971 6.39429 16.0001 6.3612 15.9966 6.32847C15.9931 6.29575 15.9832 6.26405 15.9674 6.23518C15.9516 6.20631 15.9302 6.18084 15.9046 6.16023ZM12.9949 12.9912H12.998L9.998 13.0005V8.99523C9.99759 8.86302 9.945 8.73632 9.85166 8.64268C9.75832 8.54905 9.63178 8.49606 9.49957 8.49523L6.49957 8.4868C6.43377 8.48659 6.36859 8.49937 6.30774 8.52441C6.2469 8.54944 6.1916 8.58624 6.145 8.63269C6.09841 8.67914 6.06144 8.73433 6.03621 8.79509C6.01099 8.85586 5.998 8.921 5.998 8.9868V12.9912H2.99832V5.07742L7.99832 0.997107L12.9983 5.07742L12.9949 12.9912Z" fill="black"/>
</svg>
