<svg width="24" height="16" viewBox="0 0 24 16" fill="none" xmlns="http://www.w3.org/2000/svg">
<path d="M1.30496 15.1192C1.18574 15.1192 1.08639 15.0795 1.00691 15C0.940673 14.9205 0.907556 14.8145 0.907556 14.6821V1.32918C0.907556 1.18347 0.940673 1.07087 1.00691 0.991386C1.07314 0.911905 1.15925 0.872164 1.26522 0.872164C1.38444 0.872164 1.47055 0.892035 1.52354 0.931776C1.58977 0.971516 1.65601 1.04437 1.72224 1.15035L11.2998 14.1654H10.8626V1.30931C10.8626 1.1636 10.8957 1.05762 10.962 0.991386C11.0414 0.911905 11.1408 0.872164 11.26 0.872164C11.3792 0.872164 11.472 0.911905 11.5382 0.991386C11.6044 1.05762 11.6376 1.1636 11.6376 1.30931V14.6622C11.6376 14.8079 11.6044 14.9205 11.5382 15C11.4852 15.0795 11.4057 15.1192 11.2998 15.1192C11.207 15.1192 11.1209 15.0927 11.0414 15.0397C10.9752 15 10.909 14.9338 10.8427 14.841L1.26522 1.82594H1.6825V14.6821C1.6825 14.8145 1.64938 14.9205 1.58315 15C1.51691 15.0795 1.42419 15.1192 1.30496 15.1192ZM13.0965 15.1192C12.9773 15.1192 12.8779 15.0861 12.7984 15.0199C12.7322 14.9669 12.6924 14.9006 12.6792 14.8212C12.6792 14.7284 12.7123 14.6357 12.7786 14.543L17.8256 7.70757V7.90628L13.1163 1.50802C13.0369 1.38879 12.9971 1.28282 12.9971 1.19009C13.0104 1.09736 13.0501 1.0245 13.1163 0.971516C13.1958 0.905282 13.2819 0.872164 13.3747 0.872164C13.4806 0.872164 13.5667 0.892035 13.633 0.931776C13.7125 0.971516 13.7853 1.04437 13.8516 1.15035L18.382 7.31017H18.1436L22.6144 1.15035C22.6806 1.04437 22.7469 0.971516 22.8131 0.931776C22.8926 0.892035 22.9853 0.872164 23.0913 0.872164C23.1972 0.872164 23.2834 0.905282 23.3496 0.971516C23.4158 1.0245 23.4489 1.09736 23.4489 1.19009C23.4622 1.28282 23.4291 1.38879 23.3496 1.50802L18.6403 7.90628V7.70757L23.6874 14.543C23.7536 14.6357 23.7801 14.7284 23.7669 14.8212C23.7669 14.9006 23.7271 14.9669 23.6476 15.0199C23.5814 15.0861 23.4887 15.1192 23.3695 15.1192C23.29 15.1192 23.2039 15.0927 23.1111 15.0397C23.0317 15 22.9588 14.9338 22.8926 14.841L18.0243 8.20433H18.4416L13.5734 14.841C13.5071 14.9338 13.4276 15 13.3349 15.0397C13.2554 15.0927 13.176 15.1192 13.0965 15.1192Z" fill="black"/>
</svg>
