<svg width="51" height="47" viewBox="0 0 51 47" fill="none" xmlns="http://www.w3.org/2000/svg">
<rect x="0.5" y="0.5" width="50" height="46" rx="4.5" fill="#00B48D" stroke="#E4E4E4"/>
<path d="M8.41016 5.43359C9.51562 5.43359 10.3223 5.65039 10.8301 6.08398C11.3418 6.51367 11.5977 7.13086 11.5977 7.93555C11.5977 8.29883 11.5371 8.64453 11.416 8.97266C11.2988 9.29688 11.1074 9.58398 10.8418 9.83398C10.5762 10.0801 10.2266 10.2754 9.79297 10.4199C9.36328 10.5605 8.83594 10.6309 8.21094 10.6309H7.16797V14H6.17188V5.43359H8.41016ZM8.31641 6.2832H7.16797V9.77539H8.09961C8.64648 9.77539 9.10156 9.7168 9.46484 9.59961C9.83203 9.48242 10.1074 9.29297 10.291 9.03125C10.4746 8.76562 10.5664 8.41406 10.5664 7.97656C10.5664 7.40625 10.3848 6.98242 10.0215 6.70508C9.6582 6.42383 9.08984 6.2832 8.31641 6.2832ZM19.1279 14H17.9795L13.3095 6.80469H13.2627C13.2744 6.99609 13.288 7.21484 13.3037 7.46094C13.3193 7.70312 13.331 7.96289 13.3388 8.24023C13.3505 8.51367 13.3564 8.79297 13.3564 9.07812V14H12.4306V5.43359H13.5732L18.2255 12.6055H18.2666C18.2587 12.4688 18.249 12.2754 18.2373 12.0254C18.2255 11.7715 18.2138 11.5 18.2021 11.2109C18.1943 10.918 18.1904 10.6465 18.1904 10.3965V5.43359H19.1279V14ZM24.1679 9.51172H27.162V13.666C26.7128 13.8184 26.2499 13.9316 25.7734 14.0059C25.3007 14.0801 24.7714 14.1172 24.1855 14.1172C23.2948 14.1172 22.5429 13.9395 21.9296 13.584C21.3202 13.2285 20.8573 12.7227 20.5409 12.0664C20.2245 11.4062 20.0663 10.623 20.0663 9.7168C20.0663 8.83008 20.2402 8.05664 20.5878 7.39648C20.9394 6.73633 21.4452 6.22461 22.1054 5.86133C22.7695 5.49414 23.5663 5.31055 24.496 5.31055C24.9726 5.31055 25.4237 5.35547 25.8495 5.44531C26.2792 5.53125 26.6777 5.6543 27.0448 5.81445L26.664 6.68164C26.3476 6.54492 25.998 6.42773 25.6152 6.33008C25.2362 6.23242 24.8437 6.18359 24.4374 6.18359C23.7382 6.18359 23.1386 6.32812 22.6386 6.61719C22.1425 6.90625 21.7616 7.31445 21.496 7.8418C21.2343 8.36914 21.1034 8.99414 21.1034 9.7168C21.1034 10.4316 21.2187 11.0547 21.4491 11.5859C21.6796 12.1133 22.039 12.5234 22.5273 12.8164C23.0155 13.1094 23.6445 13.2559 24.414 13.2559C24.8007 13.2559 25.1327 13.2344 25.4101 13.1914C25.6874 13.1445 25.9394 13.0898 26.1659 13.0273V10.4023H24.1679V9.51172Z" fill="white"/>
<rect x="17" y="32" width="6" height="6" fill="white"/>
<rect x="29" y="32" width="6" height="6" fill="white"/>
<rect x="23" y="26" width="6" height="6" fill="white"/>
<rect x="29" y="20" width="6" height="6" fill="white"/>
<rect x="17" y="20" width="6" height="6" fill="white"/>
</svg>
