<svg width="51" height="47" viewBox="0 0 51 47" fill="none" xmlns="http://www.w3.org/2000/svg">
<rect x="0.5" y="0.5" width="50" height="46" rx="4.5" fill="#F68003" stroke="#E4E4E4"/>
<path d="M8.48633 5.43359C9.18945 5.43359 9.76953 5.52148 10.2266 5.69727C10.6875 5.86914 11.0312 6.13281 11.2578 6.48828C11.4844 6.84375 11.5977 7.29688 11.5977 7.84766C11.5977 8.30078 11.5156 8.67969 11.3516 8.98438C11.1875 9.28516 10.9727 9.5293 10.707 9.7168C10.4414 9.9043 10.1582 10.0488 9.85742 10.1504L12.207 14H11.0469L8.94922 10.4258H7.16797V14H6.17188V5.43359H8.48633ZM8.42773 6.29492H7.16797V9.58203H8.52734C9.22656 9.58203 9.74023 9.43945 10.0684 9.1543C10.4004 8.86914 10.5664 8.44922 10.5664 7.89453C10.5664 7.3125 10.3906 6.90039 10.0391 6.6582C9.69141 6.41602 9.1543 6.29492 8.42773 6.29492ZM17.4521 11.7207C17.4521 12.2285 17.3252 12.6621 17.0712 13.0215C16.8212 13.377 16.4697 13.6484 16.0166 13.8359C15.5634 14.0234 15.0302 14.1172 14.417 14.1172C14.0927 14.1172 13.7861 14.1016 13.497 14.0703C13.208 14.0391 12.9423 13.9941 12.7002 13.9355C12.458 13.877 12.2451 13.8047 12.0615 13.7188V12.7637C12.3545 12.8848 12.7119 12.998 13.1337 13.1035C13.5556 13.2051 13.997 13.2559 14.458 13.2559C14.8877 13.2559 15.2509 13.1992 15.5478 13.0859C15.8447 12.9688 16.0693 12.8027 16.2216 12.5879C16.3779 12.3691 16.456 12.1074 16.456 11.8027C16.456 11.5098 16.3916 11.2656 16.2627 11.0703C16.1337 10.8711 15.9189 10.6914 15.6181 10.5312C15.3212 10.3672 14.915 10.1934 14.3994 10.0098C14.0361 9.88086 13.7158 9.74023 13.4384 9.58789C13.1611 9.43164 12.9287 9.25586 12.7412 9.06055C12.5537 8.86523 12.4111 8.63867 12.3134 8.38086C12.2197 8.12305 12.1728 7.82812 12.1728 7.49609C12.1728 7.03906 12.288 6.64844 12.5185 6.32422C12.7529 5.99609 13.0752 5.74609 13.4853 5.57422C13.8994 5.39844 14.374 5.31055 14.9091 5.31055C15.3662 5.31055 15.788 5.35352 16.1748 5.43945C16.5654 5.52539 16.9228 5.64062 17.247 5.78516L16.9365 6.64062C16.6279 6.51172 16.2998 6.4043 15.9521 6.31836C15.6084 6.23242 15.2529 6.18945 14.8857 6.18945C14.5185 6.18945 14.208 6.24414 13.9541 6.35352C13.7041 6.45898 13.5127 6.60938 13.3798 6.80469C13.247 7 13.1806 7.23242 13.1806 7.50195C13.1806 7.80273 13.2431 8.05273 13.3681 8.25195C13.497 8.45117 13.7002 8.62891 13.9775 8.78516C14.2587 8.9375 14.6298 9.09766 15.0908 9.26562C15.5947 9.44922 16.0224 9.64453 16.374 9.85156C16.7255 10.0547 16.9931 10.3047 17.1767 10.6016C17.3603 10.8945 17.4521 11.2676 17.4521 11.7207Z" fill="white"/>
<path d="M34.8646 28.2675L34.0675 27.7737C34.0608 27.696 34.0532 27.6184 34.0448 27.5413L34.7311 26.9022C34.8009 26.8372 34.8321 26.741 34.8132 26.648C34.7949 26.5545 34.7293 26.4776 34.6402 26.4447L33.7632 26.1179C33.7412 26.042 33.7181 25.9667 33.6946 25.8909L34.241 25.132C34.2968 25.0549 34.3082 24.9544 34.2719 24.8669C34.2356 24.7793 34.1562 24.7164 34.0631 24.701L33.1389 24.5507C33.1029 24.4806 33.0655 24.4116 33.0277 24.3437L33.4163 23.4904C33.456 23.4036 33.4479 23.3034 33.3949 23.2235C33.342 23.1444 33.2525 23.0981 33.157 23.1017L32.2182 23.1344C32.1698 23.0738 32.1204 23.0137 32.0701 22.9546L32.2862 22.0414C32.308 21.9486 32.2806 21.8508 32.213 21.7836C32.146 21.7164 32.0487 21.6887 31.9552 21.7104L31.0418 21.9265C30.9827 21.8764 30.9226 21.8268 30.8617 21.7783L30.8946 20.8397C30.8982 20.7447 30.8519 20.6545 30.7728 20.6019C30.6934 20.5488 30.593 20.5409 30.5058 20.5803L29.6543 20.9688C29.5855 20.9311 29.5165 20.8936 29.4473 20.8575L29.2966 19.9334C29.2814 19.8397 29.2185 19.7602 29.1306 19.7245C29.0429 19.6881 28.9418 19.6998 28.8655 19.7554L28.1065 20.3019C28.0317 20.2781 27.9566 20.2553 27.8814 20.2334L27.5546 19.3566C27.5214 19.2672 27.4444 19.2017 27.3513 19.1832C27.2579 19.1648 27.1624 19.1959 27.0971 19.2652L26.458 19.9515C26.3808 19.943 26.3031 19.9352 26.2255 19.9288L25.7316 19.13C25.6817 19.0492 25.5933 19 25.4974 19C25.4016 19 25.314 19.0492 25.265 19.13L24.7712 19.9288C24.6934 19.9352 24.6157 19.943 24.5387 19.9515L23.8996 19.2652C23.8348 19.1959 23.7385 19.1648 23.6454 19.1832C23.5519 19.2019 23.4749 19.2672 23.442 19.3566L23.1152 20.2334C23.0393 20.2552 22.9641 20.2783 22.89 20.3019L22.131 19.7554C22.0539 19.6997 21.9533 19.6879 21.866 19.7245C21.7783 19.7608 21.7153 19.8404 21.7 19.9334L21.5493 20.8575C21.4796 20.8936 21.4106 20.9309 21.3423 20.9688L20.4907 20.5803C20.4041 20.5407 20.3037 20.5488 20.2238 20.6019C20.1447 20.6546 20.0984 20.7447 20.102 20.8397L20.1347 21.7783C20.074 21.8268 20.014 21.8764 19.9545 21.9265L19.0412 21.7104C18.9484 21.6889 18.8506 21.7164 18.7834 21.7836C18.7159 21.851 18.6885 21.9481 18.7102 22.0414L18.9245 22.9546C18.8746 23.0138 18.8252 23.0738 18.7767 23.1344L17.8379 23.1017C17.7434 23.099 17.6528 23.1444 17.6001 23.2235C17.547 23.3023 17.5391 23.4033 17.5785 23.4904L17.9671 24.3437C17.9293 24.4122 17.8919 24.4811 17.8557 24.5507L16.9315 24.701C16.8376 24.7163 16.7585 24.7791 16.7227 24.8669C16.6864 24.955 16.6982 25.0558 16.7536 25.132L17.3 25.8909C17.2763 25.9659 17.2532 26.0413 17.2315 26.1179L16.3544 26.4447C16.2655 26.4779 16.1999 26.5549 16.1814 26.648C16.1629 26.7414 16.1939 26.8369 16.2635 26.9022L16.9498 27.5413C16.9413 27.6185 16.9337 27.6962 16.9271 27.7737L16.13 28.2675C16.0492 28.3175 16 28.4057 16 28.5017C16 28.5977 16.0492 28.6851 16.13 28.7341L16.9271 29.2279C16.9337 29.3057 16.9413 29.3832 16.9498 29.4603L16.2635 30.0995C16.1939 30.1643 16.1629 30.2605 16.1814 30.3536C16.1999 30.4471 16.2654 30.5239 16.3544 30.5569L17.2315 30.8838C17.2532 30.9597 17.2763 31.035 17.3 31.1108L16.7536 31.8697C16.698 31.947 16.6862 32.0474 16.7227 32.1347C16.7592 32.2228 16.8386 32.2856 16.9333 32.3007L17.8576 32.451C17.8937 32.5211 17.9307 32.5901 17.9688 32.658L17.5803 33.5095C17.5407 33.5961 17.5489 33.6965 17.6019 33.7764C17.6549 33.8557 17.7451 33.902 17.8397 33.8982L18.7766 33.8654C18.8255 33.9263 18.8747 33.986 18.9248 34.0455L18.7106 34.9587C18.6888 35.0513 18.7162 35.1475 18.7837 35.2147C18.8507 35.2824 18.9483 35.3095 19.0415 35.2877L19.9549 35.0735C20.0142 35.124 20.0743 35.173 20.135 35.2212L20.1023 36.1599C20.0987 36.2549 20.145 36.3451 20.2242 36.3977C20.3029 36.4505 20.4039 36.4586 20.4911 36.419L21.3426 36.0304C21.4113 36.0685 21.4802 36.1056 21.5496 36.1418L21.7003 37.0658C21.7156 37.1599 21.7784 37.2394 21.8662 37.2765C21.9539 37.313 22.0551 37.3012 22.1313 37.2458L22.8903 36.6993C22.9653 36.7231 23.0407 36.7463 23.1173 36.7681L23.4441 37.645C23.4774 37.734 23.5543 37.7999 23.6475 37.8181C23.7408 37.8369 23.8364 37.8057 23.9017 37.736L24.5408 37.0497C24.618 37.0586 24.6957 37.066 24.7732 37.0729L25.2671 37.87C25.3169 37.9504 25.4053 38 25.4995 38C25.5938 38 25.6829 37.9506 25.7337 37.87L26.2276 37.0729C26.3053 37.066 26.3829 37.0586 26.4601 37.0497L27.0992 37.736C27.164 37.8057 27.2603 37.8369 27.3534 37.8181C27.4469 37.7997 27.5239 37.734 27.5567 37.645L27.8836 36.7681C27.9595 36.7464 28.0349 36.7231 28.1106 36.6993L28.8695 37.2458C28.9467 37.3012 29.0473 37.313 29.1346 37.2765C29.2225 37.2404 29.2854 37.1607 29.3006 37.0658L29.4513 36.1418C29.521 36.1056 29.59 36.068 29.6582 36.0304L30.5098 36.419C30.5965 36.4586 30.6968 36.4505 30.7768 36.3977C30.8559 36.3447 30.902 36.2548 30.8986 36.1599L30.8659 35.2212C30.9266 35.1728 30.9866 35.124 31.0459 35.0735L31.9591 35.2877C32.0519 35.3095 32.1498 35.2824 32.2169 35.2147C32.2845 35.1473 32.3119 35.0505 32.2901 34.9587L32.0759 34.0455C32.126 33.9861 32.1754 33.9263 32.2236 33.8654L33.1624 33.8982C33.257 33.902 33.3476 33.8557 33.4003 33.7764C33.4533 33.6972 33.4614 33.5965 33.4217 33.5095L33.0331 32.658C33.071 32.5892 33.1083 32.5202 33.1443 32.451L34.0685 32.3007C34.1626 32.2856 34.2417 32.2228 34.2773 32.1347C34.3136 32.047 34.3021 31.9459 34.2464 31.8697L33.7 31.1108C33.7235 31.0358 33.7466 30.9604 33.7685 30.8838L34.6456 30.5569C34.7347 30.5236 34.8004 30.4467 34.8186 30.3536C34.8375 30.2603 34.8063 30.1648 34.7365 30.0995L34.0502 29.4603C34.0585 29.3832 34.0661 29.3055 34.0729 29.2279L34.87 28.7341C34.9508 28.6844 35 28.596 35 28.5017C35 28.4075 34.951 28.3184 34.8702 28.2675H34.8646ZM29.5264 34.8944C29.2214 34.8287 29.0289 34.5277 29.0942 34.2226C29.1594 33.9176 29.4591 33.7233 29.7642 33.7887C30.0692 33.8539 30.2636 34.1554 30.1982 34.4605C30.1328 34.7655 29.8332 34.9598 29.5282 34.8944H29.5264ZM29.2558 33.0607C28.978 33.0011 28.7038 33.178 28.6457 33.4565L28.3625 34.7782C27.4891 35.174 26.5104 35.3955 25.4936 35.3955C24.4478 35.3955 23.46 35.165 22.5703 34.751L22.287 33.4293C22.2275 33.1514 21.9547 32.9736 21.6769 33.0335L20.5094 33.284C20.2934 33.0607 20.0918 32.8228 19.9066 32.5723H25.5898C25.6541 32.5723 25.6969 32.5607 25.6969 32.5022V30.4869C25.6969 30.4285 25.6541 30.4168 25.5898 30.4168H23.9284V29.1441H25.7242C25.8881 29.1441 26.6012 29.191 26.8281 30.1027C26.8995 30.3823 27.0569 31.2938 27.164 31.586C27.2708 31.9129 27.7052 32.5665 28.1681 32.5665H31.0007C31.0328 32.5665 31.0671 32.5628 31.1032 32.5563C30.9071 32.8232 30.6911 33.0756 30.4605 33.3116L29.2657 33.0556L29.2558 33.0607ZM21.3938 34.8672C21.0887 34.9329 20.7892 34.7386 20.7238 34.4333C20.6585 34.1282 20.8523 33.8268 21.1577 33.7615C21.4628 33.6963 21.7624 33.8905 21.8277 34.1954C21.8929 34.5005 21.699 34.8018 21.3938 34.8672ZM19.233 26.1342C19.3594 26.4193 19.2309 26.7533 18.9462 26.8804C18.6611 27.007 18.3288 26.8782 18.2017 26.5936C18.0746 26.3089 18.2039 25.9745 18.4886 25.8474C18.7737 25.721 19.1059 25.8495 19.233 26.1342ZM18.5703 27.7029L19.7868 27.1619C20.0465 27.0465 20.1645 26.7425 20.0483 26.4828L19.7977 25.9163H20.7819V30.3464H18.8027C18.6304 29.7399 18.5377 29.1009 18.5377 28.44C18.5377 28.1877 18.5513 27.9389 18.5774 27.6938L18.5703 27.7029ZM23.9085 27.2726V25.9654H26.2508C26.3719 25.9654 27.106 26.1054 27.106 26.6535C27.106 27.1092 26.5431 27.2726 26.0801 27.2726H23.9013H23.9085ZM32.4243 28.4491C32.4243 28.6227 32.4179 28.794 32.4052 28.9647H31.6916C31.6203 28.9647 31.5916 29.0116 31.5916 29.0815V29.4082C31.5916 30.178 31.1577 30.3469 30.7763 30.3887C30.4132 30.4295 30.0119 30.2369 29.9629 30.0147C29.7486 28.811 29.3928 28.555 28.8299 28.1083C29.5289 27.6654 30.2552 27.0099 30.2552 26.1293C30.2552 25.1835 29.607 24.5879 29.1658 24.2956C28.5448 23.8871 27.8585 23.8053 27.6733 23.8053H20.3014C21.3019 22.6906 22.6618 21.899 24.1871 21.6085L25.0568 22.5199C25.2529 22.7251 25.5779 22.7342 25.7849 22.5366L26.7582 21.607C28.7917 21.9865 30.5167 23.2538 31.5153 25.0022L30.849 26.5056C30.734 26.7651 30.8513 27.0702 31.1104 27.1845L32.3923 27.7546C32.4145 27.9816 32.4261 28.2122 32.4261 28.4446L32.4243 28.4491ZM25.0525 20.8418C25.2776 20.6258 25.6352 20.6348 25.8495 20.8601C26.0638 21.0853 26.0565 21.443 25.8308 21.659C25.6057 21.8751 25.2479 21.866 25.0337 21.6405C24.8194 21.4154 24.8267 21.0577 25.0524 20.8416L25.0525 20.8418ZM31.6617 26.1615C31.7879 25.8764 32.1211 25.7475 32.4061 25.8746C32.6912 26.001 32.8201 26.3358 32.693 26.6208C32.5668 26.9059 32.2336 27.0348 31.9485 26.9077C31.6635 26.7813 31.5345 26.4465 31.6617 26.1615Z" fill="white"/>
</svg>
