<svg width="51" height="47" viewBox="0 0 51 47" fill="none" xmlns="http://www.w3.org/2000/svg">
<rect x="0.5" y="0.5" width="50" height="46" rx="4.5" fill="#1CA9F4" stroke="#E4E4E4"/>
<path d="M9.83398 6.18945C9.36133 6.18945 8.93555 6.27148 8.55664 6.43555C8.18164 6.5957 7.86133 6.83008 7.5957 7.13867C7.33398 7.44336 7.13281 7.8125 6.99219 8.24609C6.85156 8.67969 6.78125 9.16797 6.78125 9.71094C6.78125 10.4297 6.89258 11.0547 7.11523 11.5859C7.3418 12.1133 7.67773 12.5215 8.12305 12.8105C8.57227 13.0996 9.13281 13.2441 9.80469 13.2441C10.1875 13.2441 10.5469 13.2129 10.8828 13.1504C11.2227 13.084 11.5527 13.002 11.873 12.9043V13.7715C11.5605 13.8887 11.2324 13.9746 10.8887 14.0293C10.5449 14.0879 10.1367 14.1172 9.66406 14.1172C8.79297 14.1172 8.06445 13.9375 7.47852 13.5781C6.89648 13.2148 6.45898 12.7031 6.16602 12.043C5.87695 11.3828 5.73242 10.6035 5.73242 9.70508C5.73242 9.05664 5.82227 8.46484 6.00195 7.92969C6.18555 7.39062 6.45117 6.92578 6.79883 6.53516C7.15039 6.14453 7.58008 5.84375 8.08789 5.63281C8.59961 5.41797 9.18555 5.31055 9.8457 5.31055C10.2793 5.31055 10.6973 5.35352 11.0996 5.43945C11.502 5.52539 11.8652 5.64844 12.1895 5.80859L11.791 6.65234C11.5176 6.52734 11.2168 6.41992 10.8887 6.33008C10.5645 6.23633 10.2129 6.18945 9.83398 6.18945Z" fill="white"/>
<path d="M27.082 24.2842C26.373 24.2842 25.7344 24.4072 25.166 24.6533C24.6035 24.8936 24.123 25.2451 23.7246 25.708C23.332 26.165 23.0303 26.7188 22.8193 27.3691C22.6084 28.0195 22.5029 28.752 22.5029 29.5664C22.5029 30.6445 22.6699 31.582 23.0039 32.3789C23.3438 33.1699 23.8477 33.7822 24.5156 34.2158C25.1895 34.6494 26.0303 34.8662 27.0381 34.8662C27.6123 34.8662 28.1514 34.8193 28.6553 34.7256C29.165 34.626 29.6602 34.5029 30.1406 34.3564V35.6572C29.6719 35.833 29.1797 35.9619 28.6641 36.0439C28.1484 36.1318 27.5361 36.1758 26.8271 36.1758C25.5205 36.1758 24.4277 35.9062 23.5488 35.3672C22.6758 34.8223 22.0195 34.0547 21.5801 33.0645C21.1465 32.0742 20.9297 30.9053 20.9297 29.5576C20.9297 28.585 21.0645 27.6973 21.334 26.8945C21.6094 26.0859 22.0078 25.3887 22.5293 24.8027C23.0566 24.2168 23.7012 23.7656 24.4629 23.4492C25.2305 23.127 26.1094 22.9658 27.0996 22.9658C27.75 22.9658 28.377 23.0303 28.9805 23.1592C29.584 23.2881 30.1289 23.4727 30.6152 23.7129L30.0176 24.9785C29.6074 24.791 29.1562 24.6299 28.6641 24.4951C28.1777 24.3545 27.6504 24.2842 27.082 24.2842Z" fill="white"/>
</svg>
