<svg width="51" height="47" viewBox="0 0 51 47" fill="none" xmlns="http://www.w3.org/2000/svg">
<rect x="0.5" y="0.5" width="50" height="46" rx="4.5" fill="#8252B1" stroke="#E4E4E4"/>
<path d="M23.4683 36H14.5474V34.875L21.4644 24.4863H14.7847V23.1504H23.2838V24.2754L16.358 34.6641H23.4683V36ZM24.4805 36V23.1504H25.9746V36H24.4805ZM31.4252 23.1504C33.0834 23.1504 34.2934 23.4756 35.0551 24.126C35.8227 24.7705 36.2065 25.6963 36.2065 26.9033C36.2065 27.4482 36.1157 27.9668 35.934 28.459C35.7582 28.9453 35.4711 29.376 35.0727 29.751C34.6743 30.1201 34.1498 30.4131 33.4995 30.6299C32.8549 30.8408 32.0639 30.9463 31.1264 30.9463H29.562V36H28.0678V23.1504H31.4252ZM31.2846 24.4248H29.562V29.6631H30.9594C31.7797 29.6631 32.4623 29.5752 33.0073 29.3994C33.558 29.2236 33.9711 28.9395 34.2465 28.5469C34.5219 28.1484 34.6596 27.6211 34.6596 26.9648C34.6596 26.1094 34.3871 25.4736 33.8422 25.0576C33.2973 24.6357 32.4448 24.4248 31.2846 24.4248Z" fill="white"/>
</svg>
